{"glyphs":{"0":{"ha":861,"x_min":0,"x_max":0,"o":"m 797 508 b 431 1031 797 872 660 1031 b 65 508 201 1031 65 872 b 431 -17 65 153 201 -17 b 797 508 660 -17 797 153 z m 632 508 b 431 122 632 222 565 122 b 230 508 297 122 230 222 b 431 892 230 794 297 892 b 632 508 565 892 632 794 z m 431 397 b 352 504 380 397 352 437 b 431 612 352 573 380 612 b 510 504 482 612 510 573 b 431 397 510 437 482 397 z "},"1":{"ha":861,"x_min":0,"x_max":0,"o":"m 140 831 l 140 672 b 361 782 216 672 297 717 l 361 133 l 116 133 l 116 0 l 769 0 l 769 133 l 519 133 l 519 1014 l 361 1014 b 140 831 337 910 213 831 z "},"2":{"ha":861,"x_min":0,"x_max":0,"o":"m 407 1031 b 86 746 220 1031 88 944 l 234 732 b 411 902 248 857 308 902 b 574 750 518 902 574 855 b 375 501 574 616 482 563 b 88 133 199 399 88 296 l 88 0 l 763 0 l 763 133 l 238 133 b 448 376 243 240 301 290 b 732 753 578 453 732 532 b 407 1031 732 947 601 1031 z "},"3":{"ha":861,"x_min":0,"x_max":0,"o":"m 417 1030 b 98 748 235 1030 103 949 l 242 734 b 422 902 256 852 321 902 b 590 753 528 902 590 847 b 345 574 590 641 497 574 l 328 574 l 328 453 l 345 453 b 608 275 493 453 608 408 b 421 115 608 184 553 115 b 224 297 302 115 240 175 l 76 283 b 423 -17 79 84 203 -17 b 770 272 643 -17 770 93 b 549 522 770 438 665 499 b 744 767 652 551 744 622 b 417 1030 744 937 626 1030 z "},"4":{"ha":861,"x_min":0,"x_max":0,"o":"m 674 0 l 674 265 l 788 265 l 788 397 l 674 397 l 674 1014 l 510 1014 l 66 397 l 66 265 l 520 265 l 520 0 z m 219 390 l 520 814 l 520 390 z "},"5":{"ha":861,"x_min":0,"x_max":0,"o":"m 161 1014 l 98 474 l 234 452 b 427 540 276 499 340 540 b 612 326 538 540 612 467 b 419 115 612 177 538 115 b 228 297 307 115 239 174 l 76 283 b 413 -15 79 91 201 -15 b 770 324 641 -15 770 103 b 464 648 770 532 656 648 b 249 583 372 648 303 621 l 285 882 l 717 882 l 717 1014 z "},"6":{"ha":861,"x_min":0,"x_max":0,"o":"m 449 1030 b 73 513 237 1030 73 913 b 437 -15 73 118 215 -15 b 781 321 660 -15 781 108 b 494 620 781 528 665 620 b 237 522 375 620 293 574 b 447 902 239 828 331 902 b 614 744 547 902 599 849 l 762 759 b 449 1030 751 950 622 1030 z m 240 417 b 451 509 294 468 367 509 b 622 319 559 509 622 444 b 436 115 622 189 549 115 b 240 417 321 115 253 191 z "},"7":{"ha":861,"x_min":0,"x_max":0,"o":"m 102 1014 l 102 882 l 590 882 l 265 0 l 428 0 l 762 912 l 762 1014 z "},"8":{"ha":861,"x_min":0,"x_max":0,"o":"m 431 1031 b 108 774 250 1031 108 949 b 267 520 108 653 174 576 b 72 251 167 474 72 397 b 422 -17 72 88 196 -17 b 788 263 656 -17 788 87 b 590 538 788 410 697 487 b 754 774 680 582 754 649 b 431 1031 754 948 615 1031 z m 227 274 b 364 474 227 376 294 436 l 367 473 b 625 265 542 404 625 367 b 431 114 625 165 551 114 b 227 274 318 114 227 160 z m 261 772 b 428 903 261 858 328 903 b 610 756 535 903 610 852 b 476 585 610 667 546 620 b 261 772 344 631 261 678 z "},"9":{"ha":861,"x_min":0,"x_max":0,"o":"m 413 -15 b 788 502 625 -15 788 102 b 425 1031 788 897 647 1031 b 81 694 201 1031 81 907 b 367 395 81 487 197 395 b 624 492 485 395 567 441 b 415 113 622 187 531 113 b 247 270 314 113 263 167 l 99 256 b 413 -15 111 65 240 -15 z m 239 695 b 426 900 239 826 313 900 b 622 598 541 900 608 824 b 410 506 567 547 494 506 b 239 695 303 506 239 572 z "}," ":{"ha":861,"x_min":0,"x_max":0,"o":""},"A":{"ha":861,"x_min":0,"x_max":0,"o":"m 830 0 l 515 1014 l 344 1014 l 31 0 l 191 0 l 267 260 l 587 260 l 663 0 z m 301 378 l 422 797 l 431 797 l 553 378 z "},"Á":{"ha":861,"x_min":0,"x_max":0,"o":"m 830 0 l 515 1014 l 344 1014 l 31 0 l 191 0 l 267 260 l 587 260 l 663 0 z m 362 1135 l 502 1306 l 671 1306 l 497 1135 z m 301 378 l 422 797 l 431 797 l 553 378 z "},"Ă":{"ha":861,"x_min":0,"x_max":0,"o":"m 830 0 l 515 1014 l 344 1014 l 31 0 l 191 0 l 267 260 l 587 260 l 663 0 z m 313 1306 l 213 1306 b 431 1126 207 1194 281 1126 b 649 1306 581 1126 654 1194 l 549 1306 b 431 1208 549 1249 515 1208 b 313 1306 347 1208 313 1249 z m 301 378 l 422 797 l 431 797 l 553 378 z "},"Â":{"ha":861,"x_min":0,"x_max":0,"o":"m 830 0 l 515 1014 l 344 1014 l 31 0 l 191 0 l 267 260 l 587 260 l 663 0 z m 173 1135 l 317 1135 l 431 1258 l 544 1135 l 689 1135 l 518 1306 l 344 1306 z m 301 378 l 422 797 l 431 797 l 553 378 z "},"Ä":{"ha":861,"x_min":0,"x_max":0,"o":"m 830 0 l 515 1014 l 344 1014 l 31 0 l 191 0 l 267 260 l 587 260 l 663 0 z m 248 1140 b 340 1227 303 1140 340 1173 b 248 1313 340 1281 303 1313 b 156 1227 194 1313 156 1281 b 248 1140 156 1173 194 1140 z m 614 1140 b 706 1227 669 1140 706 1173 b 614 1313 706 1281 669 1313 b 522 1227 560 1313 522 1281 b 614 1140 522 1173 560 1140 z m 301 378 l 422 797 l 431 797 l 553 378 z "},"Ạ":{"ha":861,"x_min":0,"x_max":0,"o":"m 830 0 l 515 1014 l 344 1014 l 31 0 l 191 0 l 267 260 l 587 260 l 663 0 z m 431 -360 b 539 -260 495 -360 539 -322 b 431 -160 539 -198 495 -160 b 322 -260 367 -160 322 -198 b 431 -360 322 -322 367 -360 z m 301 378 l 422 797 l 431 797 l 553 378 z "},"À":{"ha":861,"x_min":0,"x_max":0,"o":"m 830 0 l 515 1014 l 344 1014 l 31 0 l 191 0 l 267 260 l 587 260 l 663 0 z m 500 1135 l 359 1306 l 191 1306 l 365 1135 z m 301 378 l 422 797 l 431 797 l 553 378 z "},"Ā":{"ha":861,"x_min":0,"x_max":0,"o":"m 830 0 l 515 1014 l 344 1014 l 31 0 l 191 0 l 267 260 l 587 260 l 663 0 z m 658 1290 l 203 1290 l 203 1188 l 658 1188 z m 301 378 l 422 797 l 431 797 l 553 378 z "},"Ą":{"ha":861,"x_min":0,"x_max":0,"o":"m 830 0 l 515 1014 l 344 1014 l 31 0 l 191 0 l 267 260 l 587 260 l 663 0 l 697 0 b 596 -171 628 -60 596 -111 b 773 -292 596 -232 631 -292 l 830 -292 l 830 -192 l 810 -192 b 732 -138 751 -192 732 -171 b 830 0 732 -102 757 -59 z m 301 378 l 422 797 l 431 797 l 553 378 z "},"Å":{"ha":861,"x_min":0,"x_max":0,"o":"m 830 0 l 519 997 b 592 1138 565 1026 592 1076 b 431 1302 592 1233 525 1302 b 270 1138 336 1302 270 1233 b 340 999 270 1077 297 1027 l 31 0 l 191 0 l 267 260 l 587 260 l 663 0 z m 431 1044 b 340 1138 376 1044 340 1085 b 431 1230 340 1191 376 1230 b 521 1138 486 1230 521 1191 b 431 1044 521 1085 486 1044 z m 301 378 l 422 797 l 431 797 l 553 378 z "},"Ã":{"ha":861,"x_min":0,"x_max":0,"o":"m 830 0 l 515 1014 l 344 1014 l 31 0 l 191 0 l 267 260 l 587 260 l 663 0 z m 311 1319 b 155 1156 226 1319 169 1260 l 259 1134 b 338 1222 269 1192 298 1222 b 550 1126 408 1222 442 1126 b 706 1288 635 1126 693 1185 l 602 1310 b 524 1223 592 1253 564 1223 b 311 1319 453 1223 419 1319 z m 301 378 l 422 797 l 431 797 l 553 378 z "},"Æ":{"ha":861,"x_min":0,"x_max":0,"o":"m 436 0 l 799 0 l 799 133 l 584 133 l 584 449 l 747 449 l 747 575 l 584 575 l 584 882 l 799 882 l 799 1014 l 265 1014 l 31 0 l 189 0 l 244 260 l 436 260 z m 269 378 l 376 882 l 436 882 l 436 378 z "},"Ǽ":{"ha":861,"x_min":0,"x_max":0,"o":"m 436 0 l 799 0 l 799 133 l 584 133 l 584 449 l 747 449 l 747 575 l 584 575 l 584 882 l 799 882 l 799 1014 l 265 1014 l 31 0 l 189 0 l 244 260 l 436 260 z m 458 1135 l 598 1306 l 767 1306 l 592 1135 z m 269 378 l 376 882 l 436 882 l 436 378 z "},"B":{"ha":861,"x_min":0,"x_max":0,"o":"m 119 0 l 428 0 b 803 294 660 0 803 110 b 529 536 803 476 653 528 l 529 542 b 749 796 627 556 749 633 b 439 1014 749 958 626 1015 l 119 1014 z m 277 118 l 277 472 l 390 472 b 641 297 536 472 641 437 b 390 118 641 166 548 118 z m 277 585 l 277 896 l 390 896 b 590 758 533 896 590 847 b 381 585 590 649 516 585 z "},"C":{"ha":861,"x_min":0,"x_max":0,"o":"m 231 507 b 448 893 231 792 316 893 b 636 682 562 893 626 815 l 785 693 b 444 1031 776 909 645 1031 b 67 507 215 1031 67 871 b 444 -16 67 144 217 -16 b 785 325 647 -16 776 105 l 636 336 b 448 122 626 199 562 122 b 231 507 316 122 231 223 z "},"Ć":{"ha":861,"x_min":0,"x_max":0,"o":"m 231 507 b 448 893 231 792 316 893 b 636 682 562 893 626 815 l 785 693 b 444 1031 776 909 645 1031 b 67 507 215 1031 67 871 b 444 -16 67 144 217 -16 b 785 325 647 -16 776 105 l 636 336 b 448 122 626 199 562 122 b 231 507 316 122 231 223 z m 362 1135 l 502 1306 l 671 1306 l 497 1135 z "},"Č":{"ha":861,"x_min":0,"x_max":0,"o":"m 231 507 b 448 893 231 792 316 893 b 636 682 562 893 626 815 l 785 693 b 444 1031 776 909 645 1031 b 67 507 215 1031 67 871 b 444 -16 67 144 217 -16 b 785 325 647 -16 776 105 l 636 336 b 448 122 626 199 562 122 b 231 507 316 122 231 223 z m 173 1306 l 317 1306 l 431 1183 l 544 1306 l 689 1306 l 518 1135 l 344 1135 z "},"Ç":{"ha":861,"x_min":0,"x_max":0,"o":"m 231 507 b 448 893 231 792 316 893 b 636 682 562 893 626 815 l 785 693 b 444 1031 776 909 645 1031 b 67 507 215 1031 67 871 b 383 -12 67 177 190 15 l 383 -182 b 483 -260 443 -188 483 -208 b 375 -328 483 -303 456 -328 l 338 -328 l 338 -417 l 392 -417 b 600 -269 556 -417 600 -361 b 478 -117 600 -178 557 -135 l 477 -15 b 785 325 660 -2 777 117 l 636 336 b 448 122 626 199 562 122 b 231 507 316 122 231 223 z "},"Ĉ":{"ha":861,"x_min":0,"x_max":0,"o":"m 231 507 b 448 893 231 792 316 893 b 636 682 562 893 626 815 l 785 693 b 444 1031 776 909 645 1031 b 67 507 215 1031 67 871 b 444 -16 67 144 217 -16 b 785 325 647 -16 776 105 l 636 336 b 448 122 626 199 562 122 b 231 507 316 122 231 223 z m 173 1135 l 317 1135 l 431 1258 l 544 1135 l 689 1135 l 518 1306 l 344 1306 z "},"Ċ":{"ha":861,"x_min":0,"x_max":0,"o":"m 231 507 b 448 893 231 792 316 893 b 636 682 562 893 626 815 l 785 693 b 444 1031 776 909 645 1031 b 67 507 215 1031 67 871 b 444 -16 67 144 217 -16 b 785 325 647 -16 776 105 l 636 336 b 448 122 626 199 562 122 b 231 507 316 122 231 223 z m 429 1140 b 523 1226 485 1140 523 1173 b 429 1313 523 1281 485 1313 b 335 1226 374 1313 335 1281 b 429 1140 335 1173 374 1140 z "},"D":{"ha":861,"x_min":0,"x_max":0,"o":"m 112 0 l 361 0 b 796 518 633 0 796 167 b 361 1014 796 870 633 1014 l 112 1014 z m 632 518 b 354 128 632 256 545 128 l 270 128 l 270 887 l 354 887 b 632 518 545 887 632 780 z "},"Ď":{"ha":861,"x_min":0,"x_max":0,"o":"m 112 0 l 361 0 b 796 518 633 0 796 167 b 361 1014 796 870 633 1014 l 112 1014 z m 632 518 b 354 128 632 256 545 128 l 270 128 l 270 887 l 354 887 b 632 518 545 887 632 780 z m 173 1306 l 317 1306 l 431 1183 l 544 1306 l 689 1306 l 518 1135 l 344 1135 z "},"Đ":{"ha":861,"x_min":0,"x_max":0,"o":"m 456 584 l 270 584 l 270 887 l 354 887 b 632 518 545 887 632 780 b 354 128 632 256 545 128 l 270 128 l 270 451 l 456 451 z m 112 0 l 361 0 b 796 518 633 0 796 167 b 361 1014 796 870 633 1014 l 112 1014 l 112 584 l 19 584 l 19 451 l 112 451 z "},"Ð":{"ha":861,"x_min":0,"x_max":0,"o":"m 456 584 l 270 584 l 270 887 l 354 887 b 632 518 545 887 632 780 b 354 128 632 256 545 128 l 270 128 l 270 451 l 456 451 z m 112 0 l 361 0 b 796 518 633 0 796 167 b 361 1014 796 870 633 1014 l 112 1014 l 112 584 l 19 584 l 19 451 l 112 451 z "},"E":{"ha":861,"x_min":0,"x_max":0,"o":"m 112 0 l 749 0 l 749 133 l 270 133 l 270 449 l 663 449 l 663 575 l 270 575 l 270 882 l 749 882 l 749 1014 l 112 1014 z "},"É":{"ha":861,"x_min":0,"x_max":0,"o":"m 112 0 l 749 0 l 749 133 l 270 133 l 270 449 l 663 449 l 663 575 l 270 575 l 270 882 l 749 882 l 749 1014 l 112 1014 z m 362 1135 l 502 1306 l 671 1306 l 497 1135 z "},"Ĕ":{"ha":861,"x_min":0,"x_max":0,"o":"m 112 0 l 749 0 l 749 133 l 270 133 l 270 449 l 663 449 l 663 575 l 270 575 l 270 882 l 749 882 l 749 1014 l 112 1014 z m 313 1306 l 213 1306 b 431 1126 207 1194 281 1126 b 649 1306 581 1126 654 1194 l 549 1306 b 431 1208 549 1249 515 1208 b 313 1306 347 1208 313 1249 z "},"Ě":{"ha":861,"x_min":0,"x_max":0,"o":"m 112 0 l 749 0 l 749 133 l 270 133 l 270 449 l 663 449 l 663 575 l 270 575 l 270 882 l 749 882 l 749 1014 l 112 1014 z m 173 1306 l 317 1306 l 431 1183 l 544 1306 l 689 1306 l 518 1135 l 344 1135 z "},"Ê":{"ha":861,"x_min":0,"x_max":0,"o":"m 112 0 l 749 0 l 749 133 l 270 133 l 270 449 l 663 449 l 663 575 l 270 575 l 270 882 l 749 882 l 749 1014 l 112 1014 z m 173 1135 l 317 1135 l 431 1258 l 544 1135 l 689 1135 l 518 1306 l 344 1306 z "},"Ë":{"ha":861,"x_min":0,"x_max":0,"o":"m 112 0 l 749 0 l 749 133 l 270 133 l 270 449 l 663 449 l 663 575 l 270 575 l 270 882 l 749 882 l 749 1014 l 112 1014 z m 248 1140 b 340 1227 303 1140 340 1173 b 248 1313 340 1281 303 1313 b 156 1227 194 1313 156 1281 b 248 1140 156 1173 194 1140 z m 614 1140 b 706 1227 669 1140 706 1173 b 614 1313 706 1281 669 1313 b 522 1227 560 1313 522 1281 b 614 1140 522 1173 560 1140 z "},"Ė":{"ha":861,"x_min":0,"x_max":0,"o":"m 112 0 l 749 0 l 749 133 l 270 133 l 270 449 l 663 449 l 663 575 l 270 575 l 270 882 l 749 882 l 749 1014 l 112 1014 z m 429 1140 b 523 1226 485 1140 523 1173 b 429 1313 523 1281 485 1313 b 335 1226 374 1313 335 1281 b 429 1140 335 1173 374 1140 z "},"Ẹ":{"ha":861,"x_min":0,"x_max":0,"o":"m 112 0 l 749 0 l 749 133 l 270 133 l 270 449 l 663 449 l 663 575 l 270 575 l 270 882 l 749 882 l 749 1014 l 112 1014 z m 431 -360 b 539 -260 495 -360 539 -322 b 431 -160 539 -198 495 -160 b 322 -260 367 -160 322 -198 b 431 -360 322 -322 367 -360 z "},"È":{"ha":861,"x_min":0,"x_max":0,"o":"m 112 0 l 749 0 l 749 133 l 270 133 l 270 449 l 663 449 l 663 575 l 270 575 l 270 882 l 749 882 l 749 1014 l 112 1014 z m 500 1135 l 359 1306 l 191 1306 l 365 1135 z "},"Ē":{"ha":861,"x_min":0,"x_max":0,"o":"m 112 0 l 749 0 l 749 133 l 270 133 l 270 449 l 663 449 l 663 575 l 270 575 l 270 882 l 749 882 l 749 1014 l 112 1014 z m 658 1290 l 203 1290 l 203 1188 l 658 1188 z "},"Ę":{"ha":861,"x_min":0,"x_max":0,"o":"m 112 0 l 617 0 b 515 -171 548 -60 515 -111 b 692 -292 515 -232 550 -292 l 749 -292 l 749 -192 l 729 -192 b 651 -138 671 -192 651 -171 b 749 0 651 -102 676 -59 l 749 133 l 270 133 l 270 449 l 663 449 l 663 575 l 270 575 l 270 882 l 749 882 l 749 1014 l 112 1014 z "},"Ẽ":{"ha":861,"x_min":0,"x_max":0,"o":"m 112 0 l 749 0 l 749 133 l 270 133 l 270 449 l 663 449 l 663 575 l 270 575 l 270 882 l 749 882 l 749 1014 l 112 1014 z m 311 1319 b 155 1156 226 1319 169 1260 l 259 1134 b 338 1222 269 1192 298 1222 b 550 1126 408 1222 442 1126 b 706 1288 635 1126 693 1185 l 602 1310 b 524 1223 592 1253 564 1223 b 311 1319 453 1223 419 1319 z "},"Ə":{"ha":861,"x_min":0,"x_max":0,"o":"m 74 380 b 413 -16 74 93 226 -16 b 794 507 647 -16 794 144 b 422 1031 794 871 656 1031 b 78 715 244 1031 110 935 l 228 700 b 423 891 254 842 325 891 b 629 526 556 891 625 798 l 74 526 z m 222 365 l 222 399 l 625 399 b 409 119 607 196 532 119 b 222 365 296 119 222 185 z "},"F":{"ha":861,"x_min":0,"x_max":0,"o":"m 270 0 l 270 417 l 661 417 l 661 544 l 270 544 l 270 882 l 747 882 l 747 1014 l 112 1014 l 112 0 z "},"G":{"ha":861,"x_min":0,"x_max":0,"o":"m 453 526 l 453 399 l 640 399 l 640 365 b 452 119 640 185 566 119 b 231 507 310 119 231 210 b 449 891 231 794 312 891 b 633 700 547 891 615 842 l 783 715 b 448 1031 759 935 626 1031 b 67 507 215 1031 67 878 b 449 -17 67 135 215 -17 b 788 380 635 -17 788 93 l 788 526 z "},"Ğ":{"ha":861,"x_min":0,"x_max":0,"o":"m 453 526 l 453 399 l 640 399 l 640 365 b 452 119 640 185 566 119 b 231 507 310 119 231 210 b 449 891 231 794 312 891 b 633 700 547 891 615 842 l 783 715 b 448 1031 759 935 626 1031 b 67 507 215 1031 67 878 b 449 -17 67 135 215 -17 b 788 380 635 -17 788 93 l 788 526 z m 313 1306 l 213 1306 b 431 1126 207 1194 281 1126 b 649 1306 581 1126 654 1194 l 549 1306 b 431 1208 549 1249 515 1208 b 313 1306 347 1208 313 1249 z "},"Ǧ":{"ha":861,"x_min":0,"x_max":0,"o":"m 453 526 l 453 399 l 640 399 l 640 365 b 452 119 640 185 566 119 b 231 507 310 119 231 210 b 449 891 231 794 312 891 b 633 700 547 891 615 842 l 783 715 b 448 1031 759 935 626 1031 b 67 507 215 1031 67 878 b 449 -17 67 135 215 -17 b 788 380 635 -17 788 93 l 788 526 z m 173 1306 l 317 1306 l 431 1183 l 544 1306 l 689 1306 l 518 1135 l 344 1135 z "},"Ĝ":{"ha":861,"x_min":0,"x_max":0,"o":"m 453 526 l 453 399 l 640 399 l 640 365 b 452 119 640 185 566 119 b 231 507 310 119 231 210 b 449 891 231 794 312 891 b 633 700 547 891 615 842 l 783 715 b 448 1031 759 935 626 1031 b 67 507 215 1031 67 878 b 449 -17 67 135 215 -17 b 788 380 635 -17 788 93 l 788 526 z m 173 1135 l 317 1135 l 431 1258 l 544 1135 l 689 1135 l 518 1306 l 344 1306 z "},"Ģ":{"ha":861,"x_min":0,"x_max":0,"o":"m 453 526 l 453 399 l 640 399 l 640 365 b 452 119 640 185 566 119 b 231 507 310 119 231 210 b 449 891 231 794 312 891 b 633 700 547 891 615 842 l 783 715 b 448 1031 759 935 626 1031 b 67 507 215 1031 67 878 b 449 -17 67 135 215 -17 b 788 380 635 -17 788 93 l 788 526 z m 429 -356 b 448 -354 435 -356 442 -355 b 313 -471 425 -405 372 -438 l 363 -532 b 546 -292 456 -488 546 -408 b 428 -160 546 -202 494 -160 b 322 -258 368 -160 322 -197 b 429 -356 322 -319 367 -356 z "},"Ġ":{"ha":861,"x_min":0,"x_max":0,"o":"m 453 526 l 453 399 l 640 399 l 640 365 b 452 119 640 185 566 119 b 231 507 310 119 231 210 b 449 891 231 794 312 891 b 633 700 547 891 615 842 l 783 715 b 448 1031 759 935 626 1031 b 67 507 215 1031 67 878 b 449 -17 67 135 215 -17 b 788 380 635 -17 788 93 l 788 526 z m 429 1140 b 523 1226 485 1140 523 1173 b 429 1313 523 1281 485 1313 b 335 1226 374 1313 335 1281 b 429 1140 335 1173 374 1140 z "},"H":{"ha":861,"x_min":0,"x_max":0,"o":"m 270 0 l 270 451 l 592 451 l 592 0 l 749 0 l 749 1014 l 592 1014 l 592 583 l 270 583 l 270 1014 l 112 1014 l 112 0 z "},"Ħ":{"ha":861,"x_min":0,"x_max":0,"o":"m 833 870 l 749 870 l 749 1014 l 592 1014 l 592 870 l 270 870 l 270 1014 l 112 1014 l 112 870 l 28 870 l 28 758 l 112 758 l 112 0 l 270 0 l 270 451 l 592 451 l 592 0 l 749 0 l 749 758 l 833 758 z m 270 583 l 270 758 l 592 758 l 592 583 z "},"Ĥ":{"ha":861,"x_min":0,"x_max":0,"o":"m 270 0 l 270 451 l 592 451 l 592 0 l 749 0 l 749 1014 l 592 1014 l 592 583 l 270 583 l 270 1014 l 112 1014 l 112 0 z m 173 1135 l 317 1135 l 431 1258 l 544 1135 l 689 1135 l 518 1306 l 344 1306 z "},"I":{"ha":861,"x_min":0,"x_max":0,"o":"m 112 0 l 749 0 l 749 133 l 510 133 l 510 882 l 749 882 l 749 1014 l 112 1014 l 112 882 l 352 882 l 352 133 l 112 133 z "},"Ĳ":{"ha":861,"x_min":0,"x_max":0,"o":"m 285 461 l 285 1014 l 128 1014 l 128 461 z m 127 301 l 129 252 b 429 -15 135 68 240 -15 b 736 297 635 -15 736 76 l 736 1014 l 578 1014 l 578 286 b 431 117 578 158 522 117 b 287 266 347 117 292 154 l 285 301 z "},"Í":{"ha":861,"x_min":0,"x_max":0,"o":"m 112 0 l 749 0 l 749 133 l 510 133 l 510 882 l 749 882 l 749 1014 l 112 1014 l 112 882 l 352 882 l 352 133 l 112 133 z m 362 1135 l 502 1306 l 671 1306 l 497 1135 z "},"Ĭ":{"ha":861,"x_min":0,"x_max":0,"o":"m 112 0 l 749 0 l 749 133 l 510 133 l 510 882 l 749 882 l 749 1014 l 112 1014 l 112 882 l 352 882 l 352 133 l 112 133 z m 313 1306 l 213 1306 b 431 1126 207 1194 281 1126 b 649 1306 581 1126 654 1194 l 549 1306 b 431 1208 549 1249 515 1208 b 313 1306 347 1208 313 1249 z "},"Î":{"ha":861,"x_min":0,"x_max":0,"o":"m 112 0 l 749 0 l 749 133 l 510 133 l 510 882 l 749 882 l 749 1014 l 112 1014 l 112 882 l 352 882 l 352 133 l 112 133 z m 173 1135 l 317 1135 l 431 1258 l 544 1135 l 689 1135 l 518 1306 l 344 1306 z "},"Ï":{"ha":861,"x_min":0,"x_max":0,"o":"m 112 0 l 749 0 l 749 133 l 510 133 l 510 882 l 749 882 l 749 1014 l 112 1014 l 112 882 l 352 882 l 352 133 l 112 133 z m 248 1140 b 340 1227 303 1140 340 1173 b 248 1313 340 1281 303 1313 b 156 1227 194 1313 156 1281 b 248 1140 156 1173 194 1140 z m 614 1140 b 706 1227 669 1140 706 1173 b 614 1313 706 1281 669 1313 b 522 1227 560 1313 522 1281 b 614 1140 522 1173 560 1140 z "},"İ":{"ha":861,"x_min":0,"x_max":0,"o":"m 112 0 l 749 0 l 749 133 l 510 133 l 510 882 l 749 882 l 749 1014 l 112 1014 l 112 882 l 352 882 l 352 133 l 112 133 z m 429 1140 b 523 1226 485 1140 523 1173 b 429 1313 523 1281 485 1313 b 335 1226 374 1313 335 1281 b 429 1140 335 1173 374 1140 z "},"Ị":{"ha":861,"x_min":0,"x_max":0,"o":"m 112 0 l 749 0 l 749 133 l 510 133 l 510 882 l 749 882 l 749 1014 l 112 1014 l 112 882 l 352 882 l 352 133 l 112 133 z m 431 -360 b 539 -260 495 -360 539 -322 b 431 -160 539 -198 495 -160 b 322 -260 367 -160 322 -198 b 431 -360 322 -322 367 -360 z "},"Ì":{"ha":861,"x_min":0,"x_max":0,"o":"m 112 0 l 749 0 l 749 133 l 510 133 l 510 882 l 749 882 l 749 1014 l 112 1014 l 112 882 l 352 882 l 352 133 l 112 133 z m 500 1135 l 359 1306 l 191 1306 l 365 1135 z "},"Ī":{"ha":861,"x_min":0,"x_max":0,"o":"m 112 0 l 749 0 l 749 133 l 510 133 l 510 882 l 749 882 l 749 1014 l 112 1014 l 112 882 l 352 882 l 352 133 l 112 133 z m 658 1290 l 203 1290 l 203 1188 l 658 1188 z "},"Į":{"ha":861,"x_min":0,"x_max":0,"o":"m 510 0 l 749 0 l 749 133 l 510 133 l 510 882 l 749 882 l 749 1014 l 112 1014 l 112 882 l 352 882 l 352 133 l 112 133 l 112 0 l 377 0 b 276 -171 308 -60 276 -111 b 453 -292 276 -232 310 -292 l 510 -292 l 510 -192 l 490 -192 b 412 -138 431 -192 412 -171 b 510 0 412 -102 437 -59 z "},"Ĩ":{"ha":861,"x_min":0,"x_max":0,"o":"m 112 0 l 749 0 l 749 133 l 510 133 l 510 882 l 749 882 l 749 1014 l 112 1014 l 112 882 l 352 882 l 352 133 l 112 133 z m 311 1319 b 155 1156 226 1319 169 1260 l 259 1134 b 338 1222 269 1192 298 1222 b 550 1126 408 1222 442 1126 b 706 1288 635 1126 693 1185 l 602 1310 b 524 1223 592 1253 564 1223 b 311 1319 453 1223 419 1319 z "},"J":{"ha":861,"x_min":0,"x_max":0,"o":"m 108 342 l 110 252 b 408 -15 116 68 226 -15 b 736 297 622 -15 736 76 l 736 1014 l 154 1014 l 154 882 l 578 882 l 578 286 b 417 117 578 158 513 117 b 259 266 331 117 263 154 l 256 342 z "},"Ĵ":{"ha":861,"x_min":0,"x_max":0,"o":"m 108 342 l 110 252 b 408 -15 116 68 226 -15 b 736 297 622 -15 736 76 l 736 1014 l 154 1014 l 154 882 l 578 882 l 578 286 b 417 117 578 158 513 117 b 259 266 331 117 263 154 l 256 342 z m 183 1135 l 327 1135 l 441 1258 l 555 1135 l 699 1135 l 528 1306 l 353 1306 z "},"K":{"ha":861,"x_min":0,"x_max":0,"o":"m 270 0 l 270 447 l 381 447 l 637 0 l 814 0 l 521 510 l 521 521 l 803 1014 l 633 1014 l 398 579 l 270 579 l 270 1014 l 112 1014 l 112 0 z "},"Ķ":{"ha":861,"x_min":0,"x_max":0,"o":"m 270 0 l 270 447 l 381 447 l 637 0 l 814 0 l 521 510 l 521 521 l 803 1014 l 633 1014 l 398 579 l 270 579 l 270 1014 l 112 1014 l 112 0 z m 429 -356 b 448 -354 435 -356 442 -355 b 313 -471 425 -405 372 -438 l 363 -532 b 546 -292 456 -488 546 -408 b 428 -160 546 -202 494 -160 b 322 -258 368 -160 322 -197 b 429 -356 322 -319 367 -356 z "},"L":{"ha":861,"x_min":0,"x_max":0,"o":"m 136 0 l 773 0 l 773 133 l 294 133 l 294 1014 l 136 1014 z "},"Ĺ":{"ha":861,"x_min":0,"x_max":0,"o":"m 136 0 l 773 0 l 773 133 l 294 133 l 294 1014 l 136 1014 z m 146 1135 l 287 1306 l 455 1306 l 281 1135 z "},"Ľ":{"ha":861,"x_min":0,"x_max":0,"o":"m 136 0 l 773 0 l 773 133 l 294 133 l 294 1014 l 136 1014 z m 422 852 l 541 852 l 569 1106 l 433 1106 z "},"Ļ":{"ha":861,"x_min":0,"x_max":0,"o":"m 136 0 l 773 0 l 773 133 l 294 133 l 294 1014 l 136 1014 z m 429 -356 b 448 -354 435 -356 442 -355 b 313 -471 425 -405 372 -438 l 363 -532 b 546 -292 456 -488 546 -408 b 428 -160 546 -202 494 -160 b 322 -258 368 -160 322 -197 b 429 -356 322 -319 367 -356 z "},"Ŀ":{"ha":861,"x_min":0,"x_max":0,"o":"m 647 484 b 738 576 701 484 738 519 b 647 666 738 632 701 666 b 556 576 593 666 556 632 b 647 484 556 519 593 484 z m 136 0 l 773 0 l 773 133 l 294 133 l 294 1014 l 136 1014 z "},"Ł":{"ha":861,"x_min":0,"x_max":0,"o":"m 550 787 l 294 663 l 294 1014 l 136 1014 l 136 585 l 7 522 l 7 385 l 136 449 l 136 0 l 773 0 l 773 133 l 294 133 l 294 526 l 550 650 z "},"M":{"ha":861,"x_min":0,"x_max":0,"o":"m 92 1014 l 92 0 l 214 0 l 214 765 l 223 765 l 401 270 l 453 270 l 634 765 l 644 765 l 644 0 l 769 0 l 769 1014 l 623 1014 l 438 535 l 429 535 l 249 1014 z "},"N":{"ha":861,"x_min":0,"x_max":0,"o":"m 583 0 l 749 0 l 749 1014 l 617 1014 l 617 263 l 608 263 l 278 1014 l 112 1014 l 112 0 l 244 0 l 244 758 l 253 758 z "},"Ń":{"ha":861,"x_min":0,"x_max":0,"o":"m 583 0 l 749 0 l 749 1014 l 617 1014 l 617 263 l 608 263 l 278 1014 l 112 1014 l 112 0 l 244 0 l 244 758 l 253 758 z m 362 1135 l 502 1306 l 671 1306 l 497 1135 z "},"Ň":{"ha":861,"x_min":0,"x_max":0,"o":"m 583 0 l 749 0 l 749 1014 l 617 1014 l 617 263 l 608 263 l 278 1014 l 112 1014 l 112 0 l 244 0 l 244 758 l 253 758 z m 173 1306 l 317 1306 l 431 1183 l 544 1306 l 689 1306 l 518 1135 l 344 1135 z "},"Ņ":{"ha":861,"x_min":0,"x_max":0,"o":"m 583 0 l 749 0 l 749 1014 l 617 1014 l 617 263 l 608 263 l 278 1014 l 112 1014 l 112 0 l 244 0 l 244 758 l 253 758 z m 429 -356 b 448 -354 435 -356 442 -355 b 313 -471 425 -405 372 -438 l 363 -532 b 546 -292 456 -488 546 -408 b 428 -160 546 -202 494 -160 b 322 -258 368 -160 322 -197 b 429 -356 322 -319 367 -356 z "},"Ɲ":{"ha":861,"x_min":0,"x_max":0,"o":"m 244 0 l 244 758 l 253 758 l 583 0 l 749 0 l 749 1014 l 617 1014 l 617 263 l 608 263 l 278 1014 l 112 1014 l 112 0 b 42 -128 112 -97 94 -128 b -23 -117 22 -128 1 -124 l -23 -254 b 56 -263 3 -260 24 -263 b 244 0 197 -263 244 -203 z "},"Ñ":{"ha":861,"x_min":0,"x_max":0,"o":"m 583 0 l 749 0 l 749 1014 l 617 1014 l 617 263 l 608 263 l 278 1014 l 112 1014 l 112 0 l 244 0 l 244 758 l 253 758 z m 311 1319 b 155 1156 226 1319 169 1260 l 259 1134 b 338 1222 269 1192 298 1222 b 550 1126 408 1222 442 1126 b 706 1288 635 1126 693 1185 l 602 1310 b 524 1223 592 1253 564 1223 b 311 1319 453 1223 419 1319 z "},"Ŋ":{"ha":861,"x_min":0,"x_max":0,"o":"m 749 0 l 749 1014 l 617 1014 l 617 263 l 608 263 l 278 1014 l 112 1014 l 112 0 l 244 0 l 244 758 l 253 758 l 592 -20 b 521 -128 590 -98 572 -128 b 458 -117 501 -128 481 -124 l 458 -254 b 538 -263 483 -260 507 -263 b 749 0 688 -263 749 -199 z "},"O":{"ha":861,"x_min":0,"x_max":0,"o":"m 799 508 b 431 1031 799 872 659 1031 b 63 508 203 1031 63 872 b 431 -16 63 153 203 -16 b 799 508 659 -16 799 153 z m 635 508 b 431 122 635 222 564 122 b 227 508 299 122 227 222 b 431 892 227 794 299 892 b 635 508 564 892 635 794 z "},"Ó":{"ha":861,"x_min":0,"x_max":0,"o":"m 799 508 b 431 1031 799 872 659 1031 b 63 508 203 1031 63 872 b 431 -16 63 153 203 -16 b 799 508 659 -16 799 153 z m 635 508 b 431 122 635 222 564 122 b 227 508 299 122 227 222 b 431 892 227 794 299 892 b 635 508 564 892 635 794 z m 362 1135 l 502 1306 l 671 1306 l 497 1135 z "},"Ŏ":{"ha":861,"x_min":0,"x_max":0,"o":"m 799 508 b 431 1031 799 872 659 1031 b 63 508 203 1031 63 872 b 431 -16 63 153 203 -16 b 799 508 659 -16 799 153 z m 635 508 b 431 122 635 222 564 122 b 227 508 299 122 227 222 b 431 892 227 794 299 892 b 635 508 564 892 635 794 z m 313 1306 l 213 1306 b 431 1126 207 1194 281 1126 b 649 1306 581 1126 654 1194 l 549 1306 b 431 1208 549 1249 515 1208 b 313 1306 347 1208 313 1249 z "},"Ô":{"ha":861,"x_min":0,"x_max":0,"o":"m 799 508 b 431 1031 799 872 659 1031 b 63 508 203 1031 63 872 b 431 -16 63 153 203 -16 b 799 508 659 -16 799 153 z m 635 508 b 431 122 635 222 564 122 b 227 508 299 122 227 222 b 431 892 227 794 299 892 b 635 508 564 892 635 794 z m 173 1135 l 317 1135 l 431 1258 l 544 1135 l 689 1135 l 518 1306 l 344 1306 z "},"Ö":{"ha":861,"x_min":0,"x_max":0,"o":"m 799 508 b 431 1031 799 872 659 1031 b 63 508 203 1031 63 872 b 431 -16 63 153 203 -16 b 799 508 659 -16 799 153 z m 635 508 b 431 122 635 222 564 122 b 227 508 299 122 227 222 b 431 892 227 794 299 892 b 635 508 564 892 635 794 z m 248 1140 b 340 1227 303 1140 340 1173 b 248 1313 340 1281 303 1313 b 156 1227 194 1313 156 1281 b 248 1140 156 1173 194 1140 z m 614 1140 b 706 1227 669 1140 706 1173 b 614 1313 706 1281 669 1313 b 522 1227 560 1313 522 1281 b 614 1140 522 1173 560 1140 z "},"Ọ":{"ha":861,"x_min":0,"x_max":0,"o":"m 799 508 b 431 1031 799 872 659 1031 b 63 508 203 1031 63 872 b 431 -16 63 153 203 -16 b 799 508 659 -16 799 153 z m 635 508 b 431 122 635 222 564 122 b 227 508 299 122 227 222 b 431 892 227 794 299 892 b 635 508 564 892 635 794 z m 431 -360 b 539 -260 495 -360 539 -322 b 431 -160 539 -198 495 -160 b 322 -260 367 -160 322 -198 b 431 -360 322 -322 367 -360 z "},"Ò":{"ha":861,"x_min":0,"x_max":0,"o":"m 799 508 b 431 1031 799 872 659 1031 b 63 508 203 1031 63 872 b 431 -16 63 153 203 -16 b 799 508 659 -16 799 153 z m 635 508 b 431 122 635 222 564 122 b 227 508 299 122 227 222 b 431 892 227 794 299 892 b 635 508 564 892 635 794 z m 500 1135 l 359 1306 l 191 1306 l 365 1135 z "},"Ő":{"ha":861,"x_min":0,"x_max":0,"o":"m 799 508 b 431 1031 799 872 659 1031 b 63 508 203 1031 63 872 b 431 -16 63 153 203 -16 b 799 508 659 -16 799 153 z m 635 508 b 431 122 635 222 564 122 b 227 508 299 122 227 222 b 431 892 227 794 299 892 b 635 508 564 892 635 794 z m 238 1135 l 345 1135 l 463 1306 l 333 1306 z m 510 1135 l 617 1135 l 735 1306 l 605 1306 z "},"Ō":{"ha":861,"x_min":0,"x_max":0,"o":"m 799 508 b 431 1031 799 872 659 1031 b 63 508 203 1031 63 872 b 431 -16 63 153 203 -16 b 799 508 659 -16 799 153 z m 635 508 b 431 122 635 222 564 122 b 227 508 299 122 227 222 b 431 892 227 794 299 892 b 635 508 564 892 635 794 z m 658 1290 l 203 1290 l 203 1188 l 658 1188 z "},"Ǫ":{"ha":861,"x_min":0,"x_max":0,"o":"m 799 508 b 431 1031 799 872 659 1031 b 63 508 203 1031 63 872 b 395 -15 63 172 189 3 b 310 -171 338 -68 310 -116 b 488 -292 310 -232 344 -292 l 544 -292 l 544 -192 l 524 -192 b 446 -138 465 -192 446 -171 b 544 0 446 -102 471 -59 b 799 508 704 50 799 216 z m 635 508 b 431 122 635 222 564 122 b 227 508 299 122 227 222 b 431 892 227 794 299 892 b 635 508 564 892 635 794 z "},"Ø":{"ha":861,"x_min":0,"x_max":0,"o":"m 799 508 b 688 921 799 701 759 836 l 786 1140 l 655 1198 l 569 1006 b 431 1031 528 1023 482 1031 b 63 508 203 1031 63 872 b 175 96 63 319 103 182 l 76 -125 l 208 -183 l 293 9 b 431 -16 335 -8 381 -16 b 799 508 659 -16 799 153 z m 644 508 b 431 119 644 222 567 119 b 338 141 396 119 365 126 l 603 781 b 644 508 630 720 644 631 z m 217 508 b 431 896 217 794 295 896 b 525 874 467 896 498 889 l 259 233 b 217 508 231 295 217 384 z "},"Ǿ":{"ha":861,"x_min":0,"x_max":0,"o":"m 799 508 b 688 921 799 701 759 836 l 786 1140 l 655 1198 l 569 1006 b 431 1031 528 1023 482 1031 b 63 508 203 1031 63 872 b 175 96 63 319 103 182 l 76 -125 l 208 -183 l 293 9 b 431 -16 335 -8 381 -16 b 799 508 659 -16 799 153 z m 644 508 b 431 119 644 222 567 119 b 338 141 396 119 365 126 l 603 781 b 644 508 630 720 644 631 z m 362 1135 l 502 1306 l 671 1306 l 497 1135 z m 217 508 b 431 896 217 794 295 896 b 525 874 467 896 498 889 l 259 233 b 217 508 231 295 217 384 z "},"Õ":{"ha":861,"x_min":0,"x_max":0,"o":"m 799 508 b 431 1031 799 872 659 1031 b 63 508 203 1031 63 872 b 431 -16 63 153 203 -16 b 799 508 659 -16 799 153 z m 635 508 b 431 122 635 222 564 122 b 227 508 299 122 227 222 b 431 892 227 794 299 892 b 635 508 564 892 635 794 z m 311 1319 b 155 1156 226 1319 169 1260 l 259 1134 b 338 1222 269 1192 298 1222 b 550 1126 408 1222 442 1126 b 706 1288 635 1126 693 1185 l 602 1310 b 524 1223 592 1253 564 1223 b 311 1319 453 1223 419 1319 z "},"Œ":{"ha":861,"x_min":0,"x_max":0,"o":"m 426 0 l 799 0 l 799 133 l 581 133 l 581 449 l 758 449 l 758 575 l 581 575 l 581 882 l 799 882 l 799 1014 l 426 1014 b 56 518 176 1014 56 901 b 426 0 56 135 176 0 z m 214 518 b 425 887 214 801 272 887 l 433 887 l 433 128 l 425 128 b 214 518 272 128 214 235 z "},"P":{"ha":861,"x_min":0,"x_max":0,"o":"m 277 0 l 277 364 l 370 364 b 787 728 664 364 787 519 b 441 1014 787 938 644 1014 l 119 1014 l 119 0 z m 383 488 l 277 488 l 277 893 l 402 893 b 625 710 550 893 625 844 b 383 488 625 575 563 488 z "},"Þ":{"ha":861,"x_min":0,"x_max":0,"o":"m 277 0 l 277 203 l 370 203 b 787 567 664 203 787 358 b 441 853 787 777 644 853 l 277 853 l 277 1014 l 119 1014 l 119 0 z m 383 327 l 277 327 l 277 732 l 402 732 b 625 549 550 732 625 683 b 383 327 625 414 563 327 z "},"Q":{"ha":861,"x_min":0,"x_max":0,"o":"m 478 339 l 371 339 l 464 124 b 431 122 453 123 442 122 b 227 508 299 122 227 222 b 431 892 227 794 299 892 b 635 508 564 892 635 794 b 551 166 635 325 606 219 z m 799 508 b 431 1031 799 872 659 1031 b 63 508 203 1031 63 872 b 431 -16 63 153 203 -16 b 507 -9 458 -16 483 -14 l 577 -158 l 736 -158 l 635 46 b 799 508 739 124 799 276 z "},"R":{"ha":861,"x_min":0,"x_max":0,"o":"m 277 0 l 277 403 l 382 403 l 406 403 l 626 0 l 815 0 l 558 428 b 781 738 703 476 781 588 b 439 1014 781 930 643 1014 l 119 1014 l 119 0 z m 381 524 l 277 524 l 277 893 l 395 893 b 617 721 544 893 617 847 b 381 524 617 605 558 524 z "},"Ŕ":{"ha":861,"x_min":0,"x_max":0,"o":"m 277 0 l 277 403 l 382 403 l 406 403 l 626 0 l 815 0 l 558 428 b 781 738 703 476 781 588 b 439 1014 781 930 643 1014 l 119 1014 l 119 0 z m 381 524 l 277 524 l 277 893 l 395 893 b 617 721 544 893 617 847 b 381 524 617 605 558 524 z m 362 1135 l 502 1306 l 671 1306 l 497 1135 z "},"Ř":{"ha":861,"x_min":0,"x_max":0,"o":"m 277 0 l 277 403 l 382 403 l 406 403 l 626 0 l 815 0 l 558 428 b 781 738 703 476 781 588 b 439 1014 781 930 643 1014 l 119 1014 l 119 0 z m 381 524 l 277 524 l 277 893 l 395 893 b 617 721 544 893 617 847 b 381 524 617 605 558 524 z m 173 1306 l 317 1306 l 431 1183 l 544 1306 l 689 1306 l 518 1135 l 344 1135 z "},"Ŗ":{"ha":861,"x_min":0,"x_max":0,"o":"m 277 0 l 277 403 l 382 403 l 406 403 l 626 0 l 815 0 l 558 428 b 781 738 703 476 781 588 b 439 1014 781 930 643 1014 l 119 1014 l 119 0 z m 381 524 l 277 524 l 277 893 l 395 893 b 617 721 544 893 617 847 b 381 524 617 605 558 524 z m 429 -356 b 448 -354 435 -356 442 -355 b 313 -471 425 -405 372 -438 l 363 -532 b 546 -292 456 -488 546 -408 b 428 -160 546 -202 494 -160 b 322 -258 368 -160 322 -197 b 429 -356 322 -319 367 -356 z "},"S":{"ha":861,"x_min":0,"x_max":0,"o":"m 638 735 l 789 749 b 458 1031 782 951 649 1031 b 108 758 236 1031 108 935 b 395 452 108 590 234 515 b 631 265 554 390 631 360 b 436 115 631 174 569 115 b 220 306 303 115 237 176 l 66 285 b 428 -17 81 90 201 -17 b 796 284 662 -17 796 105 b 481 591 796 456 670 519 b 266 772 335 647 266 680 b 447 902 266 856 325 902 b 638 735 563 902 624 856 z "},"Ś":{"ha":861,"x_min":0,"x_max":0,"o":"m 638 735 l 789 749 b 458 1031 782 951 649 1031 b 108 758 236 1031 108 935 b 395 452 108 590 234 515 b 631 265 554 390 631 360 b 436 115 631 174 569 115 b 220 306 303 115 237 176 l 66 285 b 428 -17 81 90 201 -17 b 796 284 662 -17 796 105 b 481 591 796 456 670 519 b 266 772 335 647 266 680 b 447 902 266 856 325 902 b 638 735 563 902 624 856 z m 362 1135 l 502 1306 l 671 1306 l 497 1135 z "},"Š":{"ha":861,"x_min":0,"x_max":0,"o":"m 638 735 l 789 749 b 458 1031 782 951 649 1031 b 108 758 236 1031 108 935 b 395 452 108 590 234 515 b 631 265 554 390 631 360 b 436 115 631 174 569 115 b 220 306 303 115 237 176 l 66 285 b 428 -17 81 90 201 -17 b 796 284 662 -17 796 105 b 481 591 796 456 670 519 b 266 772 335 647 266 680 b 447 902 266 856 325 902 b 638 735 563 902 624 856 z m 173 1306 l 317 1306 l 431 1183 l 544 1306 l 689 1306 l 518 1135 l 344 1135 z "},"Ş":{"ha":861,"x_min":0,"x_max":0,"o":"m 638 735 l 789 749 b 458 1031 782 951 649 1031 b 108 758 236 1031 108 935 b 395 452 108 590 234 515 b 631 265 554 390 631 360 b 436 115 631 174 569 115 b 220 306 303 115 237 176 l 66 285 b 383 -15 80 103 185 -1 l 383 -182 b 483 -260 443 -188 483 -208 b 375 -328 483 -303 456 -328 l 338 -328 l 338 -417 l 392 -417 b 600 -269 556 -417 600 -361 b 478 -117 600 -178 557 -135 l 477 -15 b 796 284 681 1 796 118 b 481 591 796 456 670 519 b 266 772 335 647 266 680 b 447 902 266 856 325 902 b 638 735 563 902 624 856 z "},"Ŝ":{"ha":861,"x_min":0,"x_max":0,"o":"m 638 735 l 789 749 b 458 1031 782 951 649 1031 b 108 758 236 1031 108 935 b 395 452 108 590 234 515 b 631 265 554 390 631 360 b 436 115 631 174 569 115 b 220 306 303 115 237 176 l 66 285 b 428 -17 81 90 201 -17 b 796 284 662 -17 796 105 b 481 591 796 456 670 519 b 266 772 335 647 266 680 b 447 902 266 856 325 902 b 638 735 563 902 624 856 z m 173 1135 l 317 1135 l 431 1258 l 544 1135 l 689 1135 l 518 1306 l 344 1306 z "},"Ș":{"ha":861,"x_min":0,"x_max":0,"o":"m 638 735 l 789 749 b 458 1031 782 951 649 1031 b 108 758 236 1031 108 935 b 395 452 108 590 234 515 b 631 265 554 390 631 360 b 436 115 631 174 569 115 b 220 306 303 115 237 176 l 66 285 b 428 -17 81 90 201 -17 b 796 284 662 -17 796 105 b 481 591 796 456 670 519 b 266 772 335 647 266 680 b 447 902 266 856 325 902 b 638 735 563 902 624 856 z m 429 -356 b 448 -354 435 -356 442 -355 b 313 -471 425 -405 372 -438 l 363 -532 b 546 -292 456 -488 546 -408 b 428 -160 546 -202 494 -160 b 322 -258 368 -160 322 -197 b 429 -356 322 -319 367 -356 z "},"ẞ":{"ha":861,"x_min":0,"x_max":0,"o":"m 270 0 l 270 882 l 559 882 l 481 606 l 481 514 b 649 298 580 485 649 428 b 484 116 649 183 594 116 b 399 127 456 116 430 121 l 392 3 b 526 -17 438 -10 479 -17 b 807 292 710 -17 807 88 b 625 599 807 458 738 545 l 716 922 l 716 1014 l 112 1014 l 112 0 z "},"T":{"ha":861,"x_min":0,"x_max":0,"o":"m 510 0 l 510 882 l 780 882 l 780 1014 l 81 1014 l 81 882 l 352 882 l 352 0 z "},"Ŧ":{"ha":861,"x_min":0,"x_max":0,"o":"m 181 451 l 352 451 l 352 0 l 510 0 l 510 451 l 681 451 l 681 583 l 510 583 l 510 882 l 780 882 l 780 1014 l 81 1014 l 81 882 l 352 882 l 352 583 l 181 583 z "},"Ť":{"ha":861,"x_min":0,"x_max":0,"o":"m 510 0 l 510 882 l 780 882 l 780 1014 l 81 1014 l 81 882 l 352 882 l 352 0 z m 173 1306 l 317 1306 l 431 1183 l 544 1306 l 689 1306 l 518 1135 l 344 1135 z "},"Ţ":{"ha":861,"x_min":0,"x_max":0,"o":"m 510 0 l 510 882 l 780 882 l 780 1014 l 81 1014 l 81 882 l 352 882 l 352 0 l 383 0 l 383 -182 b 483 -260 443 -188 483 -208 b 375 -328 483 -303 456 -328 l 338 -328 l 338 -417 l 392 -417 b 600 -269 556 -417 600 -361 b 478 -117 600 -178 557 -135 l 477 0 z "},"Ț":{"ha":861,"x_min":0,"x_max":0,"o":"m 510 0 l 510 882 l 780 882 l 780 1014 l 81 1014 l 81 882 l 352 882 l 352 0 z m 429 -356 b 448 -354 435 -356 442 -355 b 313 -471 425 -405 372 -438 l 363 -532 b 546 -292 456 -488 546 -408 b 428 -160 546 -202 494 -160 b 322 -258 368 -160 322 -197 b 429 -356 322 -319 367 -356 z "},"U":{"ha":861,"x_min":0,"x_max":0,"o":"m 431 119 b 260 331 292 119 260 201 l 260 1014 l 102 1014 l 102 303 b 431 -16 102 110 203 -16 b 759 303 658 -16 759 110 l 759 1014 l 601 1014 l 601 331 b 431 119 601 201 569 119 z "},"Ú":{"ha":861,"x_min":0,"x_max":0,"o":"m 431 119 b 260 331 292 119 260 201 l 260 1014 l 102 1014 l 102 303 b 431 -16 102 110 203 -16 b 759 303 658 -16 759 110 l 759 1014 l 601 1014 l 601 331 b 431 119 601 201 569 119 z m 362 1135 l 502 1306 l 671 1306 l 497 1135 z "},"Ŭ":{"ha":861,"x_min":0,"x_max":0,"o":"m 431 119 b 260 331 292 119 260 201 l 260 1014 l 102 1014 l 102 303 b 431 -16 102 110 203 -16 b 759 303 658 -16 759 110 l 759 1014 l 601 1014 l 601 331 b 431 119 601 201 569 119 z m 313 1306 l 213 1306 b 431 1126 207 1194 281 1126 b 649 1306 581 1126 654 1194 l 549 1306 b 431 1208 549 1249 515 1208 b 313 1306 347 1208 313 1249 z "},"Û":{"ha":861,"x_min":0,"x_max":0,"o":"m 431 119 b 260 331 292 119 260 201 l 260 1014 l 102 1014 l 102 303 b 431 -16 102 110 203 -16 b 759 303 658 -16 759 110 l 759 1014 l 601 1014 l 601 331 b 431 119 601 201 569 119 z m 173 1135 l 317 1135 l 431 1258 l 544 1135 l 689 1135 l 518 1306 l 344 1306 z "},"Ü":{"ha":861,"x_min":0,"x_max":0,"o":"m 431 119 b 260 331 292 119 260 201 l 260 1014 l 102 1014 l 102 303 b 431 -16 102 110 203 -16 b 759 303 658 -16 759 110 l 759 1014 l 601 1014 l 601 331 b 431 119 601 201 569 119 z m 248 1140 b 340 1227 303 1140 340 1173 b 248 1313 340 1281 303 1313 b 156 1227 194 1313 156 1281 b 248 1140 156 1173 194 1140 z m 614 1140 b 706 1227 669 1140 706 1173 b 614 1313 706 1281 669 1313 b 522 1227 560 1313 522 1281 b 614 1140 522 1173 560 1140 z "},"Ụ":{"ha":861,"x_min":0,"x_max":0,"o":"m 431 119 b 260 331 292 119 260 201 l 260 1014 l 102 1014 l 102 303 b 431 -16 102 110 203 -16 b 759 303 658 -16 759 110 l 759 1014 l 601 1014 l 601 331 b 431 119 601 201 569 119 z m 431 -360 b 539 -260 495 -360 539 -322 b 431 -160 539 -198 495 -160 b 322 -260 367 -160 322 -198 b 431 -360 322 -322 367 -360 z "},"Ù":{"ha":861,"x_min":0,"x_max":0,"o":"m 431 119 b 260 331 292 119 260 201 l 260 1014 l 102 1014 l 102 303 b 431 -16 102 110 203 -16 b 759 303 658 -16 759 110 l 759 1014 l 601 1014 l 601 331 b 431 119 601 201 569 119 z m 500 1135 l 359 1306 l 191 1306 l 365 1135 z "},"Ű":{"ha":861,"x_min":0,"x_max":0,"o":"m 431 119 b 260 331 292 119 260 201 l 260 1014 l 102 1014 l 102 303 b 431 -16 102 110 203 -16 b 759 303 658 -16 759 110 l 759 1014 l 601 1014 l 601 331 b 431 119 601 201 569 119 z m 238 1135 l 345 1135 l 463 1306 l 333 1306 z m 510 1135 l 617 1135 l 735 1306 l 605 1306 z "},"Ū":{"ha":861,"x_min":0,"x_max":0,"o":"m 431 119 b 260 331 292 119 260 201 l 260 1014 l 102 1014 l 102 303 b 431 -16 102 110 203 -16 b 759 303 658 -16 759 110 l 759 1014 l 601 1014 l 601 331 b 431 119 601 201 569 119 z m 658 1290 l 203 1290 l 203 1188 l 658 1188 z "},"Ų":{"ha":861,"x_min":0,"x_max":0,"o":"m 431 119 b 260 331 292 119 260 201 l 260 1014 l 102 1014 l 102 303 b 408 -15 102 116 197 -8 b 324 -171 352 -69 324 -117 b 502 -292 324 -232 359 -292 l 559 -292 l 559 -192 l 539 -192 b 460 -138 480 -192 460 -171 b 559 0 460 -102 485 -59 l 558 0 b 759 303 697 40 759 151 l 759 1014 l 601 1014 l 601 331 b 431 119 601 201 569 119 z "},"Ů":{"ha":861,"x_min":0,"x_max":0,"o":"m 431 119 b 260 331 292 119 260 201 l 260 1014 l 102 1014 l 102 303 b 431 -16 102 110 203 -16 b 759 303 658 -16 759 110 l 759 1014 l 601 1014 l 601 331 b 431 119 601 201 569 119 z m 431 997 b 592 1163 525 997 592 1067 b 431 1327 592 1258 525 1327 b 270 1163 336 1327 270 1258 b 431 997 270 1067 336 997 z m 431 1069 b 340 1163 376 1069 340 1109 b 431 1255 340 1215 376 1255 b 521 1163 486 1255 521 1215 b 431 1069 521 1109 486 1069 z "},"Ũ":{"ha":861,"x_min":0,"x_max":0,"o":"m 431 119 b 260 331 292 119 260 201 l 260 1014 l 102 1014 l 102 303 b 431 -16 102 110 203 -16 b 759 303 658 -16 759 110 l 759 1014 l 601 1014 l 601 331 b 431 119 601 201 569 119 z m 311 1319 b 155 1156 226 1319 169 1260 l 259 1134 b 338 1222 269 1192 298 1222 b 550 1126 408 1222 442 1126 b 706 1288 635 1126 693 1185 l 602 1310 b 524 1223 592 1253 564 1223 b 311 1319 453 1223 419 1319 z "},"V":{"ha":861,"x_min":0,"x_max":0,"o":"m 50 1014 l 348 0 l 515 0 l 811 1014 l 653 1014 l 440 246 l 431 246 l 217 1014 z "},"W":{"ha":861,"x_min":0,"x_max":0,"o":"m 24 1014 l 176 0 l 301 0 l 426 607 l 435 607 l 549 0 l 684 0 l 838 1014 l 696 1014 l 598 332 l 587 332 l 492 845 l 385 845 l 278 332 l 267 332 l 172 1014 z "},"Ẃ":{"ha":861,"x_min":0,"x_max":0,"o":"m 24 1014 l 176 0 l 301 0 l 426 607 l 435 607 l 549 0 l 684 0 l 838 1014 l 696 1014 l 598 332 l 587 332 l 492 845 l 385 845 l 278 332 l 267 332 l 172 1014 z m 362 1135 l 502 1306 l 671 1306 l 497 1135 z "},"Ŵ":{"ha":861,"x_min":0,"x_max":0,"o":"m 24 1014 l 176 0 l 301 0 l 426 607 l 435 607 l 549 0 l 684 0 l 838 1014 l 696 1014 l 598 332 l 587 332 l 492 845 l 385 845 l 278 332 l 267 332 l 172 1014 z m 173 1135 l 317 1135 l 431 1258 l 544 1135 l 689 1135 l 518 1306 l 344 1306 z "},"Ẅ":{"ha":861,"x_min":0,"x_max":0,"o":"m 24 1014 l 176 0 l 301 0 l 426 607 l 435 607 l 549 0 l 684 0 l 838 1014 l 696 1014 l 598 332 l 587 332 l 492 845 l 385 845 l 278 332 l 267 332 l 172 1014 z m 248 1140 b 340 1227 303 1140 340 1173 b 248 1313 340 1281 303 1313 b 156 1227 194 1313 156 1281 b 248 1140 156 1173 194 1140 z m 614 1140 b 706 1227 669 1140 706 1173 b 614 1313 706 1281 669 1313 b 522 1227 560 1313 522 1281 b 614 1140 522 1173 560 1140 z "},"Ẁ":{"ha":861,"x_min":0,"x_max":0,"o":"m 24 1014 l 176 0 l 301 0 l 426 607 l 435 607 l 549 0 l 684 0 l 838 1014 l 696 1014 l 598 332 l 587 332 l 492 845 l 385 845 l 278 332 l 267 332 l 172 1014 z m 500 1135 l 359 1306 l 191 1306 l 365 1135 z "},"X":{"ha":861,"x_min":0,"x_max":0,"o":"m 57 1014 l 339 522 l 339 512 l 47 0 l 219 0 l 415 365 l 428 365 l 638 0 l 815 0 l 522 510 l 522 519 l 803 1014 l 633 1014 l 446 669 l 431 669 l 232 1014 z "},"Y":{"ha":861,"x_min":0,"x_max":0,"o":"m 510 0 l 510 433 l 825 1014 l 666 1014 l 442 576 l 433 576 l 208 1014 l 37 1014 l 351 433 l 351 0 z "},"Ý":{"ha":861,"x_min":0,"x_max":0,"o":"m 510 0 l 510 433 l 825 1014 l 666 1014 l 442 576 l 433 576 l 208 1014 l 37 1014 l 351 433 l 351 0 z m 362 1135 l 502 1306 l 671 1306 l 497 1135 z "},"Ŷ":{"ha":861,"x_min":0,"x_max":0,"o":"m 510 0 l 510 433 l 825 1014 l 666 1014 l 442 576 l 433 576 l 208 1014 l 37 1014 l 351 433 l 351 0 z m 173 1135 l 317 1135 l 431 1258 l 544 1135 l 689 1135 l 518 1306 l 344 1306 z "},"Ÿ":{"ha":861,"x_min":0,"x_max":0,"o":"m 510 0 l 510 433 l 825 1014 l 666 1014 l 442 576 l 433 576 l 208 1014 l 37 1014 l 351 433 l 351 0 z m 248 1140 b 340 1227 303 1140 340 1173 b 248 1313 340 1281 303 1313 b 156 1227 194 1313 156 1281 b 248 1140 156 1173 194 1140 z m 614 1140 b 706 1227 669 1140 706 1173 b 614 1313 706 1281 669 1313 b 522 1227 560 1313 522 1281 b 614 1140 522 1173 560 1140 z "},"Ỳ":{"ha":861,"x_min":0,"x_max":0,"o":"m 510 0 l 510 433 l 825 1014 l 666 1014 l 442 576 l 433 576 l 208 1014 l 37 1014 l 351 433 l 351 0 z m 500 1135 l 359 1306 l 191 1306 l 365 1135 z "},"Ȳ":{"ha":861,"x_min":0,"x_max":0,"o":"m 510 0 l 510 433 l 825 1014 l 666 1014 l 442 576 l 433 576 l 208 1014 l 37 1014 l 351 433 l 351 0 z m 658 1290 l 203 1290 l 203 1188 l 658 1188 z "},"Ỹ":{"ha":861,"x_min":0,"x_max":0,"o":"m 510 0 l 510 433 l 825 1014 l 666 1014 l 442 576 l 433 576 l 208 1014 l 37 1014 l 351 433 l 351 0 z m 311 1319 b 155 1156 226 1319 169 1260 l 259 1134 b 338 1222 269 1192 298 1222 b 550 1126 408 1222 442 1126 b 706 1288 635 1126 693 1185 l 602 1310 b 524 1223 592 1253 564 1223 b 311 1319 453 1223 419 1319 z "},"Z":{"ha":861,"x_min":0,"x_max":0,"o":"m 97 1014 l 97 885 l 553 885 l 95 117 l 99 0 l 767 0 l 767 136 l 279 136 l 731 901 l 725 1014 z "},"Ź":{"ha":861,"x_min":0,"x_max":0,"o":"m 97 1014 l 97 885 l 553 885 l 95 117 l 99 0 l 767 0 l 767 136 l 279 136 l 731 901 l 725 1014 z m 362 1135 l 502 1306 l 671 1306 l 497 1135 z "},"Ž":{"ha":861,"x_min":0,"x_max":0,"o":"m 97 1014 l 97 885 l 553 885 l 95 117 l 99 0 l 767 0 l 767 136 l 279 136 l 731 901 l 725 1014 z m 173 1306 l 317 1306 l 431 1183 l 544 1306 l 689 1306 l 518 1135 l 344 1135 z "},"Ż":{"ha":861,"x_min":0,"x_max":0,"o":"m 97 1014 l 97 885 l 553 885 l 95 117 l 99 0 l 767 0 l 767 136 l 279 136 l 731 901 l 725 1014 z m 429 1140 b 523 1226 485 1140 523 1173 b 429 1313 523 1281 485 1313 b 335 1226 374 1313 335 1281 b 429 1140 335 1173 374 1140 z "},"a":{"ha":861,"x_min":0,"x_max":0,"o":"m 410 740 b 110 528 194 740 110 652 l 110 492 l 251 492 l 251 521 b 399 632 252 605 314 632 b 544 503 485 633 544 607 l 544 405 b 86 178 318 408 86 381 b 300 -17 86 56 170 -17 b 539 89 410 -17 484 34 l 554 89 b 681 -15 560 31 589 -15 b 778 0 710 -15 743 -10 l 778 112 b 699 166 716 104 699 117 l 699 512 b 410 740 699 681 590 740 z m 247 198 b 486 322 247 286 335 322 b 544 319 506 322 525 321 l 544 159 b 374 97 494 122 439 97 b 247 198 294 97 247 133 z "},"á":{"ha":861,"x_min":0,"x_max":0,"o":"m 410 740 b 110 528 194 740 110 652 l 110 492 l 251 492 l 251 521 b 399 632 252 605 314 632 b 544 503 485 633 544 607 l 544 405 b 86 178 318 408 86 381 b 300 -17 86 56 170 -17 b 539 89 410 -17 484 34 l 554 89 b 681 -15 560 31 589 -15 b 778 0 710 -15 743 -10 l 778 112 b 699 166 716 104 699 117 l 699 512 b 410 740 699 681 590 740 z m 362 885 l 502 1125 l 671 1125 l 497 885 z m 247 198 b 486 322 247 286 335 322 b 544 319 506 322 525 321 l 544 159 b 374 97 494 122 439 97 b 247 198 294 97 247 133 z "},"ă":{"ha":861,"x_min":0,"x_max":0,"o":"m 410 740 b 110 528 194 740 110 652 l 110 492 l 251 492 l 251 521 b 399 632 252 605 314 632 b 544 503 485 633 544 607 l 544 405 b 86 178 318 408 86 381 b 300 -17 86 56 170 -17 b 539 89 410 -17 484 34 l 554 89 b 681 -15 560 31 589 -15 b 778 0 710 -15 743 -10 l 778 112 b 699 166 716 104 699 117 l 699 512 b 410 740 699 681 590 740 z m 313 1125 l 213 1125 b 431 879 207 966 281 879 b 649 1125 581 879 654 966 l 549 1125 b 431 980 549 1033 515 980 b 313 1125 347 980 313 1033 z m 247 198 b 486 322 247 286 335 322 b 544 319 506 322 525 321 l 544 159 b 374 97 494 122 439 97 b 247 198 294 97 247 133 z "},"â":{"ha":861,"x_min":0,"x_max":0,"o":"m 410 740 b 110 528 194 740 110 652 l 110 492 l 251 492 l 251 521 b 399 632 252 605 314 632 b 544 503 485 633 544 607 l 544 405 b 86 178 318 408 86 381 b 300 -17 86 56 170 -17 b 539 89 410 -17 484 34 l 554 89 b 681 -15 560 31 589 -15 b 778 0 710 -15 743 -10 l 778 112 b 699 166 716 104 699 117 l 699 512 b 410 740 699 681 590 740 z m 173 885 l 310 885 l 431 1063 l 551 885 l 689 885 l 515 1125 l 347 1125 z m 247 198 b 486 322 247 286 335 322 b 544 319 506 322 525 321 l 544 159 b 374 97 494 122 439 97 b 247 198 294 97 247 133 z "},"ä":{"ha":861,"x_min":0,"x_max":0,"o":"m 410 740 b 110 528 194 740 110 652 l 110 492 l 251 492 l 251 521 b 399 632 252 605 314 632 b 544 503 485 633 544 607 l 544 405 b 86 178 318 408 86 381 b 300 -17 86 56 170 -17 b 539 89 410 -17 484 34 l 554 89 b 681 -15 560 31 589 -15 b 778 0 710 -15 743 -10 l 778 112 b 699 166 716 104 699 117 l 699 512 b 410 740 699 681 590 740 z m 248 882 b 347 983 306 882 347 921 b 248 1081 347 1044 306 1081 b 149 983 189 1081 149 1044 b 248 882 149 921 189 882 z m 614 882 b 713 983 672 882 713 921 b 614 1081 713 1044 672 1081 b 515 983 555 1081 515 1044 b 614 882 515 921 555 882 z m 247 198 b 486 322 247 286 335 322 b 544 319 506 322 525 321 l 544 159 b 374 97 494 122 439 97 b 247 198 294 97 247 133 z "},"à":{"ha":861,"x_min":0,"x_max":0,"o":"m 410 740 b 110 528 194 740 110 652 l 110 492 l 251 492 l 251 521 b 399 632 252 605 314 632 b 544 503 485 633 544 607 l 544 405 b 86 178 318 408 86 381 b 300 -17 86 56 170 -17 b 539 89 410 -17 484 34 l 554 89 b 681 -15 560 31 589 -15 b 778 0 710 -15 743 -10 l 778 112 b 699 166 716 104 699 117 l 699 512 b 410 740 699 681 590 740 z m 500 885 l 359 1125 l 191 1125 l 365 885 z m 247 198 b 486 322 247 286 335 322 b 544 319 506 322 525 321 l 544 159 b 374 97 494 122 439 97 b 247 198 294 97 247 133 z "},"ā":{"ha":861,"x_min":0,"x_max":0,"o":"m 410 740 b 110 528 194 740 110 652 l 110 492 l 251 492 l 251 521 b 399 632 252 605 314 632 b 544 503 485 633 544 607 l 544 405 b 86 178 318 408 86 381 b 300 -17 86 56 170 -17 b 539 89 410 -17 484 34 l 554 89 b 681 -15 560 31 589 -15 b 778 0 710 -15 743 -10 l 778 112 b 699 166 716 104 699 117 l 699 512 b 410 740 699 681 590 740 z m 658 1018 l 203 1018 l 203 916 l 658 916 z m 247 198 b 486 322 247 286 335 322 b 544 319 506 322 525 321 l 544 159 b 374 97 494 122 439 97 b 247 198 294 97 247 133 z "},"ą":{"ha":861,"x_min":0,"x_max":0,"o":"m 410 740 b 110 528 194 740 110 652 l 110 492 l 251 492 l 251 521 b 399 632 252 605 314 632 b 544 503 485 633 544 607 l 544 405 b 86 178 318 408 86 381 b 300 -17 86 56 170 -17 b 539 89 410 -17 484 34 l 554 89 b 635 -10 558 42 578 3 b 544 -171 574 -65 544 -115 b 722 -292 544 -232 579 -292 l 778 -292 l 778 -192 l 758 -192 b 681 -138 700 -192 681 -171 b 778 0 681 -102 706 -59 l 778 112 b 699 166 716 104 699 117 l 699 512 b 410 740 699 681 590 740 z m 247 198 b 486 322 247 286 335 322 b 544 319 506 322 525 321 l 544 159 b 374 97 494 122 439 97 b 247 198 294 97 247 133 z "},"å":{"ha":861,"x_min":0,"x_max":0,"o":"m 410 740 b 110 528 194 740 110 652 l 110 492 l 251 492 l 251 521 b 399 632 252 605 314 632 b 544 503 485 633 544 607 l 544 405 b 86 178 318 408 86 381 b 300 -17 86 56 170 -17 b 539 89 410 -17 484 34 l 554 89 b 681 -15 560 31 589 -15 b 778 0 710 -15 743 -10 l 778 112 b 699 166 716 104 699 117 l 699 512 b 410 740 699 681 590 740 z m 431 842 b 592 1008 525 842 592 913 b 431 1172 592 1103 525 1172 b 270 1008 336 1172 270 1103 b 431 842 270 913 336 842 z m 431 915 b 340 1008 376 915 340 954 b 431 1100 340 1060 376 1100 b 521 1008 486 1100 521 1060 b 431 915 521 954 486 915 z m 247 198 b 486 322 247 286 335 322 b 544 319 506 322 525 321 l 544 159 b 374 97 494 122 439 97 b 247 198 294 97 247 133 z "},"ã":{"ha":861,"x_min":0,"x_max":0,"o":"m 410 740 b 110 528 194 740 110 652 l 110 492 l 251 492 l 251 521 b 399 632 252 605 314 632 b 544 503 485 633 544 607 l 544 405 b 86 178 318 408 86 381 b 300 -17 86 56 170 -17 b 539 89 410 -17 484 34 l 554 89 b 681 -15 560 31 589 -15 b 778 0 710 -15 743 -10 l 778 112 b 699 166 716 104 699 117 l 699 512 b 410 740 699 681 590 740 z m 306 1122 b 152 907 223 1122 165 1044 l 256 877 b 333 1000 267 953 292 1000 b 548 867 401 1000 440 867 b 703 1082 632 867 690 945 l 599 1112 b 523 989 589 1035 563 989 b 306 1122 453 989 415 1122 z m 247 198 b 486 322 247 286 335 322 b 544 319 506 322 525 321 l 544 159 b 374 97 494 122 439 97 b 247 198 294 97 247 133 z "},"æ":{"ha":861,"x_min":0,"x_max":0,"o":"m 270 740 b 60 528 124 740 60 652 l 60 492 l 176 492 l 176 521 b 273 627 176 594 217 627 b 369 503 329 628 369 595 l 369 442 b 42 181 186 433 42 368 b 216 -17 42 57 104 -17 b 401 90 306 -17 359 31 l 419 90 b 604 -17 460 16 523 -17 b 812 192 707 -17 782 38 l 697 215 b 601 107 679 138 653 107 b 494 349 524 107 494 180 l 813 349 l 813 415 b 613 740 813 653 747 740 b 440 633 531 740 472 708 b 270 740 410 713 351 740 z m 173 203 b 369 347 173 298 245 340 b 390 170 369 277 376 218 b 264 103 348 124 307 103 b 173 203 208 103 173 137 z m 497 447 b 601 617 505 566 536 617 b 692 447 667 617 692 564 z "},"ǽ":{"ha":861,"x_min":0,"x_max":0,"o":"m 270 740 b 60 528 124 740 60 652 l 60 492 l 176 492 l 176 521 b 273 627 176 594 217 627 b 369 503 329 628 369 595 l 369 442 b 42 181 186 433 42 368 b 216 -17 42 57 104 -17 b 401 90 306 -17 359 31 l 419 90 b 604 -17 460 16 523 -17 b 812 192 707 -17 782 38 l 697 215 b 601 107 679 138 653 107 b 494 349 524 107 494 180 l 813 349 l 813 415 b 613 740 813 653 747 740 b 440 633 531 740 472 708 b 270 740 410 713 351 740 z m 362 885 l 502 1125 l 671 1125 l 497 885 z m 173 203 b 369 347 173 298 245 340 b 390 170 369 277 376 218 b 264 103 348 124 307 103 b 173 203 208 103 173 137 z m 497 447 b 601 617 505 566 536 617 b 692 447 667 617 692 564 z "},"b":{"ha":861,"x_min":0,"x_max":0,"o":"m 785 363 b 508 740 785 588 692 740 b 283 630 403 740 332 691 l 274 630 l 274 1063 l 120 1063 l 120 0 l 253 0 l 264 93 l 284 93 b 502 -17 326 32 397 -17 b 785 363 687 -17 785 134 z m 274 177 l 274 545 b 440 610 328 592 383 610 b 628 363 565 610 628 530 b 439 113 628 193 561 113 b 274 177 383 113 328 131 z "},"c":{"ha":861,"x_min":0,"x_max":0,"o":"m 776 224 l 628 245 b 438 107 601 156 537 107 b 233 363 311 107 233 190 b 440 617 233 527 304 617 b 626 467 540 617 610 568 l 776 480 b 444 740 759 656 624 740 b 76 363 231 740 76 619 b 437 -17 76 113 221 -17 b 776 224 598 -17 735 56 z "},"ć":{"ha":861,"x_min":0,"x_max":0,"o":"m 776 224 l 628 245 b 438 107 601 156 537 107 b 233 363 311 107 233 190 b 440 617 233 527 304 617 b 626 467 540 617 610 568 l 776 480 b 444 740 759 656 624 740 b 76 363 231 740 76 619 b 437 -17 76 113 221 -17 b 776 224 598 -17 735 56 z m 362 885 l 502 1125 l 671 1125 l 497 885 z "},"č":{"ha":861,"x_min":0,"x_max":0,"o":"m 776 224 l 628 245 b 438 107 601 156 537 107 b 233 363 311 107 233 190 b 440 617 233 527 304 617 b 626 467 540 617 610 568 l 776 480 b 444 740 759 656 624 740 b 76 363 231 740 76 619 b 437 -17 76 113 221 -17 b 776 224 598 -17 735 56 z m 173 1125 l 310 1125 l 431 947 l 551 1125 l 689 1125 l 515 885 l 347 885 z "},"ç":{"ha":861,"x_min":0,"x_max":0,"o":"m 776 224 l 628 245 b 438 107 601 156 537 107 b 233 363 311 107 233 190 b 440 617 233 527 304 617 b 626 467 540 617 610 568 l 776 480 b 444 740 759 656 624 740 b 76 363 231 740 76 619 b 383 -14 76 135 197 6 l 383 -182 b 483 -260 443 -188 483 -208 b 375 -328 483 -303 456 -328 l 338 -328 l 338 -417 l 392 -417 b 600 -269 556 -417 600 -361 b 478 -117 600 -178 557 -135 l 477 -15 b 776 224 620 -3 739 70 z "},"ĉ":{"ha":861,"x_min":0,"x_max":0,"o":"m 776 224 l 628 245 b 438 107 601 156 537 107 b 233 363 311 107 233 190 b 440 617 233 527 304 617 b 626 467 540 617 610 568 l 776 480 b 444 740 759 656 624 740 b 76 363 231 740 76 619 b 437 -17 76 113 221 -17 b 776 224 598 -17 735 56 z m 173 885 l 310 885 l 431 1063 l 551 885 l 689 885 l 515 1125 l 347 1125 z "},"ċ":{"ha":861,"x_min":0,"x_max":0,"o":"m 776 224 l 628 245 b 438 107 601 156 537 107 b 233 363 311 107 233 190 b 440 617 233 527 304 617 b 626 467 540 617 610 568 l 776 480 b 444 740 759 656 624 740 b 76 363 231 740 76 619 b 437 -17 76 113 221 -17 b 776 224 598 -17 735 56 z m 431 883 b 539 984 495 883 539 922 b 431 1083 539 1046 495 1083 b 322 984 367 1083 322 1046 b 431 883 322 922 367 883 z "},"d":{"ha":861,"x_min":0,"x_max":0,"o":"m 76 360 b 353 -17 76 135 170 -17 b 578 92 458 -17 529 31 l 598 92 l 608 0 l 741 0 l 741 1063 l 587 1063 l 587 630 l 578 630 b 359 739 535 691 465 739 b 76 360 174 739 76 589 z m 233 360 b 422 610 233 530 300 610 b 587 546 478 610 533 593 l 587 177 b 421 113 533 130 478 113 b 233 360 297 113 233 193 z "},"ď":{"ha":861,"x_min":0,"x_max":0,"o":"m 76 360 b 327 -17 76 117 169 -17 b 532 92 423 -17 489 31 l 552 92 l 563 0 l 695 0 l 695 1063 l 541 1063 l 541 630 l 531 630 b 333 739 494 691 429 739 b 76 360 173 739 76 604 z m 795 901 l 903 901 l 931 1155 l 806 1155 z m 226 360 b 400 610 226 533 293 610 b 541 547 450 610 498 593 l 541 176 b 399 113 497 130 450 113 b 226 360 290 113 226 190 z "},"đ":{"ha":861,"x_min":0,"x_max":0,"o":"m 76 360 b 353 -17 76 135 170 -17 b 578 92 458 -17 529 31 l 598 92 l 608 0 l 741 0 l 741 872 l 828 872 l 828 962 l 741 962 l 741 1063 l 587 1063 l 587 962 l 293 962 l 293 872 l 587 872 l 587 630 l 578 630 b 359 739 535 691 465 739 b 76 360 174 739 76 589 z m 233 360 b 422 610 233 530 300 610 b 587 546 478 610 533 593 l 587 177 b 421 113 533 130 478 113 b 233 360 297 113 233 193 z "},"ð":{"ha":861,"x_min":0,"x_max":0,"o":"m 571 888 l 544 922 l 720 990 l 691 1069 l 489 992 l 433 1063 l 247 1063 l 346 937 l 172 869 l 201 790 l 401 866 l 433 825 b 563 635 488 755 531 694 l 548 626 b 365 692 496 668 437 692 b 76 349 183 692 76 551 b 431 -17 76 107 226 -17 b 785 383 633 -17 785 101 b 571 888 785 579 710 720 z m 235 340 b 438 567 235 486 306 567 b 609 520 494 567 554 551 b 627 374 621 475 627 427 b 431 107 627 180 545 107 b 235 340 317 107 235 181 z "},"e":{"ha":861,"x_min":0,"x_max":0,"o":"m 76 363 b 440 -17 76 113 224 -17 b 769 192 592 -17 719 49 l 619 215 b 440 107 587 140 523 107 b 233 349 311 107 237 189 l 772 349 l 772 415 b 446 740 772 632 651 740 b 76 363 224 740 76 610 z m 240 447 b 441 617 263 562 335 617 b 621 447 546 617 621 564 z "},"é":{"ha":861,"x_min":0,"x_max":0,"o":"m 76 363 b 440 -17 76 113 224 -17 b 769 192 592 -17 719 49 l 619 215 b 440 107 587 140 523 107 b 233 349 311 107 237 189 l 772 349 l 772 415 b 446 740 772 632 651 740 b 76 363 224 740 76 610 z m 362 885 l 502 1125 l 671 1125 l 497 885 z m 240 447 b 441 617 263 562 335 617 b 621 447 546 617 621 564 z "},"ĕ":{"ha":861,"x_min":0,"x_max":0,"o":"m 76 363 b 440 -17 76 113 224 -17 b 769 192 592 -17 719 49 l 619 215 b 440 107 587 140 523 107 b 233 349 311 107 237 189 l 772 349 l 772 415 b 446 740 772 632 651 740 b 76 363 224 740 76 610 z m 313 1125 l 213 1125 b 431 879 207 966 281 879 b 649 1125 581 879 654 966 l 549 1125 b 431 980 549 1033 515 980 b 313 1125 347 980 313 1033 z m 240 447 b 441 617 263 562 335 617 b 621 447 546 617 621 564 z "},"ě":{"ha":861,"x_min":0,"x_max":0,"o":"m 76 363 b 440 -17 76 113 224 -17 b 769 192 592 -17 719 49 l 619 215 b 440 107 587 140 523 107 b 233 349 311 107 237 189 l 772 349 l 772 415 b 446 740 772 632 651 740 b 76 363 224 740 76 610 z m 173 1125 l 310 1125 l 431 947 l 551 1125 l 689 1125 l 515 885 l 347 885 z m 240 447 b 441 617 263 562 335 617 b 621 447 546 617 621 564 z "},"ê":{"ha":861,"x_min":0,"x_max":0,"o":"m 76 363 b 440 -17 76 113 224 -17 b 769 192 592 -17 719 49 l 619 215 b 440 107 587 140 523 107 b 233 349 311 107 237 189 l 772 349 l 772 415 b 446 740 772 632 651 740 b 76 363 224 740 76 610 z m 173 885 l 310 885 l 431 1063 l 551 885 l 689 885 l 515 1125 l 347 1125 z m 240 447 b 441 617 263 562 335 617 b 621 447 546 617 621 564 z "},"ë":{"ha":861,"x_min":0,"x_max":0,"o":"m 76 363 b 440 -17 76 113 224 -17 b 769 192 592 -17 719 49 l 619 215 b 440 107 587 140 523 107 b 233 349 311 107 237 189 l 772 349 l 772 415 b 446 740 772 632 651 740 b 76 363 224 740 76 610 z m 248 882 b 347 983 306 882 347 921 b 248 1081 347 1044 306 1081 b 149 983 189 1081 149 1044 b 248 882 149 921 189 882 z m 614 882 b 713 983 672 882 713 921 b 614 1081 713 1044 672 1081 b 515 983 555 1081 515 1044 b 614 882 515 921 555 882 z m 240 447 b 441 617 263 562 335 617 b 621 447 546 617 621 564 z "},"ė":{"ha":861,"x_min":0,"x_max":0,"o":"m 76 363 b 440 -17 76 113 224 -17 b 769 192 592 -17 719 49 l 619 215 b 440 107 587 140 523 107 b 233 349 311 107 237 189 l 772 349 l 772 415 b 446 740 772 632 651 740 b 76 363 224 740 76 610 z m 431 883 b 539 984 495 883 539 922 b 431 1083 539 1046 495 1083 b 322 984 367 1083 322 1046 b 431 883 322 922 367 883 z m 240 447 b 441 617 263 562 335 617 b 621 447 546 617 621 564 z "},"ẹ":{"ha":861,"x_min":0,"x_max":0,"o":"m 76 363 b 440 -17 76 113 224 -17 b 769 192 592 -17 719 49 l 619 215 b 440 107 587 140 523 107 b 233 349 311 107 237 189 l 772 349 l 772 415 b 446 740 772 632 651 740 b 76 363 224 740 76 610 z m 431 -360 b 539 -260 495 -360 539 -322 b 431 -160 539 -198 495 -160 b 322 -260 367 -160 322 -198 b 431 -360 322 -322 367 -360 z m 240 447 b 441 617 263 562 335 617 b 621 447 546 617 621 564 z "},"è":{"ha":861,"x_min":0,"x_max":0,"o":"m 76 363 b 440 -17 76 113 224 -17 b 769 192 592 -17 719 49 l 619 215 b 440 107 587 140 523 107 b 233 349 311 107 237 189 l 772 349 l 772 415 b 446 740 772 632 651 740 b 76 363 224 740 76 610 z m 500 885 l 359 1125 l 191 1125 l 365 885 z m 240 447 b 441 617 263 562 335 617 b 621 447 546 617 621 564 z "},"ē":{"ha":861,"x_min":0,"x_max":0,"o":"m 76 363 b 440 -17 76 113 224 -17 b 769 192 592 -17 719 49 l 619 215 b 440 107 587 140 523 107 b 233 349 311 107 237 189 l 772 349 l 772 415 b 446 740 772 632 651 740 b 76 363 224 740 76 610 z m 658 1018 l 203 1018 l 203 916 l 658 916 z m 240 447 b 441 617 263 562 335 617 b 621 447 546 617 621 564 z "},"ę":{"ha":861,"x_min":0,"x_max":0,"o":"m 76 363 b 413 -16 76 124 213 -6 b 330 -171 357 -69 330 -117 b 507 -292 330 -232 365 -292 l 564 -292 l 564 -192 l 544 -192 b 466 -138 485 -192 466 -171 b 564 0 466 -102 491 -59 b 769 192 659 28 733 90 l 619 215 b 440 107 587 140 523 107 b 233 349 311 107 237 189 l 772 349 l 772 415 b 446 740 772 632 651 740 b 76 363 224 740 76 610 z m 240 447 b 441 617 263 562 335 617 b 621 447 546 617 621 564 z "},"ẽ":{"ha":861,"x_min":0,"x_max":0,"o":"m 76 363 b 440 -17 76 113 224 -17 b 769 192 592 -17 719 49 l 619 215 b 440 107 587 140 523 107 b 233 349 311 107 237 189 l 772 349 l 772 415 b 446 740 772 632 651 740 b 76 363 224 740 76 610 z m 306 1122 b 152 907 223 1122 165 1044 l 256 877 b 333 1000 267 953 292 1000 b 548 867 401 1000 440 867 b 703 1082 632 867 690 945 l 599 1112 b 523 989 589 1035 563 989 b 306 1122 453 989 415 1122 z m 240 447 b 441 617 263 562 335 617 b 621 447 546 617 621 564 z "},"ə":{"ha":861,"x_min":0,"x_max":0,"o":"m 785 360 b 422 740 785 610 638 740 b 92 531 269 740 143 674 l 242 508 b 422 617 274 583 338 617 b 628 374 550 617 624 534 l 90 374 l 90 308 b 416 -17 90 92 210 -17 b 785 360 637 -17 785 113 z m 240 276 l 621 276 b 421 106 599 161 526 106 b 240 276 316 106 240 160 z "},"f":{"ha":861,"x_min":0,"x_max":0,"o":"m 783 964 l 783 1097 b 618 1119 731 1111 677 1119 b 291 770 407 1119 291 1026 l 291 723 l 68 723 l 68 598 l 291 598 l 291 125 l 110 125 l 110 0 l 686 0 l 686 125 l 445 125 l 445 598 l 758 598 l 758 723 l 445 723 l 445 794 b 624 984 445 949 504 984 b 783 964 680 984 728 976 z "},"g":{"ha":861,"x_min":0,"x_max":0,"o":"m 76 398 b 352 59 76 197 178 59 b 578 169 456 59 529 108 l 587 169 l 587 25 b 411 -171 587 -126 514 -171 b 236 -57 318 -171 262 -133 l 96 -87 b 411 -281 122 -198 206 -281 b 741 42 628 -281 741 -188 l 741 723 l 608 723 l 599 630 l 578 630 b 358 739 535 691 463 739 b 76 398 183 739 76 603 z m 233 398 b 422 610 233 533 303 610 b 587 546 478 610 533 593 l 587 253 b 421 189 533 206 478 189 b 233 398 300 189 233 266 z "},"ğ":{"ha":861,"x_min":0,"x_max":0,"o":"m 76 398 b 352 59 76 197 178 59 b 578 169 456 59 529 108 l 587 169 l 587 25 b 411 -171 587 -126 514 -171 b 236 -57 318 -171 262 -133 l 96 -87 b 411 -281 122 -198 206 -281 b 741 42 628 -281 741 -188 l 741 723 l 608 723 l 599 630 l 578 630 b 358 739 535 691 463 739 b 76 398 183 739 76 603 z m 313 1125 l 213 1125 b 431 879 207 966 281 879 b 649 1125 581 879 654 966 l 549 1125 b 431 980 549 1033 515 980 b 313 1125 347 980 313 1033 z m 233 398 b 422 610 233 533 303 610 b 587 546 478 610 533 593 l 587 253 b 421 189 533 206 478 189 b 233 398 300 189 233 266 z "},"ǧ":{"ha":861,"x_min":0,"x_max":0,"o":"m 76 398 b 352 59 76 197 178 59 b 578 169 456 59 529 108 l 587 169 l 587 25 b 411 -171 587 -126 514 -171 b 236 -57 318 -171 262 -133 l 96 -87 b 411 -281 122 -198 206 -281 b 741 42 628 -281 741 -188 l 741 723 l 608 723 l 599 630 l 578 630 b 358 739 535 691 463 739 b 76 398 183 739 76 603 z m 173 1125 l 310 1125 l 431 947 l 551 1125 l 689 1125 l 515 885 l 347 885 z m 233 398 b 422 610 233 533 303 610 b 587 546 478 610 533 593 l 587 253 b 421 189 533 206 478 189 b 233 398 300 189 233 266 z "},"ĝ":{"ha":861,"x_min":0,"x_max":0,"o":"m 76 398 b 352 59 76 197 178 59 b 578 169 456 59 529 108 l 587 169 l 587 25 b 411 -171 587 -126 514 -171 b 236 -57 318 -171 262 -133 l 96 -87 b 411 -281 122 -198 206 -281 b 741 42 628 -281 741 -188 l 741 723 l 608 723 l 599 630 l 578 630 b 358 739 535 691 463 739 b 76 398 183 739 76 603 z m 173 885 l 310 885 l 431 1063 l 551 885 l 689 885 l 515 1125 l 347 1125 z m 233 398 b 422 610 233 533 303 610 b 587 546 478 610 533 593 l 587 253 b 421 189 533 206 478 189 b 233 398 300 189 233 266 z "},"ģ":{"ha":861,"x_min":0,"x_max":0,"o":"m 76 398 b 352 59 76 197 178 59 b 578 169 456 59 529 108 l 587 169 l 587 25 b 411 -171 587 -126 514 -171 b 236 -57 318 -171 262 -133 l 96 -87 b 411 -281 122 -198 206 -281 b 741 42 628 -281 741 -188 l 741 723 l 608 723 l 599 630 l 578 630 b 358 739 535 691 463 739 b 76 398 183 739 76 603 z m 432 1079 b 413 1078 426 1079 419 1078 b 549 1194 436 1128 490 1161 l 499 1256 b 315 1016 405 1211 315 1132 b 433 884 315 926 367 884 b 540 981 494 884 540 920 b 432 1079 540 1042 494 1079 z m 233 398 b 422 610 233 533 303 610 b 587 546 478 610 533 593 l 587 253 b 421 189 533 206 478 189 b 233 398 300 189 233 266 z "},"ġ":{"ha":861,"x_min":0,"x_max":0,"o":"m 76 398 b 352 59 76 197 178 59 b 578 169 456 59 529 108 l 587 169 l 587 25 b 411 -171 587 -126 514 -171 b 236 -57 318 -171 262 -133 l 96 -87 b 411 -281 122 -198 206 -281 b 741 42 628 -281 741 -188 l 741 723 l 608 723 l 599 630 l 578 630 b 358 739 535 691 463 739 b 76 398 183 739 76 603 z m 431 883 b 539 984 495 883 539 922 b 431 1083 539 1046 495 1083 b 322 984 367 1083 322 1046 b 431 883 322 922 367 883 z m 233 398 b 422 610 233 533 303 610 b 587 546 478 610 533 593 l 587 253 b 421 189 533 206 478 189 b 233 398 300 189 233 266 z "},"h":{"ha":861,"x_min":0,"x_max":0,"o":"m 274 0 l 274 519 b 467 615 326 576 389 615 b 587 482 533 615 587 587 l 587 0 l 741 0 l 741 522 b 541 740 741 676 667 740 b 293 618 424 740 354 684 l 274 618 l 274 1063 l 120 1063 l 120 0 z "},"ħ":{"ha":861,"x_min":0,"x_max":0,"o":"m 274 0 l 274 519 b 467 615 326 576 389 615 b 587 482 533 615 587 587 l 587 0 l 741 0 l 741 522 b 541 740 741 676 667 740 b 293 618 424 740 354 684 l 274 618 l 274 872 l 568 872 l 568 962 l 274 962 l 274 1063 l 120 1063 l 120 962 l 33 962 l 33 872 l 120 872 l 120 0 z "},"ĥ":{"ha":861,"x_min":0,"x_max":0,"o":"m 274 0 l 274 519 b 467 615 326 576 389 615 b 587 482 533 615 587 587 l 587 0 l 741 0 l 741 522 b 541 740 741 676 667 740 b 293 618 424 740 354 684 l 274 618 l 274 1063 l 120 1063 l 120 0 z m -60 1184 l 83 1184 l 197 1306 l 311 1184 l 456 1184 l 285 1355 l 110 1355 z "},"i":{"ha":861,"x_min":0,"x_max":0,"o":"m 106 0 l 755 0 l 755 125 l 508 125 l 508 721 l 489 740 l 106 723 l 106 599 l 353 599 l 353 125 l 106 125 z m 403 883 b 511 984 467 883 511 922 b 403 1083 511 1046 467 1083 b 294 984 339 1083 294 1046 b 403 883 294 922 339 883 z "},"ı":{"ha":861,"x_min":0,"x_max":0,"o":"m 106 0 l 755 0 l 755 125 l 508 125 l 508 721 l 489 740 l 106 723 l 106 599 l 353 599 l 353 125 l 106 125 z "},"í":{"ha":861,"x_min":0,"x_max":0,"o":"m 106 0 l 755 0 l 755 125 l 508 125 l 508 721 l 489 740 l 106 723 l 106 599 l 353 599 l 353 125 l 106 125 z m 334 885 l 474 1125 l 643 1125 l 469 885 z "},"ĭ":{"ha":861,"x_min":0,"x_max":0,"o":"m 106 0 l 755 0 l 755 125 l 508 125 l 508 721 l 489 740 l 106 723 l 106 599 l 353 599 l 353 125 l 106 125 z m 285 1125 l 185 1125 b 403 879 179 966 253 879 b 621 1125 553 879 626 966 l 521 1125 b 403 980 521 1033 487 980 b 285 1125 319 980 285 1033 z "},"î":{"ha":861,"x_min":0,"x_max":0,"o":"m 106 0 l 755 0 l 755 125 l 508 125 l 508 721 l 489 740 l 106 723 l 106 599 l 353 599 l 353 125 l 106 125 z m 145 885 l 282 885 l 403 1063 l 524 885 l 661 885 l 487 1125 l 319 1125 z "},"ï":{"ha":861,"x_min":0,"x_max":0,"o":"m 106 0 l 755 0 l 755 125 l 508 125 l 508 721 l 489 740 l 106 723 l 106 599 l 353 599 l 353 125 l 106 125 z m 220 882 b 319 983 278 882 319 921 b 220 1081 319 1044 278 1081 b 121 983 161 1081 121 1044 b 220 882 121 921 161 882 z m 586 882 b 685 983 644 882 685 921 b 586 1081 685 1044 644 1081 b 487 983 527 1081 487 1044 b 586 882 487 921 527 882 z "},"ị":{"ha":861,"x_min":0,"x_max":0,"o":"m 106 0 l 755 0 l 755 125 l 508 125 l 508 721 l 489 740 l 106 723 l 106 599 l 353 599 l 353 125 l 106 125 z m 403 883 b 511 984 467 883 511 922 b 403 1083 511 1046 467 1083 b 294 984 339 1083 294 1046 b 403 883 294 922 339 883 z m 431 -360 b 539 -260 495 -360 539 -322 b 431 -160 539 -198 495 -160 b 322 -260 367 -160 322 -198 b 431 -360 322 -322 367 -360 z "},"ì":{"ha":861,"x_min":0,"x_max":0,"o":"m 106 0 l 755 0 l 755 125 l 508 125 l 508 721 l 489 740 l 106 723 l 106 599 l 353 599 l 353 125 l 106 125 z m 472 885 l 331 1125 l 163 1125 l 338 885 z "},"ī":{"ha":861,"x_min":0,"x_max":0,"o":"m 106 0 l 755 0 l 755 125 l 508 125 l 508 721 l 489 740 l 106 723 l 106 599 l 353 599 l 353 125 l 106 125 z m 631 1018 l 175 1018 l 175 916 l 631 916 z "},"į":{"ha":861,"x_min":0,"x_max":0,"o":"m 508 0 l 755 0 l 755 125 l 508 125 l 508 721 l 489 740 l 106 723 l 106 599 l 353 599 l 353 125 l 106 125 l 106 0 l 375 0 b 274 -171 306 -60 274 -111 b 451 -292 274 -232 308 -292 l 508 -292 l 508 -192 l 488 -192 b 410 -138 429 -192 410 -171 b 508 0 410 -102 435 -59 z m 403 883 b 511 984 467 883 511 922 b 403 1083 511 1046 467 1083 b 294 984 339 1083 294 1046 b 403 883 294 922 339 883 z "},"ĳ":{"ha":861,"x_min":0,"x_max":0,"o":"m 72 0 l 463 0 l 463 125 l 344 125 l 344 721 l 325 740 l 72 723 l 72 599 l 190 599 l 190 125 l 72 125 z m 240 883 b 348 984 303 883 348 922 b 240 1083 348 1046 303 1083 b 131 984 175 1083 131 1046 b 240 883 131 922 175 883 z m 756 -14 l 757 721 l 738 740 l 484 723 l 484 599 l 603 599 l 603 -15 b 467 -153 603 -116 558 -153 b 331 -135 423 -153 372 -144 l 331 -263 b 479 -281 383 -275 431 -281 b 756 -14 657 -281 756 -208 z m 651 883 b 759 984 715 883 759 922 b 651 1083 759 1046 715 1083 b 542 984 586 1083 542 1046 b 651 883 542 922 586 883 z "},"j":{"ha":861,"x_min":0,"x_max":0,"o":"m 626 51 l 626 721 l 607 740 l 140 723 l 140 599 l 472 599 l 472 51 b 292 -156 472 -111 426 -156 b 106 -133 231 -156 170 -147 l 106 -266 b 299 -290 167 -282 233 -290 b 626 51 541 -290 626 -218 z m 519 883 b 628 984 583 883 628 922 b 519 1083 628 1046 583 1083 b 411 984 455 1083 411 1046 b 519 883 411 922 455 883 z "},"ȷ":{"ha":861,"x_min":0,"x_max":0,"o":"m 626 51 l 626 721 l 607 740 l 140 723 l 140 599 l 472 599 l 472 51 b 292 -156 472 -111 426 -156 b 106 -133 231 -156 170 -147 l 106 -266 b 299 -290 167 -282 233 -290 b 626 51 541 -290 626 -218 z "},"ĵ":{"ha":861,"x_min":0,"x_max":0,"o":"m 626 51 l 626 721 l 607 740 l 140 723 l 140 599 l 472 599 l 472 51 b 292 -156 472 -111 426 -156 b 106 -133 231 -156 170 -147 l 106 -266 b 299 -290 167 -282 233 -290 b 626 51 541 -290 626 -218 z m 261 885 l 399 885 l 519 1063 l 640 885 l 777 885 l 603 1125 l 435 1125 z "},"k":{"ha":861,"x_min":0,"x_max":0,"o":"m 274 0 l 274 324 l 382 324 l 644 0 l 826 0 l 520 379 l 520 388 l 801 723 l 628 723 l 404 448 l 274 448 l 274 1063 l 120 1063 l 120 0 z "},"ķ":{"ha":861,"x_min":0,"x_max":0,"o":"m 274 0 l 274 324 l 382 324 l 644 0 l 826 0 l 520 379 l 520 388 l 801 723 l 628 723 l 404 448 l 274 448 l 274 1063 l 120 1063 l 120 0 z m 429 -356 b 448 -354 435 -356 442 -355 b 313 -471 425 -405 372 -438 l 363 -532 b 546 -292 456 -488 546 -408 b 428 -160 546 -202 494 -160 b 322 -258 368 -160 322 -197 b 429 -356 322 -319 367 -356 z "},"ĸ":{"ha":861,"x_min":0,"x_max":0,"o":"m 274 0 l 274 324 l 390 324 l 649 0 l 844 0 l 513 398 l 513 407 l 796 723 l 621 723 l 384 448 l 274 448 l 274 723 l 117 723 l 117 0 z "},"l":{"ha":861,"x_min":0,"x_max":0,"o":"m 106 0 l 755 0 l 755 125 l 508 125 l 508 1060 l 489 1079 l 107 1063 l 107 939 l 354 939 l 353 125 l 106 125 z "},"ĺ":{"ha":861,"x_min":0,"x_max":0,"o":"m 106 0 l 755 0 l 755 125 l 508 125 l 508 1060 l 489 1079 l 107 1063 l 107 939 l 354 939 l 353 125 l 106 125 z m 362 1184 l 502 1354 l 671 1354 l 497 1184 z "},"ľ":{"ha":861,"x_min":0,"x_max":0,"o":"m 106 0 l 755 0 l 755 125 l 508 125 l 508 1060 l 489 1079 l 107 1063 l 107 939 l 354 939 l 353 125 l 106 125 z m 637 901 l 756 901 l 785 1155 l 649 1155 z "},"ļ":{"ha":861,"x_min":0,"x_max":0,"o":"m 106 0 l 755 0 l 755 125 l 508 125 l 508 1060 l 489 1079 l 107 1063 l 107 939 l 354 939 l 353 125 l 106 125 z m 429 -356 b 448 -354 435 -356 442 -355 b 313 -471 425 -405 372 -438 l 363 -532 b 546 -292 456 -488 546 -408 b 428 -160 546 -202 494 -160 b 322 -258 368 -160 322 -197 b 429 -356 322 -319 367 -356 z "},"ŀ":{"ha":861,"x_min":0,"x_max":0,"o":"m 763 484 b 854 576 817 484 854 519 b 763 666 854 632 817 666 b 672 576 709 666 672 632 b 763 484 672 519 709 484 z m 106 0 l 755 0 l 755 125 l 508 125 l 508 1060 l 489 1079 l 107 1063 l 107 939 l 354 939 l 353 125 l 106 125 z "},"ł":{"ha":861,"x_min":0,"x_max":0,"o":"m 702 797 l 508 703 l 508 1060 l 489 1079 l 107 1063 l 107 939 l 354 939 l 354 628 l 159 533 l 159 396 l 353 491 l 353 125 l 106 125 l 106 0 l 755 0 l 755 125 l 508 125 l 508 566 l 702 660 z "},"m":{"ha":861,"x_min":0,"x_max":0,"o":"m 499 0 l 499 567 b 578 608 521 591 547 608 b 631 547 606 608 631 595 l 631 0 l 767 0 l 767 601 b 655 738 767 696 726 738 b 506 628 579 738 532 688 l 498 628 b 385 738 490 704 450 738 b 232 628 310 738 259 688 l 219 628 l 210 723 l 94 723 l 94 0 l 231 0 l 231 568 b 310 608 253 591 279 608 b 363 547 338 608 363 595 l 363 0 z "},"n":{"ha":861,"x_min":0,"x_max":0,"o":"m 741 0 l 741 522 b 538 740 741 676 665 740 b 284 618 420 740 346 684 l 264 618 l 253 723 l 120 723 l 120 0 l 274 0 l 274 521 b 467 615 327 577 390 615 b 587 482 533 615 587 587 l 587 0 z "},"ń":{"ha":861,"x_min":0,"x_max":0,"o":"m 741 0 l 741 522 b 538 740 741 676 665 740 b 284 618 420 740 346 684 l 264 618 l 253 723 l 120 723 l 120 0 l 274 0 l 274 521 b 467 615 327 577 390 615 b 587 482 533 615 587 587 l 587 0 z m 362 885 l 502 1125 l 671 1125 l 497 885 z "},"ň":{"ha":861,"x_min":0,"x_max":0,"o":"m 741 0 l 741 522 b 538 740 741 676 665 740 b 284 618 420 740 346 684 l 264 618 l 253 723 l 120 723 l 120 0 l 274 0 l 274 521 b 467 615 327 577 390 615 b 587 482 533 615 587 587 l 587 0 z m 173 1125 l 310 1125 l 431 947 l 551 1125 l 689 1125 l 515 885 l 347 885 z "},"ņ":{"ha":861,"x_min":0,"x_max":0,"o":"m 741 0 l 741 522 b 538 740 741 676 665 740 b 284 618 420 740 346 684 l 264 618 l 253 723 l 120 723 l 120 0 l 274 0 l 274 521 b 467 615 327 577 390 615 b 587 482 533 615 587 587 l 587 0 z m 429 -356 b 448 -354 435 -356 442 -355 b 313 -471 425 -405 372 -438 l 363 -532 b 546 -292 456 -488 546 -408 b 428 -160 546 -202 494 -160 b 322 -258 368 -160 322 -197 b 429 -356 322 -319 367 -356 z "},"ɲ":{"ha":861,"x_min":0,"x_max":0,"o":"m 274 0 l 274 521 b 467 615 327 577 390 615 b 587 482 533 615 587 587 l 587 0 l 741 0 l 741 522 b 538 740 741 676 665 740 b 284 618 420 740 346 684 l 264 618 l 253 723 l 120 723 l 120 0 b 47 -128 120 -93 103 -128 b -17 -117 28 -128 7 -124 l -17 -254 b 63 -263 8 -260 32 -263 b 274 0 213 -263 274 -199 z "},"ñ":{"ha":861,"x_min":0,"x_max":0,"o":"m 741 0 l 741 522 b 538 740 741 676 665 740 b 284 618 420 740 346 684 l 264 618 l 253 723 l 120 723 l 120 0 l 274 0 l 274 521 b 467 615 327 577 390 615 b 587 482 533 615 587 587 l 587 0 z m 306 1122 b 152 907 223 1122 165 1044 l 256 877 b 333 1000 267 953 292 1000 b 548 867 401 1000 440 867 b 703 1082 632 867 690 945 l 599 1112 b 523 989 589 1035 563 989 b 306 1122 453 989 415 1122 z "},"ŋ":{"ha":861,"x_min":0,"x_max":0,"o":"m 741 0 l 741 522 b 538 740 741 676 665 740 b 284 618 420 740 346 684 l 264 618 l 253 723 l 120 723 l 120 0 l 274 0 l 274 521 b 467 615 327 577 390 615 b 587 482 533 615 587 587 l 587 0 b 514 -128 587 -93 570 -128 b 450 -117 495 -128 474 -124 l 450 -254 b 530 -263 475 -260 499 -263 b 741 0 679 -263 741 -199 z "},"o":{"ha":861,"x_min":0,"x_max":0,"o":"m 785 360 b 431 740 785 617 626 740 b 76 360 236 740 76 617 b 431 -17 76 103 236 -17 b 785 360 626 -17 785 103 z m 628 360 b 431 107 628 180 547 107 b 233 360 315 107 233 180 b 431 617 233 540 315 617 b 628 360 547 617 628 540 z "},"ó":{"ha":861,"x_min":0,"x_max":0,"o":"m 785 360 b 431 740 785 617 626 740 b 76 360 236 740 76 617 b 431 -17 76 103 236 -17 b 785 360 626 -17 785 103 z m 628 360 b 431 107 628 180 547 107 b 233 360 315 107 233 180 b 431 617 233 540 315 617 b 628 360 547 617 628 540 z m 362 885 l 502 1125 l 671 1125 l 497 885 z "},"ŏ":{"ha":861,"x_min":0,"x_max":0,"o":"m 785 360 b 431 740 785 617 626 740 b 76 360 236 740 76 617 b 431 -17 76 103 236 -17 b 785 360 626 -17 785 103 z m 628 360 b 431 107 628 180 547 107 b 233 360 315 107 233 180 b 431 617 233 540 315 617 b 628 360 547 617 628 540 z m 313 1125 l 213 1125 b 431 879 207 966 281 879 b 649 1125 581 879 654 966 l 549 1125 b 431 980 549 1033 515 980 b 313 1125 347 980 313 1033 z "},"ô":{"ha":861,"x_min":0,"x_max":0,"o":"m 785 360 b 431 740 785 617 626 740 b 76 360 236 740 76 617 b 431 -17 76 103 236 -17 b 785 360 626 -17 785 103 z m 628 360 b 431 107 628 180 547 107 b 233 360 315 107 233 180 b 431 617 233 540 315 617 b 628 360 547 617 628 540 z m 173 885 l 310 885 l 431 1063 l 551 885 l 689 885 l 515 1125 l 347 1125 z "},"ö":{"ha":861,"x_min":0,"x_max":0,"o":"m 785 360 b 431 740 785 617 626 740 b 76 360 236 740 76 617 b 431 -17 76 103 236 -17 b 785 360 626 -17 785 103 z m 628 360 b 431 107 628 180 547 107 b 233 360 315 107 233 180 b 431 617 233 540 315 617 b 628 360 547 617 628 540 z m 248 882 b 347 983 306 882 347 921 b 248 1081 347 1044 306 1081 b 149 983 189 1081 149 1044 b 248 882 149 921 189 882 z m 614 882 b 713 983 672 882 713 921 b 614 1081 713 1044 672 1081 b 515 983 555 1081 515 1044 b 614 882 515 921 555 882 z "},"ọ":{"ha":861,"x_min":0,"x_max":0,"o":"m 785 360 b 431 740 785 617 626 740 b 76 360 236 740 76 617 b 431 -17 76 103 236 -17 b 785 360 626 -17 785 103 z m 628 360 b 431 107 628 180 547 107 b 233 360 315 107 233 180 b 431 617 233 540 315 617 b 628 360 547 617 628 540 z m 431 -360 b 539 -260 495 -360 539 -322 b 431 -160 539 -198 495 -160 b 322 -260 367 -160 322 -198 b 431 -360 322 -322 367 -360 z "},"ò":{"ha":861,"x_min":0,"x_max":0,"o":"m 785 360 b 431 740 785 617 626 740 b 76 360 236 740 76 617 b 431 -17 76 103 236 -17 b 785 360 626 -17 785 103 z m 628 360 b 431 107 628 180 547 107 b 233 360 315 107 233 180 b 431 617 233 540 315 617 b 628 360 547 617 628 540 z m 500 885 l 359 1125 l 191 1125 l 365 885 z "},"ő":{"ha":861,"x_min":0,"x_max":0,"o":"m 785 360 b 431 740 785 617 626 740 b 76 360 236 740 76 617 b 431 -17 76 103 236 -17 b 785 360 626 -17 785 103 z m 628 360 b 431 107 628 180 547 107 b 233 360 315 107 233 180 b 431 617 233 540 315 617 b 628 360 547 617 628 540 z m 238 885 l 345 885 l 463 1125 l 333 1125 z m 510 885 l 617 885 l 735 1125 l 605 1125 z "},"ō":{"ha":861,"x_min":0,"x_max":0,"o":"m 785 360 b 431 740 785 617 626 740 b 76 360 236 740 76 617 b 431 -17 76 103 236 -17 b 785 360 626 -17 785 103 z m 628 360 b 431 107 628 180 547 107 b 233 360 315 107 233 180 b 431 617 233 540 315 617 b 628 360 547 617 628 540 z m 658 1018 l 203 1018 l 203 916 l 658 916 z "},"ǫ":{"ha":861,"x_min":0,"x_max":0,"o":"m 785 360 b 431 740 785 617 626 740 b 76 360 236 740 76 617 b 399 -16 76 117 219 -3 b 315 -171 343 -69 315 -117 b 493 -292 315 -232 350 -292 l 550 -292 l 550 -192 l 530 -192 b 451 -138 471 -192 451 -171 b 550 0 451 -102 476 -59 b 785 360 687 41 785 158 z m 628 360 b 431 107 628 180 547 107 b 233 360 315 107 233 180 b 431 617 233 540 315 617 b 628 360 547 617 628 540 z "},"ø":{"ha":861,"x_min":0,"x_max":0,"o":"m 785 360 b 695 631 785 478 751 569 l 804 796 l 685 875 l 578 713 b 431 740 533 731 483 740 b 76 360 236 740 76 617 b 165 90 76 242 110 152 l 57 -73 l 176 -152 l 283 10 b 431 -17 328 -8 378 -17 b 785 360 626 -17 785 103 z m 628 360 b 431 107 628 180 547 107 b 338 127 397 107 365 113 l 597 519 b 628 360 617 479 628 426 z m 233 360 b 431 617 233 540 315 617 b 523 596 465 617 496 610 l 263 204 b 233 360 244 242 233 294 z "},"ǿ":{"ha":861,"x_min":0,"x_max":0,"o":"m 785 360 b 695 631 785 478 751 569 l 804 796 l 685 875 l 578 713 b 431 740 533 731 483 740 b 76 360 236 740 76 617 b 165 90 76 242 110 152 l 57 -73 l 176 -152 l 283 10 b 431 -17 328 -8 378 -17 b 785 360 626 -17 785 103 z m 628 360 b 431 107 628 180 547 107 b 338 127 397 107 365 113 l 597 519 b 628 360 617 479 628 426 z m 362 885 l 502 1125 l 671 1125 l 497 885 z m 233 360 b 431 617 233 540 315 617 b 523 596 465 617 496 610 l 263 204 b 233 360 244 242 233 294 z "},"õ":{"ha":861,"x_min":0,"x_max":0,"o":"m 785 360 b 431 740 785 617 626 740 b 76 360 236 740 76 617 b 431 -17 76 103 236 -17 b 785 360 626 -17 785 103 z m 628 360 b 431 107 628 180 547 107 b 233 360 315 107 233 180 b 431 617 233 540 315 617 b 628 360 547 617 628 540 z m 306 1122 b 152 907 223 1122 165 1044 l 256 877 b 333 1000 267 953 292 1000 b 548 867 401 1000 440 867 b 703 1082 632 867 690 945 l 599 1112 b 523 989 589 1035 563 989 b 306 1122 453 989 415 1122 z "},"œ":{"ha":861,"x_min":0,"x_max":0,"o":"m 372 360 b 272 107 372 181 342 107 b 169 360 202 107 169 181 b 272 617 169 540 202 617 b 372 360 342 617 372 540 z m 42 360 b 265 -17 42 81 135 -17 b 435 100 342 -17 399 17 b 608 -17 469 19 526 -17 b 812 192 709 -17 782 38 l 697 215 b 605 107 679 138 653 107 b 499 349 531 107 501 180 l 813 349 l 813 415 b 612 740 813 653 747 740 b 434 622 526 740 468 703 b 265 740 399 705 341 740 b 42 360 135 740 42 637 z m 502 447 b 603 617 511 566 542 617 b 692 447 666 617 692 564 z "},"p":{"ha":861,"x_min":0,"x_max":0,"o":"m 785 363 b 508 740 785 588 692 740 b 283 630 403 740 332 691 l 263 630 l 253 723 l 120 723 l 120 -264 l 274 -264 l 274 93 l 284 93 b 502 -17 326 32 397 -17 b 785 363 687 -17 785 134 z m 274 177 l 274 545 b 440 610 328 592 383 610 b 628 363 565 610 628 530 b 439 113 628 193 561 113 b 274 177 383 113 328 131 z "},"þ":{"ha":861,"x_min":0,"x_max":0,"o":"m 274 1063 l 120 1063 l 120 -264 l 274 -264 l 274 93 l 284 93 b 502 -17 326 32 397 -17 b 785 363 687 -17 785 134 b 508 740 785 588 692 740 b 283 630 403 740 332 691 l 274 630 z m 274 177 l 274 545 b 440 610 328 592 383 610 b 628 363 565 610 628 530 b 439 113 628 193 561 113 b 274 177 383 113 328 131 z "},"q":{"ha":861,"x_min":0,"x_max":0,"o":"m 76 360 b 353 -17 76 135 170 -17 b 578 93 458 -17 529 32 l 587 93 l 587 -264 l 741 -264 l 741 723 l 608 723 l 599 630 l 578 630 b 359 740 535 691 465 740 b 76 360 174 740 76 589 z m 233 360 b 422 610 233 530 300 610 b 587 547 478 610 533 593 l 587 177 b 421 113 533 131 478 113 b 233 360 297 113 233 193 z "},"r":{"ha":861,"x_min":0,"x_max":0,"o":"m 412 723 l 98 723 l 98 598 l 279 598 l 279 125 l 98 125 l 98 0 l 674 0 l 674 125 l 433 125 l 433 516 b 774 588 535 578 622 588 l 774 733 b 704 740 753 738 731 740 b 442 618 582 740 513 697 l 422 618 z "},"ŕ":{"ha":861,"x_min":0,"x_max":0,"o":"m 412 723 l 98 723 l 98 598 l 279 598 l 279 125 l 98 125 l 98 0 l 674 0 l 674 125 l 433 125 l 433 516 b 774 588 535 578 622 588 l 774 733 b 704 740 753 738 731 740 b 442 618 582 740 513 697 l 422 618 z m 362 885 l 502 1125 l 671 1125 l 497 885 z "},"ř":{"ha":861,"x_min":0,"x_max":0,"o":"m 412 723 l 98 723 l 98 598 l 279 598 l 279 125 l 98 125 l 98 0 l 674 0 l 674 125 l 433 125 l 433 516 b 774 588 535 578 622 588 l 774 733 b 704 740 753 738 731 740 b 442 618 582 740 513 697 l 422 618 z m 173 1125 l 310 1125 l 431 947 l 551 1125 l 689 1125 l 515 885 l 347 885 z "},"ŗ":{"ha":861,"x_min":0,"x_max":0,"o":"m 412 723 l 98 723 l 98 598 l 279 598 l 279 125 l 98 125 l 98 0 l 674 0 l 674 125 l 433 125 l 433 516 b 774 588 535 578 622 588 l 774 733 b 704 740 753 738 731 740 b 442 618 582 740 513 697 l 422 618 z m 392 -356 b 410 -354 398 -356 404 -355 b 276 -471 388 -405 334 -438 l 326 -532 b 508 -292 419 -488 508 -408 b 391 -160 508 -202 456 -160 b 285 -258 331 -160 285 -197 b 392 -356 285 -319 330 -356 z "},"s":{"ha":861,"x_min":0,"x_max":0,"o":"m 435 740 b 115 525 217 740 115 657 b 374 309 115 397 210 344 b 597 195 535 274 597 254 b 431 99 597 144 550 99 b 224 226 331 99 253 115 l 83 208 b 423 -16 113 43 223 -16 b 751 213 640 -16 751 74 b 474 424 751 344 652 386 b 263 538 322 458 263 479 b 424 628 263 598 324 628 b 600 513 536 628 592 590 l 740 524 b 435 740 738 669 628 740 z "},"ś":{"ha":861,"x_min":0,"x_max":0,"o":"m 435 740 b 115 525 217 740 115 657 b 374 309 115 397 210 344 b 597 195 535 274 597 254 b 431 99 597 144 550 99 b 224 226 331 99 253 115 l 83 208 b 423 -16 113 43 223 -16 b 751 213 640 -16 751 74 b 474 424 751 344 652 386 b 263 538 322 458 263 479 b 424 628 263 598 324 628 b 600 513 536 628 592 590 l 740 524 b 435 740 738 669 628 740 z m 362 885 l 502 1125 l 671 1125 l 497 885 z "},"š":{"ha":861,"x_min":0,"x_max":0,"o":"m 435 740 b 115 525 217 740 115 657 b 374 309 115 397 210 344 b 597 195 535 274 597 254 b 431 99 597 144 550 99 b 224 226 331 99 253 115 l 83 208 b 423 -16 113 43 223 -16 b 751 213 640 -16 751 74 b 474 424 751 344 652 386 b 263 538 322 458 263 479 b 424 628 263 598 324 628 b 600 513 536 628 592 590 l 740 524 b 435 740 738 669 628 740 z m 173 1125 l 310 1125 l 431 947 l 551 1125 l 689 1125 l 515 885 l 347 885 z "},"ş":{"ha":861,"x_min":0,"x_max":0,"o":"m 435 740 b 115 525 217 740 115 657 b 374 309 115 397 210 344 b 597 195 535 274 597 254 b 431 99 597 144 550 99 b 224 226 331 99 253 115 l 83 208 b 383 -15 111 54 208 -7 l 383 -182 b 483 -260 443 -188 483 -208 b 375 -328 483 -303 456 -328 l 338 -328 l 338 -417 l 392 -417 b 600 -269 556 -417 600 -361 b 478 -117 600 -178 557 -135 l 477 -14 b 751 213 658 0 751 85 b 474 424 751 344 652 386 b 263 538 322 458 263 479 b 424 628 263 598 324 628 b 600 513 536 628 592 590 l 740 524 b 435 740 738 669 628 740 z "},"ŝ":{"ha":861,"x_min":0,"x_max":0,"o":"m 435 740 b 115 525 217 740 115 657 b 374 309 115 397 210 344 b 597 195 535 274 597 254 b 431 99 597 144 550 99 b 224 226 331 99 253 115 l 83 208 b 423 -16 113 43 223 -16 b 751 213 640 -16 751 74 b 474 424 751 344 652 386 b 263 538 322 458 263 479 b 424 628 263 598 324 628 b 600 513 536 628 592 590 l 740 524 b 435 740 738 669 628 740 z m 173 885 l 310 885 l 431 1063 l 551 885 l 689 885 l 515 1125 l 347 1125 z "},"ș":{"ha":861,"x_min":0,"x_max":0,"o":"m 435 740 b 115 525 217 740 115 657 b 374 309 115 397 210 344 b 597 195 535 274 597 254 b 431 99 597 144 550 99 b 224 226 331 99 253 115 l 83 208 b 423 -16 113 43 223 -16 b 751 213 640 -16 751 74 b 474 424 751 344 652 386 b 263 538 322 458 263 479 b 424 628 263 598 324 628 b 600 513 536 628 592 590 l 740 524 b 435 740 738 669 628 740 z m 429 -356 b 448 -354 435 -356 442 -355 b 313 -471 425 -405 372 -438 l 363 -532 b 546 -292 456 -488 546 -408 b 428 -160 546 -202 494 -160 b 322 -258 368 -160 322 -197 b 429 -356 322 -319 367 -356 z "},"ß":{"ha":861,"x_min":0,"x_max":0,"o":"m 754 797 b 433 1079 753 959 653 1079 b 102 749 200 1079 102 942 l 102 0 l 260 0 l 260 720 b 433 945 260 851 299 945 b 597 785 556 945 597 871 b 396 604 597 659 506 604 l 396 484 b 631 305 527 484 631 440 b 396 131 631 192 568 131 l 396 0 b 792 296 675 0 792 110 b 602 555 792 456 705 524 b 754 797 685 590 754 662 z "},"t":{"ha":861,"x_min":0,"x_max":0,"o":"m 568 -16 b 751 8 635 -16 699 -7 l 751 141 b 585 118 697 128 641 118 b 421 298 465 118 421 153 l 421 598 l 735 598 l 735 723 l 421 723 l 421 940 l 267 940 l 267 723 l 68 723 l 68 598 l 267 598 l 267 294 b 568 -16 267 46 354 -17 z "},"ŧ":{"ha":861,"x_min":0,"x_max":0,"o":"m 569 -16 b 751 6 638 -16 699 -8 l 751 139 b 586 118 698 126 646 118 b 421 305 468 118 421 153 l 421 432 l 735 432 l 735 536 l 421 536 l 421 699 l 735 699 l 735 803 l 421 803 l 421 940 l 267 940 l 267 803 l 68 803 l 68 699 l 267 699 l 267 536 l 68 536 l 68 432 l 267 432 l 267 301 b 569 -16 267 46 355 -16 z "},"ť":{"ha":861,"x_min":0,"x_max":0,"o":"m 568 -16 b 751 8 635 -16 699 -7 l 751 141 b 585 118 697 128 641 118 b 421 298 465 118 421 153 l 421 598 l 735 598 l 735 723 l 421 723 l 421 940 l 267 940 l 267 723 l 68 723 l 68 598 l 267 598 l 267 294 b 568 -16 267 46 354 -17 z m 637 852 l 756 852 l 785 1106 l 649 1106 z "},"ţ":{"ha":861,"x_min":0,"x_max":0,"o":"m 568 -16 b 751 8 635 -16 699 -7 l 751 141 b 585 118 697 128 641 118 b 421 298 465 118 421 153 l 421 598 l 735 598 l 735 723 l 421 723 l 421 940 l 267 940 l 267 723 l 68 723 l 68 598 l 267 598 l 267 294 b 450 -7 267 98 322 17 l 450 -182 b 549 -260 510 -188 549 -208 b 442 -328 549 -303 522 -328 l 405 -328 l 405 -417 l 460 -417 b 667 -269 623 -417 667 -361 b 546 -117 667 -178 624 -135 l 544 -16 z "},"ț":{"ha":861,"x_min":0,"x_max":0,"o":"m 568 -16 b 751 8 635 -16 699 -7 l 751 141 b 585 118 697 128 641 118 b 421 298 465 118 421 153 l 421 598 l 735 598 l 735 723 l 421 723 l 421 940 l 267 940 l 267 723 l 68 723 l 68 598 l 267 598 l 267 294 b 568 -16 267 46 354 -17 z m 497 -356 b 515 -354 503 -356 509 -355 b 380 -471 492 -405 438 -438 l 430 -532 b 613 -292 524 -488 613 -408 b 496 -160 613 -202 561 -160 b 389 -258 435 -160 389 -197 b 497 -356 389 -319 434 -356 z "},"u":{"ha":861,"x_min":0,"x_max":0,"o":"m 120 723 l 120 201 b 324 -16 120 48 196 -16 b 577 106 442 -16 516 39 l 597 106 l 608 0 l 741 0 l 741 723 l 587 723 l 587 202 b 394 108 535 145 472 108 b 274 242 328 108 274 136 l 274 723 z "},"ú":{"ha":861,"x_min":0,"x_max":0,"o":"m 120 723 l 120 201 b 324 -16 120 48 196 -16 b 577 106 442 -16 516 39 l 597 106 l 608 0 l 741 0 l 741 723 l 587 723 l 587 202 b 394 108 535 145 472 108 b 274 242 328 108 274 136 l 274 723 z m 362 885 l 502 1125 l 671 1125 l 497 885 z "},"ŭ":{"ha":861,"x_min":0,"x_max":0,"o":"m 120 723 l 120 201 b 324 -16 120 48 196 -16 b 577 106 442 -16 516 39 l 597 106 l 608 0 l 741 0 l 741 723 l 587 723 l 587 202 b 394 108 535 145 472 108 b 274 242 328 108 274 136 l 274 723 z m 313 1125 l 213 1125 b 431 879 207 966 281 879 b 649 1125 581 879 654 966 l 549 1125 b 431 980 549 1033 515 980 b 313 1125 347 980 313 1033 z "},"û":{"ha":861,"x_min":0,"x_max":0,"o":"m 120 723 l 120 201 b 324 -16 120 48 196 -16 b 577 106 442 -16 516 39 l 597 106 l 608 0 l 741 0 l 741 723 l 587 723 l 587 202 b 394 108 535 145 472 108 b 274 242 328 108 274 136 l 274 723 z m 173 885 l 310 885 l 431 1063 l 551 885 l 689 885 l 515 1125 l 347 1125 z "},"ü":{"ha":861,"x_min":0,"x_max":0,"o":"m 120 723 l 120 201 b 324 -16 120 48 196 -16 b 577 106 442 -16 516 39 l 597 106 l 608 0 l 741 0 l 741 723 l 587 723 l 587 202 b 394 108 535 145 472 108 b 274 242 328 108 274 136 l 274 723 z m 248 882 b 347 983 306 882 347 921 b 248 1081 347 1044 306 1081 b 149 983 189 1081 149 1044 b 248 882 149 921 189 882 z m 614 882 b 713 983 672 882 713 921 b 614 1081 713 1044 672 1081 b 515 983 555 1081 515 1044 b 614 882 515 921 555 882 z "},"ụ":{"ha":861,"x_min":0,"x_max":0,"o":"m 120 723 l 120 201 b 324 -16 120 48 196 -16 b 577 106 442 -16 516 39 l 597 106 l 608 0 l 741 0 l 741 723 l 587 723 l 587 202 b 394 108 535 145 472 108 b 274 242 328 108 274 136 l 274 723 z m 431 -360 b 539 -260 495 -360 539 -322 b 431 -160 539 -198 495 -160 b 322 -260 367 -160 322 -198 b 431 -360 322 -322 367 -360 z "},"ù":{"ha":861,"x_min":0,"x_max":0,"o":"m 120 723 l 120 201 b 324 -16 120 48 196 -16 b 577 106 442 -16 516 39 l 597 106 l 608 0 l 741 0 l 741 723 l 587 723 l 587 202 b 394 108 535 145 472 108 b 274 242 328 108 274 136 l 274 723 z m 500 885 l 359 1125 l 191 1125 l 365 885 z "},"ű":{"ha":861,"x_min":0,"x_max":0,"o":"m 120 723 l 120 201 b 324 -16 120 48 196 -16 b 577 106 442 -16 516 39 l 597 106 l 608 0 l 741 0 l 741 723 l 587 723 l 587 202 b 394 108 535 145 472 108 b 274 242 328 108 274 136 l 274 723 z m 238 885 l 345 885 l 463 1125 l 333 1125 z m 510 885 l 617 885 l 735 1125 l 605 1125 z "},"ū":{"ha":861,"x_min":0,"x_max":0,"o":"m 120 723 l 120 201 b 324 -16 120 48 196 -16 b 577 106 442 -16 516 39 l 597 106 l 608 0 l 741 0 l 741 723 l 587 723 l 587 202 b 394 108 535 145 472 108 b 274 242 328 108 274 136 l 274 723 z m 658 1018 l 203 1018 l 203 916 l 658 916 z "},"ų":{"ha":861,"x_min":0,"x_max":0,"o":"m 120 723 l 120 201 b 324 -16 120 48 196 -16 b 577 106 442 -16 516 39 l 597 106 l 608 0 b 507 -171 540 -60 507 -111 b 684 -292 507 -232 542 -292 l 741 -292 l 741 -192 l 721 -192 b 643 -138 663 -192 643 -171 b 741 0 643 -102 668 -59 l 741 723 l 587 723 l 587 202 b 394 108 535 145 472 108 b 274 242 328 108 274 136 l 274 723 z "},"ů":{"ha":861,"x_min":0,"x_max":0,"o":"m 120 723 l 120 201 b 324 -16 120 48 196 -16 b 577 106 442 -16 516 39 l 597 106 l 608 0 l 741 0 l 741 723 l 587 723 l 587 202 b 394 108 535 145 472 108 b 274 242 328 108 274 136 l 274 723 z m 431 842 b 592 1008 525 842 592 913 b 431 1172 592 1103 525 1172 b 270 1008 336 1172 270 1103 b 431 842 270 913 336 842 z m 431 915 b 340 1008 376 915 340 954 b 431 1100 340 1060 376 1100 b 521 1008 486 1100 521 1060 b 431 915 521 954 486 915 z "},"ũ":{"ha":861,"x_min":0,"x_max":0,"o":"m 120 723 l 120 201 b 324 -16 120 48 196 -16 b 577 106 442 -16 516 39 l 597 106 l 608 0 l 741 0 l 741 723 l 587 723 l 587 202 b 394 108 535 145 472 108 b 274 242 328 108 274 136 l 274 723 z m 306 1122 b 152 907 223 1122 165 1044 l 256 877 b 333 1000 267 953 292 1000 b 548 867 401 1000 440 867 b 703 1082 632 867 690 945 l 599 1112 b 523 989 589 1035 563 989 b 306 1122 453 989 415 1122 z "},"v":{"ha":861,"x_min":0,"x_max":0,"o":"m 60 723 l 351 0 l 510 0 l 801 723 l 649 723 l 442 188 l 433 188 l 226 723 z "},"w":{"ha":861,"x_min":0,"x_max":0,"o":"m 22 723 l 181 0 l 303 0 l 426 422 l 435 422 l 548 0 l 680 0 l 840 723 l 699 723 l 601 237 l 589 237 l 488 622 l 388 622 l 276 237 l 265 237 l 167 723 z "},"ẃ":{"ha":861,"x_min":0,"x_max":0,"o":"m 22 723 l 181 0 l 303 0 l 426 422 l 435 422 l 548 0 l 680 0 l 840 723 l 699 723 l 601 237 l 589 237 l 488 622 l 388 622 l 276 237 l 265 237 l 167 723 z m 362 885 l 502 1125 l 671 1125 l 497 885 z "},"ŵ":{"ha":861,"x_min":0,"x_max":0,"o":"m 22 723 l 181 0 l 303 0 l 426 422 l 435 422 l 548 0 l 680 0 l 840 723 l 699 723 l 601 237 l 589 237 l 488 622 l 388 622 l 276 237 l 265 237 l 167 723 z m 173 885 l 310 885 l 431 1063 l 551 885 l 689 885 l 515 1125 l 347 1125 z "},"ẅ":{"ha":861,"x_min":0,"x_max":0,"o":"m 22 723 l 181 0 l 303 0 l 426 422 l 435 422 l 548 0 l 680 0 l 840 723 l 699 723 l 601 237 l 589 237 l 488 622 l 388 622 l 276 237 l 265 237 l 167 723 z m 248 882 b 347 983 306 882 347 921 b 248 1081 347 1044 306 1081 b 149 983 189 1081 149 1044 b 248 882 149 921 189 882 z m 614 882 b 713 983 672 882 713 921 b 614 1081 713 1044 672 1081 b 515 983 555 1081 515 1044 b 614 882 515 921 555 882 z "},"ẁ":{"ha":861,"x_min":0,"x_max":0,"o":"m 22 723 l 181 0 l 303 0 l 426 422 l 435 422 l 548 0 l 680 0 l 840 723 l 699 723 l 601 237 l 589 237 l 488 622 l 388 622 l 276 237 l 265 237 l 167 723 z m 500 885 l 359 1125 l 191 1125 l 365 885 z "},"x":{"ha":861,"x_min":0,"x_max":0,"o":"m 59 723 l 339 368 l 49 0 l 227 0 l 421 264 l 629 0 l 813 0 l 523 367 l 802 723 l 629 723 l 441 470 l 241 723 z "},"y":{"ha":861,"x_min":0,"x_max":0,"o":"m 57 723 l 370 0 l 360 -28 b 178 -145 338 -90 292 -145 b 88 -134 145 -145 116 -141 l 88 -272 b 174 -281 114 -277 142 -281 b 533 24 372 -281 463 -157 l 806 723 l 651 723 l 456 194 l 446 194 l 222 723 z "},"ý":{"ha":861,"x_min":0,"x_max":0,"o":"m 362 885 l 502 1125 l 671 1125 l 497 885 z m 57 723 l 370 0 l 360 -28 b 178 -145 338 -90 292 -145 b 88 -134 145 -145 116 -141 l 88 -272 b 174 -281 114 -277 142 -281 b 533 24 372 -281 463 -157 l 806 723 l 651 723 l 456 194 l 446 194 l 222 723 z "},"ŷ":{"ha":861,"x_min":0,"x_max":0,"o":"m 173 885 l 310 885 l 431 1063 l 551 885 l 689 885 l 515 1125 l 347 1125 z m 57 723 l 370 0 l 360 -28 b 178 -145 338 -90 292 -145 b 88 -134 145 -145 116 -141 l 88 -272 b 174 -281 114 -277 142 -281 b 533 24 372 -281 463 -157 l 806 723 l 651 723 l 456 194 l 446 194 l 222 723 z "},"ÿ":{"ha":861,"x_min":0,"x_max":0,"o":"m 248 882 b 347 983 306 882 347 921 b 248 1081 347 1044 306 1081 b 149 983 189 1081 149 1044 b 248 882 149 921 189 882 z m 614 882 b 713 983 672 882 713 921 b 614 1081 713 1044 672 1081 b 515 983 555 1081 515 1044 b 614 882 515 921 555 882 z m 57 723 l 370 0 l 360 -28 b 178 -145 338 -90 292 -145 b 88 -134 145 -145 116 -141 l 88 -272 b 174 -281 114 -277 142 -281 b 533 24 372 -281 463 -157 l 806 723 l 651 723 l 456 194 l 446 194 l 222 723 z "},"ỳ":{"ha":861,"x_min":0,"x_max":0,"o":"m 500 885 l 359 1125 l 191 1125 l 365 885 z m 57 723 l 370 0 l 360 -28 b 178 -145 338 -90 292 -145 b 88 -134 145 -145 116 -141 l 88 -272 b 174 -281 114 -277 142 -281 b 533 24 372 -281 463 -157 l 806 723 l 651 723 l 456 194 l 446 194 l 222 723 z "},"ȳ":{"ha":861,"x_min":0,"x_max":0,"o":"m 658 1018 l 203 1018 l 203 916 l 658 916 z m 57 723 l 370 0 l 360 -28 b 178 -145 338 -90 292 -145 b 88 -134 145 -145 116 -141 l 88 -272 b 174 -281 114 -277 142 -281 b 533 24 372 -281 463 -157 l 806 723 l 651 723 l 456 194 l 446 194 l 222 723 z "},"ỹ":{"ha":861,"x_min":0,"x_max":0,"o":"m 306 1122 b 152 907 223 1122 165 1044 l 256 877 b 333 1000 267 953 292 1000 b 548 867 401 1000 440 867 b 703 1082 632 867 690 945 l 599 1112 b 523 989 589 1035 563 989 b 306 1122 453 989 415 1122 z m 57 723 l 370 0 l 360 -28 b 178 -145 338 -90 292 -145 b 88 -134 145 -145 116 -141 l 88 -272 b 174 -281 114 -277 142 -281 b 533 24 372 -281 463 -157 l 806 723 l 651 723 l 456 194 l 446 194 l 222 723 z "},"z":{"ha":861,"x_min":0,"x_max":0,"o":"m 113 723 l 113 598 l 513 598 l 113 92 l 113 0 l 749 0 l 749 125 l 323 125 l 724 631 l 724 723 z "},"ź":{"ha":861,"x_min":0,"x_max":0,"o":"m 113 723 l 113 598 l 513 598 l 113 92 l 113 0 l 749 0 l 749 125 l 323 125 l 724 631 l 724 723 z m 362 885 l 502 1125 l 671 1125 l 497 885 z "},"ž":{"ha":861,"x_min":0,"x_max":0,"o":"m 113 723 l 113 598 l 513 598 l 113 92 l 113 0 l 749 0 l 749 125 l 323 125 l 724 631 l 724 723 z m 173 1125 l 310 1125 l 431 947 l 551 1125 l 689 1125 l 515 885 l 347 885 z "},"ż":{"ha":861,"x_min":0,"x_max":0,"o":"m 113 723 l 113 598 l 513 598 l 113 92 l 113 0 l 749 0 l 749 125 l 323 125 l 724 631 l 724 723 z m 431 883 b 539 984 495 883 539 922 b 431 1083 539 1046 495 1083 b 322 984 367 1083 322 1046 b 431 883 322 922 367 883 z "},"":{"ha":861,"x_min":0,"x_max":0,"o":"m 634 -1 b 476 200 634 117 581 200 b 348 142 417 200 376 174 l 343 142 l 343 367 l 252 367 l 252 -194 l 331 -194 l 337 -146 l 349 -146 b 473 -203 372 -178 413 -203 b 634 -1 578 -203 634 -121 z m 343 -99 l 343 96 b 435 125 373 117 403 125 b 541 -1 506 125 541 85 b 435 -128 541 -88 503 -128 b 343 -99 404 -128 373 -120 z "},"":{"ha":861,"x_min":0,"x_max":0,"o":"m 628 -74 l 541 -62 b 435 -132 526 -105 491 -132 b 320 -1 364 -132 320 -90 b 435 129 320 83 360 129 b 540 53 492 129 531 103 l 628 60 b 438 200 619 153 544 200 b 227 -1 316 200 227 137 b 433 -203 227 -133 310 -203 b 628 -74 523 -203 604 -167 z "},"":{"ha":861,"x_min":0,"x_max":0,"o":"m 227 -3 b 385 -203 227 -120 280 -203 b 513 -146 444 -203 485 -178 l 525 -146 l 531 -194 l 609 -194 l 609 367 l 518 367 l 518 142 l 513 142 b 389 200 488 174 449 200 b 227 -3 283 200 227 117 z m 320 -3 b 426 125 320 84 358 125 b 518 97 458 125 489 117 l 518 -99 b 426 -128 488 -120 458 -128 b 320 -3 356 -128 320 -88 z "},"":{"ha":861,"x_min":0,"x_max":0,"o":"m 632 310 l 632 387 b 538 398 603 394 572 398 b 350 208 416 398 350 346 l 350 191 l 224 191 l 224 118 l 350 118 l 350 -121 l 248 -121 l 248 -194 l 577 -194 l 577 -121 l 441 -121 l 441 118 l 618 118 l 618 191 l 441 191 l 441 226 b 542 320 441 301 474 320 b 632 310 574 320 601 316 z "},"":{"ha":861,"x_min":0,"x_max":0,"o":"m 227 19 b 385 -160 227 -87 285 -160 b 513 -103 444 -160 485 -135 l 518 -103 l 518 -182 b 419 -278 518 -255 477 -278 b 322 -220 370 -278 338 -260 l 239 -237 b 419 -341 254 -297 301 -341 b 609 -172 544 -341 609 -292 l 609 191 l 531 191 l 525 142 l 513 142 b 388 200 489 174 448 200 b 227 19 288 200 227 126 z m 320 19 b 426 125 320 87 360 125 b 518 97 458 125 489 117 l 518 -56 b 426 -85 489 -77 458 -85 b 320 19 358 -85 320 -48 z "},"":{"ha":861,"x_min":0,"x_max":0,"o":"m 227 -3 b 385 -203 227 -121 281 -203 b 513 -146 444 -203 485 -178 l 518 -146 l 518 -332 l 609 -332 l 609 191 l 531 191 l 525 142 l 513 142 b 389 200 489 174 449 200 b 227 -3 283 200 227 117 z m 320 -3 b 426 125 320 84 358 125 b 518 96 457 125 488 117 l 518 -99 b 426 -128 488 -119 458 -128 b 320 -3 356 -128 320 -88 z "},"ₐ":{"ha":861,"x_min":0,"x_max":0,"o":"m 419 200 b 247 88 295 200 247 153 l 247 68 l 330 68 l 330 83 b 412 138 330 124 365 138 b 493 74 460 138 493 124 l 493 22 b 233 -99 366 24 233 8 b 356 -203 233 -164 281 -203 b 490 -147 417 -203 459 -177 l 499 -147 b 572 -202 503 -178 520 -202 b 629 -194 590 -202 608 -200 l 629 -129 b 585 -101 594 -133 585 -126 l 585 78 b 419 200 585 168 521 200 z m 328 -87 b 461 -25 328 -44 378 -25 b 493 -27 470 -25 481 -26 l 493 -108 b 399 -137 465 -126 435 -137 b 328 -87 355 -137 328 -119 z "},"ₑ":{"ha":861,"x_min":0,"x_max":0,"o":"m 227 -1 b 435 -203 227 -134 313 -203 b 624 -91 524 -203 596 -169 l 535 -78 b 435 -132 517 -117 479 -132 b 320 -11 364 -132 324 -90 l 626 -11 l 626 25 b 439 200 626 142 557 200 b 227 -1 313 200 227 133 z m 324 44 b 436 129 338 103 378 129 b 537 44 494 129 537 103 z "},"ᵢ":{"ha":861,"x_min":0,"x_max":0,"o":"m 245 -194 l 616 -194 l 616 -121 l 476 -121 l 476 190 l 465 200 l 245 191 l 245 119 l 385 119 l 385 -121 l 245 -121 z m 415 269 b 478 326 452 269 478 291 b 415 383 478 361 452 383 b 351 326 377 383 351 361 b 415 269 351 291 377 269 z "},"ⱼ":{"ha":861,"x_min":0,"x_max":0,"o":"m 544 -161 l 544 190 l 533 200 l 265 191 l 265 119 l 453 119 l 453 -162 b 351 -270 453 -247 426 -270 b 245 -258 315 -270 281 -266 l 245 -335 b 355 -348 280 -344 317 -348 b 544 -161 495 -348 544 -309 z m 481 269 b 544 326 519 269 544 291 b 481 383 544 361 519 383 b 418 326 444 383 418 361 b 481 269 418 291 444 269 z "},"ₒ":{"ha":861,"x_min":0,"x_max":0,"o":"m 634 -3 b 431 200 634 135 542 200 b 227 -3 319 200 227 135 b 431 -203 227 -142 319 -203 b 634 -3 542 -203 634 -141 z m 541 -3 b 431 -132 541 -97 495 -132 b 320 -3 366 -132 320 -97 b 431 129 320 92 366 129 b 541 -3 495 129 541 92 z "},"ᵣ":{"ha":861,"x_min":0,"x_max":0,"o":"m 421 191 l 240 191 l 240 118 l 342 118 l 342 -121 l 240 -121 l 240 -194 l 569 -194 l 569 -121 l 434 -121 l 434 77 b 627 111 492 107 545 111 l 627 196 b 587 200 615 199 601 200 b 439 135 520 200 480 178 l 427 135 z "},"ₔ":{"ha":861,"x_min":0,"x_max":0,"o":"m 634 -2 b 426 200 634 131 549 200 b 238 88 338 200 266 166 l 326 75 b 426 129 344 115 382 129 b 542 8 497 129 538 87 l 236 8 l 236 -28 b 423 -203 236 -145 305 -203 b 634 -2 549 -203 634 -135 z m 325 -47 l 537 -47 b 425 -132 524 -106 483 -132 b 325 -47 367 -132 325 -106 z "},"ᵤ":{"ha":861,"x_min":0,"x_max":0,"o":"m 252 191 l 252 -89 b 367 -203 252 -169 295 -203 b 513 -137 434 -203 477 -175 l 524 -137 l 531 -194 l 609 -194 l 609 191 l 518 191 l 518 -84 b 410 -131 487 -114 451 -131 b 343 -65 373 -131 343 -117 l 343 191 z "},"ᵥ":{"ha":861,"x_min":0,"x_max":0,"o":"m 217 191 l 383 -194 l 478 -194 l 643 191 l 553 191 l 438 -85 l 432 -85 l 315 191 z "},"ₓ":{"ha":861,"x_min":0,"x_max":0,"o":"m 217 191 l 376 2 l 212 -194 l 317 -194 l 426 -56 l 542 -194 l 649 -194 l 485 0 l 644 191 l 542 191 l 436 58 l 324 191 z "},"ª":{"ha":861,"x_min":0,"x_max":0,"o":"m 419 1158 b 247 1046 295 1158 247 1112 l 247 1026 l 330 1026 l 330 1042 b 412 1097 330 1082 365 1097 b 493 1033 460 1097 493 1083 l 493 981 b 233 859 366 982 233 967 b 356 756 233 794 281 756 b 490 811 417 756 459 781 l 499 811 b 572 756 503 780 520 756 b 629 764 590 756 608 758 l 629 829 b 585 857 594 826 585 832 l 585 1037 b 419 1158 585 1126 521 1158 z m 328 871 b 461 933 328 914 378 933 b 493 931 470 933 481 933 l 493 851 b 399 821 465 833 435 821 b 328 871 355 821 328 839 z "},"º":{"ha":861,"x_min":0,"x_max":0,"o":"m 634 956 b 431 1158 634 1094 542 1158 b 227 956 319 1158 227 1094 b 431 756 227 817 319 756 b 634 956 542 756 634 817 z m 541 956 b 431 826 541 861 495 826 b 320 956 366 826 320 861 b 431 1088 320 1050 366 1088 b 541 956 495 1088 541 1050 z "},"ʰ":{"ha":861,"x_min":0,"x_max":0,"o":"m 343 764 l 343 1038 b 451 1086 372 1067 408 1086 b 518 1021 488 1086 518 1072 l 518 764 l 609 764 l 609 1044 b 496 1158 609 1125 567 1158 b 354 1093 430 1158 390 1131 l 343 1093 l 343 1326 l 252 1326 l 252 764 z "},"ⁱ":{"ha":861,"x_min":0,"x_max":0,"o":"m 245 764 l 616 764 l 616 838 l 476 838 l 476 1148 l 465 1158 l 245 1149 l 245 1077 l 385 1077 l 385 838 l 245 838 z m 415 1227 b 478 1285 452 1227 478 1249 b 415 1341 478 1319 452 1341 b 351 1285 377 1341 351 1319 b 415 1227 351 1249 377 1227 z "},"ʲ":{"ha":861,"x_min":0,"x_max":0,"o":"m 544 797 l 544 1148 l 533 1158 l 265 1149 l 265 1077 l 453 1077 l 453 796 b 351 688 453 712 426 688 b 245 700 315 688 281 692 l 245 623 b 355 610 280 615 317 610 b 544 797 495 610 544 649 z m 481 1227 b 544 1285 519 1227 544 1249 b 481 1341 544 1319 519 1341 b 418 1285 444 1341 418 1319 b 481 1227 418 1249 444 1227 z "},"ˡ":{"ha":861,"x_min":0,"x_max":0,"o":"m 245 764 l 616 764 l 616 838 l 476 838 l 476 1324 l 465 1335 l 245 1326 l 245 1253 l 385 1253 l 385 838 l 245 838 z "},"ⁿ":{"ha":861,"x_min":0,"x_max":0,"o":"m 609 764 l 609 1044 b 494 1158 609 1125 566 1158 b 349 1093 429 1158 386 1132 l 337 1093 l 331 1149 l 252 1149 l 252 764 l 343 764 l 343 1039 b 451 1086 373 1067 408 1086 b 518 1021 488 1086 518 1072 l 518 764 z "},"ʳ":{"ha":861,"x_min":0,"x_max":0,"o":"m 421 1149 l 240 1149 l 240 1076 l 342 1076 l 342 838 l 240 838 l 240 764 l 569 764 l 569 838 l 434 838 l 434 1035 b 627 1069 492 1065 545 1069 l 627 1154 b 587 1158 615 1157 601 1158 b 439 1093 520 1158 480 1137 l 427 1093 z "},"ˢ":{"ha":861,"x_min":0,"x_max":0,"o":"m 433 1158 b 250 1042 308 1158 250 1115 b 398 926 250 972 306 944 b 523 868 490 908 523 897 b 430 821 523 843 497 821 b 315 884 374 821 331 830 l 232 875 b 426 756 249 788 311 756 b 614 878 549 756 614 803 b 456 992 614 951 556 972 b 337 1050 369 1010 337 1021 b 426 1094 337 1079 371 1094 b 525 1037 491 1094 520 1074 l 607 1043 b 433 1158 607 1118 547 1158 z "},"ʷ":{"ha":861,"x_min":0,"x_max":0,"o":"m 198 1149 l 288 764 l 359 764 l 428 985 l 433 985 l 497 764 l 574 764 l 663 1149 l 581 1149 l 526 902 l 519 902 l 465 1099 l 406 1099 l 344 902 l 338 902 l 283 1149 z "},"ˣ":{"ha":861,"x_min":0,"x_max":0,"o":"m 217 1149 l 376 960 l 212 764 l 317 764 l 426 902 l 542 764 l 649 764 l 485 958 l 644 1149 l 542 1149 l 436 1017 l 324 1149 z "},"ʸ":{"ha":861,"x_min":0,"x_max":0,"o":"m 217 1149 l 394 768 l 389 754 b 288 697 377 722 351 697 b 235 702 267 697 252 699 l 235 622 b 285 617 250 619 268 617 b 491 781 398 617 450 681 l 646 1149 l 555 1149 l 445 881 l 440 881 l 315 1149 z "},"ℂ":{"ha":861,"x_min":0,"x_max":0,"o":"m 178 506 b 275 871 178 686 216 803 l 275 144 b 178 506 216 211 178 327 z m 85 506 b 450 -15 85 153 239 -15 b 774 313 643 -15 765 120 l 689 321 b 452 66 676 167 592 66 b 358 83 419 66 388 72 l 358 931 b 452 949 388 943 419 949 b 689 694 592 949 676 847 l 774 702 b 450 1030 765 894 643 1030 b 85 506 239 1030 85 861 z "},"ℕ":{"ha":861,"x_min":0,"x_max":0,"o":"m 132 0 l 215 0 l 215 599 l 608 0 l 729 0 l 729 1014 l 646 1014 l 646 415 l 253 1014 l 132 1014 z m 215 747 l 215 924 l 646 267 l 646 90 z "},"ℚ":{"ha":861,"x_min":0,"x_max":0,"o":"m 501 273 l 417 273 l 513 78 b 431 65 488 69 460 65 b 353 76 403 65 377 69 l 353 938 b 431 949 377 946 403 949 b 691 508 588 949 691 831 b 575 114 691 299 648 175 z m 785 508 b 431 1031 785 862 643 1031 b 76 508 218 1031 76 862 b 431 -16 76 153 218 -16 b 548 4 472 -16 512 -10 l 638 -176 l 728 -176 l 615 40 b 785 508 721 115 785 269 z m 170 508 b 270 886 170 701 207 822 l 270 128 b 170 508 207 194 170 315 z "},"ℝ":{"ha":861,"x_min":0,"x_max":0,"o":"m 399 490 l 392 490 l 392 938 l 419 938 b 676 726 597 938 676 881 b 399 490 676 585 610 490 z m 132 0 l 392 0 l 392 417 l 408 417 b 490 422 438 417 465 418 l 690 0 l 789 0 l 572 440 b 763 726 703 484 763 587 b 436 1014 763 928 639 1014 l 132 1014 z m 215 76 l 215 938 l 309 938 l 309 76 z "},"ℤ":{"ha":861,"x_min":0,"x_max":0,"o":"m 104 1014 l 104 931 l 473 931 l 104 83 l 104 0 l 757 0 l 757 83 l 388 83 l 757 931 l 757 1014 z m 197 83 l 565 931 l 665 931 l 297 83 z "},"ₕ":{"ha":861,"x_min":0,"x_max":0,"o":"m 343 -194 l 343 80 b 451 128 372 108 408 128 b 518 63 488 128 518 114 l 518 -194 l 609 -194 l 609 86 b 496 200 609 167 567 200 b 354 135 430 200 390 172 l 343 135 l 343 367 l 252 367 l 252 -194 z "},"ₖ":{"ha":861,"x_min":0,"x_max":0,"o":"m 343 -194 l 343 -25 l 402 -25 l 549 -194 l 656 -194 l 483 6 l 483 10 l 643 191 l 542 191 l 416 47 l 343 47 l 343 367 l 252 367 l 252 -194 z "},"ₗ":{"ha":861,"x_min":0,"x_max":0,"o":"m 245 -194 l 616 -194 l 616 -121 l 476 -121 l 476 365 l 465 376 l 245 367 l 245 295 l 385 295 l 385 -121 l 245 -121 z "},"ₘ":{"ha":861,"x_min":0,"x_max":0,"o":"m 471 -194 l 471 104 b 515 124 484 116 499 124 b 544 92 530 124 544 117 l 544 -194 l 624 -194 l 624 124 b 559 199 624 176 600 199 b 473 140 515 199 488 170 l 470 140 b 406 199 465 181 443 199 b 319 140 362 199 333 170 l 311 140 l 306 191 l 238 191 l 238 -194 l 318 -194 l 318 104 b 362 124 331 115 345 124 b 390 92 376 124 390 117 l 390 -194 z "},"ₙ":{"ha":861,"x_min":0,"x_max":0,"o":"m 609 -194 l 609 86 b 494 200 609 167 566 200 b 349 135 429 200 386 174 l 337 135 l 331 191 l 252 191 l 252 -194 l 343 -194 l 343 81 b 451 128 373 109 408 128 b 518 63 488 128 518 114 l 518 -194 z "},"ₚ":{"ha":861,"x_min":0,"x_max":0,"o":"m 634 -1 b 476 200 634 117 581 200 b 348 142 417 200 376 174 l 336 142 l 331 191 l 252 191 l 252 -332 l 343 -332 l 343 -146 l 349 -146 b 473 -203 372 -178 413 -203 b 634 -1 578 -203 634 -121 z m 343 -99 l 343 96 b 435 125 373 117 403 125 b 541 -1 506 125 541 85 b 435 -128 541 -88 503 -128 b 343 -99 404 -128 373 -120 z "},"ₛ":{"ha":861,"x_min":0,"x_max":0,"o":"m 433 200 b 250 84 308 200 250 156 b 398 -33 250 14 306 -14 b 523 -90 490 -51 523 -61 b 430 -137 523 -115 497 -137 b 315 -74 374 -137 331 -128 l 232 -83 b 426 -203 249 -170 311 -203 b 614 -80 549 -203 614 -155 b 456 34 614 -7 556 14 b 337 92 369 52 337 63 b 426 135 337 121 371 135 b 525 78 491 135 520 116 l 607 85 b 433 200 607 160 547 200 z "},"ₜ":{"ha":861,"x_min":0,"x_max":0,"o":"m 509 -203 b 614 -191 546 -203 583 -199 l 614 -114 b 519 -126 583 -122 550 -126 b 427 -36 452 -126 427 -109 l 427 118 l 604 118 l 604 191 l 427 191 l 427 303 l 336 303 l 336 191 l 224 191 l 224 118 l 336 118 l 336 -37 b 509 -203 336 -171 386 -203 z "},"ᴬ":{"ha":861,"x_min":0,"x_max":0,"o":"m 623 764 l 479 1149 l 381 1149 l 239 764 l 331 764 l 359 842 l 498 842 l 527 764 z m 379 899 l 425 1024 l 430 1024 l 477 899 z "},"ᴮ":{"ha":861,"x_min":0,"x_max":0,"o":"m 281 764 l 436 764 b 613 878 540 764 613 804 b 483 966 613 941 551 965 l 483 969 b 590 1065 532 973 590 1002 b 436 1149 590 1138 525 1150 l 281 1149 z m 373 826 l 373 932 l 412 932 b 519 881 477 932 519 922 b 412 826 519 838 476 826 z m 373 991 l 373 1088 l 412 1088 b 499 1042 471 1088 499 1074 b 405 991 499 1009 466 991 z "},"ᴰ":{"ha":861,"x_min":0,"x_max":0,"o":"m 276 764 l 404 764 b 607 955 526 764 607 803 b 404 1149 607 1107 526 1149 l 276 1149 z m 513 955 b 404 833 513 864 483 833 l 368 833 l 368 1080 l 404 1080 b 513 955 483 1080 513 1046 z "},"ᴱ":{"ha":861,"x_min":0,"x_max":0,"o":"m 276 764 l 583 764 l 583 838 l 368 838 l 368 921 l 542 921 l 542 990 l 368 990 l 368 1076 l 583 1076 l 583 1149 l 276 1149 z "},"ᴳ":{"ha":861,"x_min":0,"x_max":0,"o":"m 443 974 l 443 905 l 516 905 l 516 894 b 440 831 516 847 485 831 b 350 959 379 831 350 865 b 439 1078 350 1046 380 1078 b 513 1033 481 1078 504 1064 l 599 1040 b 438 1156 585 1124 526 1156 b 256 957 324 1156 256 1098 b 438 758 256 815 324 758 b 601 908 526 758 601 794 l 601 974 z "},"ᴴ":{"ha":861,"x_min":0,"x_max":0,"o":"m 368 764 l 368 919 l 494 919 l 494 764 l 585 764 l 585 1149 l 494 1149 l 494 992 l 368 992 l 368 1149 l 276 1149 l 276 764 z "},"ᴵ":{"ha":861,"x_min":0,"x_max":0,"o":"m 279 764 l 583 764 l 583 838 l 477 838 l 477 1076 l 583 1076 l 583 1149 l 279 1149 l 279 1076 l 385 1076 l 385 838 l 279 838 z "},"ᴶ":{"ha":861,"x_min":0,"x_max":0,"o":"m 273 920 l 274 869 b 417 758 276 797 324 758 b 580 894 527 758 580 797 l 580 1149 l 297 1149 l 297 1076 l 488 1076 l 488 888 b 422 833 488 849 465 833 b 358 879 381 833 359 851 l 357 920 z "},"ᴷ":{"ha":861,"x_min":0,"x_max":0,"o":"m 368 764 l 368 918 l 406 918 l 515 764 l 615 764 l 482 956 l 482 962 l 610 1149 l 514 1149 l 415 992 l 368 992 l 368 1149 l 276 1149 l 276 764 z "},"ᴸ":{"ha":861,"x_min":0,"x_max":0,"o":"m 287 764 l 594 764 l 594 838 l 378 838 l 378 1149 l 287 1149 z "},"ᴹ":{"ha":861,"x_min":0,"x_max":0,"o":"m 266 1149 l 266 764 l 338 764 l 338 1017 l 341 1017 l 419 862 l 439 862 l 518 1017 l 523 1017 l 523 764 l 595 764 l 595 1149 l 517 1149 l 433 987 l 430 987 l 349 1149 z "},"ᴺ":{"ha":861,"x_min":0,"x_max":0,"o":"m 498 764 l 585 764 l 585 1149 l 511 1149 l 511 902 l 502 902 l 365 1149 l 276 1149 l 276 764 l 351 764 l 351 1007 l 360 1007 z "},"ᴼ":{"ha":861,"x_min":0,"x_max":0,"o":"m 607 957 b 431 1156 607 1099 542 1156 b 255 957 320 1156 255 1099 b 431 758 255 822 320 758 b 607 957 542 758 607 822 z m 513 957 b 431 834 513 864 488 834 b 349 957 375 834 349 864 b 431 1080 349 1050 375 1080 b 513 957 488 1080 513 1050 z "},"ᴾ":{"ha":861,"x_min":0,"x_max":0,"o":"m 373 764 l 373 893 l 400 893 b 604 1026 544 893 604 946 b 446 1149 604 1108 540 1149 l 281 1149 l 281 764 z m 412 960 l 373 960 l 373 1085 l 419 1085 b 510 1026 481 1085 510 1067 b 412 960 510 987 487 960 z "},"ᴿ":{"ha":861,"x_min":0,"x_max":0,"o":"m 373 764 l 373 912 l 409 912 l 426 912 l 510 764 l 618 764 l 516 926 b 601 1033 572 945 601 981 b 443 1149 601 1106 539 1149 l 281 1149 l 281 764 z m 410 978 l 373 978 l 373 1085 l 415 1085 b 506 1033 478 1085 506 1069 b 410 978 506 1000 485 978 z "},"ᵀ":{"ha":861,"x_min":0,"x_max":0,"o":"m 477 764 l 477 1076 l 596 1076 l 596 1149 l 266 1149 l 266 1076 l 385 1076 l 385 764 z "},"ᵁ":{"ha":861,"x_min":0,"x_max":0,"o":"m 431 833 b 365 901 381 833 365 858 l 365 1149 l 273 1149 l 273 901 b 431 758 273 807 326 758 b 590 901 535 758 590 807 l 590 1149 l 498 1149 l 498 901 b 431 833 498 858 481 833 z "},"ᵂ":{"ha":861,"x_min":0,"x_max":0,"o":"m 241 1149 l 309 764 l 377 764 l 428 963 l 432 963 l 479 764 l 553 764 l 621 1149 l 539 1149 l 502 936 l 497 936 l 460 1088 l 410 1088 l 367 936 l 361 936 l 326 1149 z "},"ᵃ":{"ha":861,"x_min":0,"x_max":0,"o":"m 419 1158 b 247 1046 295 1158 247 1112 l 247 1026 l 330 1026 l 330 1042 b 412 1097 330 1082 365 1097 b 493 1033 460 1097 493 1083 l 493 981 b 233 859 366 982 233 967 b 356 756 233 794 281 756 b 490 811 417 756 459 781 l 499 811 b 572 756 503 780 520 756 b 629 764 590 756 608 758 l 629 829 b 585 857 594 826 585 832 l 585 1037 b 419 1158 585 1126 521 1158 z m 328 871 b 461 933 328 914 378 933 b 493 931 470 933 481 933 l 493 851 b 399 821 465 833 435 821 b 328 871 355 821 328 839 z "},"ᵇ":{"ha":861,"x_min":0,"x_max":0,"o":"m 634 958 b 476 1158 634 1076 581 1158 b 348 1101 417 1158 376 1133 l 343 1101 l 343 1326 l 252 1326 l 252 764 l 331 764 l 337 813 l 349 813 b 473 756 372 781 413 756 b 634 958 578 756 634 838 z m 343 859 l 343 1054 b 435 1083 373 1075 403 1083 b 541 958 506 1083 541 1043 b 435 830 541 870 503 830 b 343 859 404 830 373 838 z "},"ᶜ":{"ha":861,"x_min":0,"x_max":0,"o":"m 628 884 l 541 896 b 435 826 526 853 491 826 b 320 957 364 826 320 869 b 435 1088 320 1042 360 1088 b 540 1011 492 1088 531 1061 l 628 1019 b 438 1158 619 1111 544 1158 b 227 957 316 1158 227 1095 b 433 756 227 825 310 756 b 628 884 523 756 604 791 z "},"ᵈ":{"ha":861,"x_min":0,"x_max":0,"o":"m 227 956 b 385 755 227 838 280 755 b 513 813 444 755 485 781 l 525 813 l 531 764 l 609 764 l 609 1326 l 518 1326 l 518 1101 l 513 1101 b 389 1158 488 1133 449 1158 b 227 956 283 1158 227 1076 z m 320 956 b 426 1083 320 1042 358 1083 b 518 1055 458 1083 489 1075 l 518 859 b 426 830 488 838 458 830 b 320 956 356 830 320 870 z "},"ᵉ":{"ha":861,"x_min":0,"x_max":0,"o":"m 227 958 b 435 756 227 824 313 756 b 624 867 524 756 596 790 l 535 881 b 435 826 517 841 479 826 b 320 947 364 826 324 869 l 626 947 l 626 983 b 439 1158 626 1101 557 1158 b 227 958 313 1158 227 1091 z m 324 1003 b 436 1088 338 1061 378 1088 b 537 1003 494 1088 537 1061 z "},"ᶠ":{"ha":861,"x_min":0,"x_max":0,"o":"m 632 1268 l 632 1345 b 538 1356 603 1352 572 1356 b 350 1167 416 1356 350 1304 l 350 1149 l 224 1149 l 224 1076 l 350 1076 l 350 838 l 248 838 l 248 764 l 577 764 l 577 838 l 441 838 l 441 1076 l 618 1076 l 618 1149 l 441 1149 l 441 1184 b 542 1278 441 1260 474 1278 b 632 1268 574 1278 601 1274 z "},"ᵍ":{"ha":861,"x_min":0,"x_max":0,"o":"m 227 977 b 385 798 227 871 285 798 b 513 855 444 798 485 824 l 518 855 l 518 776 b 419 681 518 703 477 681 b 322 738 370 681 338 698 l 239 721 b 419 617 254 662 301 617 b 609 786 544 617 609 666 l 609 1149 l 531 1149 l 525 1101 l 513 1101 b 388 1158 489 1132 448 1158 b 227 977 288 1158 227 1085 z m 320 977 b 426 1083 320 1045 360 1083 b 518 1055 458 1083 489 1075 l 518 902 b 426 873 489 881 458 873 b 320 977 358 873 320 910 z "},"ᵏ":{"ha":861,"x_min":0,"x_max":0,"o":"m 343 764 l 343 933 l 402 933 l 549 764 l 656 764 l 483 964 l 483 969 l 643 1149 l 542 1149 l 416 1005 l 343 1005 l 343 1326 l 252 1326 l 252 764 z "},"ᵐ":{"ha":861,"x_min":0,"x_max":0,"o":"m 471 764 l 471 1063 b 515 1082 484 1074 499 1082 b 544 1051 530 1082 544 1075 l 544 764 l 624 764 l 624 1082 b 559 1158 624 1134 600 1158 b 473 1098 515 1158 488 1128 l 470 1098 b 406 1158 465 1139 443 1158 b 319 1098 362 1158 333 1128 l 311 1098 l 306 1149 l 238 1149 l 238 764 l 318 764 l 318 1063 b 362 1082 331 1074 345 1082 b 390 1051 376 1082 390 1075 l 390 764 z "},"ᵒ":{"ha":861,"x_min":0,"x_max":0,"o":"m 634 956 b 431 1158 634 1094 542 1158 b 227 956 319 1158 227 1094 b 431 756 227 817 319 756 b 634 956 542 756 634 817 z m 541 956 b 431 826 541 861 495 826 b 320 956 366 826 320 861 b 431 1088 320 1050 366 1088 b 541 956 495 1088 541 1050 z "},"ᵖ":{"ha":861,"x_min":0,"x_max":0,"o":"m 634 958 b 476 1158 634 1076 581 1158 b 348 1101 417 1158 376 1133 l 336 1101 l 331 1149 l 252 1149 l 252 626 l 343 626 l 343 813 l 349 813 b 473 756 372 781 413 756 b 634 958 578 756 634 838 z m 343 859 l 343 1054 b 435 1083 373 1075 403 1083 b 541 958 506 1083 541 1043 b 435 830 541 870 503 830 b 343 859 404 830 373 838 z "},"ᵗ":{"ha":861,"x_min":0,"x_max":0,"o":"m 509 755 b 614 767 546 755 583 759 l 614 844 b 519 833 583 837 550 833 b 427 922 452 833 427 849 l 427 1076 l 604 1076 l 604 1149 l 427 1149 l 427 1262 l 336 1262 l 336 1149 l 224 1149 l 224 1076 l 336 1076 l 336 921 b 509 755 336 788 386 755 z "},"ᵘ":{"ha":861,"x_min":0,"x_max":0,"o":"m 252 1149 l 252 869 b 367 756 252 789 295 756 b 513 821 434 756 477 783 l 524 821 l 531 764 l 609 764 l 609 1149 l 518 1149 l 518 874 b 410 828 487 844 451 828 b 343 893 373 828 343 842 l 343 1149 z "},"ᵛ":{"ha":861,"x_min":0,"x_max":0,"o":"m 217 1149 l 383 764 l 478 764 l 643 1149 l 553 1149 l 438 873 l 432 873 l 315 1149 z "},"ᶻ":{"ha":861,"x_min":0,"x_max":0,"o":"m 249 1149 l 249 1076 l 474 1076 l 249 818 l 249 764 l 613 764 l 613 838 l 374 838 l 599 1096 l 599 1149 z "},"⓿":{"ha":861,"x_min":0,"x_max":0,"o":"m 431 86 b 13 507 201 86 13 252 b 431 928 13 762 201 928 b 848 507 660 928 848 762 b 431 86 848 252 660 86 z m 607 506 b 431 705 607 648 543 705 b 254 506 319 705 254 648 b 431 306 254 371 319 306 b 607 506 543 306 607 371 z m 513 506 b 431 382 513 412 489 382 b 349 506 373 382 349 412 b 431 628 349 599 373 628 b 513 506 489 628 513 599 z "},"❶":{"ha":861,"x_min":0,"x_max":0,"o":"m 431 86 b 13 507 201 86 13 252 b 431 928 13 762 201 928 b 848 507 660 928 848 762 b 431 86 848 252 660 86 z m 297 642 l 297 551 b 396 592 331 551 367 568 l 396 385 l 285 385 l 285 313 l 596 313 l 596 385 l 487 385 l 487 698 l 396 698 b 297 642 385 663 330 642 z "},"❷":{"ha":861,"x_min":0,"x_max":0,"o":"m 431 86 b 13 507 201 86 13 252 b 431 928 13 762 201 928 b 848 507 660 928 848 762 b 431 86 848 252 660 86 z m 425 704 b 268 585 324 704 265 658 l 351 576 b 428 635 356 620 381 635 b 492 590 469 635 492 623 b 406 515 492 549 449 535 b 269 385 330 482 269 449 l 269 313 l 593 313 l 593 385 l 356 385 b 444 453 361 413 386 426 b 582 594 503 480 582 509 b 425 704 582 672 517 704 z "},"❸":{"ha":861,"x_min":0,"x_max":0,"o":"m 431 86 b 13 507 201 86 13 252 b 431 928 13 762 201 928 b 848 507 660 928 848 762 b 431 86 848 252 660 86 z m 433 704 b 273 588 326 704 273 661 l 353 579 b 431 635 360 622 386 635 b 503 590 477 635 503 622 b 405 531 503 553 472 531 l 385 531 l 385 472 l 404 472 b 508 424 476 472 508 456 b 431 377 508 394 487 377 b 344 431 378 377 353 392 l 261 422 b 431 306 262 335 326 306 b 600 420 532 306 600 339 b 518 507 600 474 565 497 b 590 599 558 521 590 549 b 433 704 590 669 532 704 z "},"❹":{"ha":861,"x_min":0,"x_max":0,"o":"m 431 86 b 13 507 201 86 13 252 b 431 928 13 762 201 928 b 848 507 660 928 848 762 b 431 86 848 252 660 86 z m 538 313 l 538 400 l 591 400 l 591 473 l 538 473 l 538 698 l 442 698 l 243 473 l 243 400 l 450 400 l 450 313 z m 329 466 l 450 595 l 450 466 z "},"❺":{"ha":861,"x_min":0,"x_max":0,"o":"m 431 86 b 13 507 201 86 13 252 b 431 928 13 762 201 928 b 848 507 660 928 848 762 b 431 86 848 252 660 86 z m 301 698 l 270 489 l 350 479 b 430 506 370 497 400 506 b 510 443 486 506 510 481 b 428 378 510 397 481 378 b 347 430 385 378 354 390 l 261 422 b 429 307 262 338 331 307 b 600 442 534 307 600 349 b 453 562 600 522 544 562 b 358 542 413 562 384 554 l 372 625 l 577 625 l 577 698 z "},"❻":{"ha":861,"x_min":0,"x_max":0,"o":"m 431 86 b 13 507 201 86 13 252 b 431 928 13 762 201 928 b 848 507 660 928 848 762 b 431 86 848 252 660 86 z m 438 704 b 255 506 328 704 255 654 b 431 307 255 355 329 307 b 599 435 533 307 599 347 b 467 546 599 519 541 546 b 349 509 415 546 377 528 b 436 635 351 608 381 635 b 506 588 478 635 501 622 l 589 596 b 438 704 583 669 530 704 z m 351 460 b 441 487 375 475 406 487 b 509 435 483 487 509 470 b 431 378 509 397 479 378 b 351 460 388 378 359 397 z "},"❼":{"ha":861,"x_min":0,"x_max":0,"o":"m 431 86 b 13 507 201 86 13 252 b 431 928 13 762 201 928 b 848 507 660 928 848 762 b 431 86 848 252 660 86 z m 271 696 l 271 622 l 489 622 l 347 310 l 438 310 l 590 646 l 590 696 z "},"❽":{"ha":861,"x_min":0,"x_max":0,"o":"m 431 86 b 13 507 201 86 13 252 b 431 928 13 762 201 928 b 848 507 660 928 848 762 b 431 86 848 252 660 86 z m 431 704 b 271 597 335 704 271 667 b 337 506 271 559 296 528 b 257 415 289 488 257 460 b 430 307 257 341 314 307 b 605 421 542 307 605 344 b 524 515 605 465 572 494 b 591 601 561 531 591 558 b 431 704 591 668 525 705 z m 344 424 b 400 483 344 456 372 471 b 511 419 458 465 511 449 b 433 375 511 392 482 375 b 344 424 389 375 344 384 z m 358 597 b 429 638 358 628 385 638 b 510 594 477 638 510 626 b 444 540 510 561 476 549 b 358 597 388 556 358 574 z "},"❾":{"ha":861,"x_min":0,"x_max":0,"o":"m 431 86 b 13 507 201 86 13 252 b 431 928 13 762 201 928 b 848 507 660 928 848 762 b 431 86 848 252 660 86 z m 423 307 b 606 505 532 307 606 357 b 430 704 606 656 531 704 b 262 576 328 704 262 664 b 394 465 262 492 320 465 b 511 501 446 465 483 482 b 424 376 509 403 479 376 b 355 424 382 376 360 390 l 272 415 b 423 307 278 342 331 307 z m 351 576 b 429 633 351 614 382 633 b 509 550 472 633 502 614 b 419 524 485 536 455 524 b 351 576 378 524 351 540 z "},"⓪":{"ha":861,"x_min":0,"x_max":0,"o":"m 431 86 b 848 507 660 86 848 252 b 431 928 848 762 660 928 b 13 507 201 928 13 762 b 431 86 13 252 201 86 z m 431 158 b 85 507 238 158 85 297 b 431 857 85 717 238 857 b 777 507 624 857 777 717 b 431 158 777 297 624 158 z m 607 506 b 431 705 607 648 543 705 b 254 506 319 705 254 648 b 431 306 254 371 319 306 b 607 506 543 306 607 371 z m 513 506 b 431 382 513 412 489 382 b 349 506 373 382 349 412 b 431 628 349 599 373 628 b 513 506 489 628 513 599 z "},"①":{"ha":861,"x_min":0,"x_max":0,"o":"m 431 86 b 848 507 660 86 848 252 b 431 928 848 762 660 928 b 13 507 201 928 13 762 b 431 86 13 252 201 86 z m 431 158 b 85 507 238 158 85 297 b 431 857 85 717 238 857 b 777 507 624 857 777 717 b 431 158 777 297 624 158 z m 297 642 l 297 551 b 396 592 331 551 367 568 l 396 385 l 285 385 l 285 313 l 596 313 l 596 385 l 487 385 l 487 698 l 396 698 b 297 642 385 663 330 642 z "},"②":{"ha":861,"x_min":0,"x_max":0,"o":"m 431 86 b 848 507 660 86 848 252 b 431 928 848 762 660 928 b 13 507 201 928 13 762 b 431 86 13 252 201 86 z m 431 158 b 85 507 238 158 85 297 b 431 857 85 717 238 857 b 777 507 624 857 777 717 b 431 158 777 297 624 158 z m 425 704 b 268 585 324 704 265 658 l 351 576 b 428 635 356 620 381 635 b 492 590 469 635 492 623 b 406 515 492 549 449 535 b 269 385 330 482 269 449 l 269 313 l 593 313 l 593 385 l 356 385 b 444 453 361 413 386 426 b 582 594 503 480 582 509 b 425 704 582 672 517 704 z "},"③":{"ha":861,"x_min":0,"x_max":0,"o":"m 431 86 b 848 507 660 86 848 252 b 431 928 848 762 660 928 b 13 507 201 928 13 762 b 431 86 13 252 201 86 z m 431 158 b 85 507 238 158 85 297 b 431 857 85 717 238 857 b 777 507 624 857 777 717 b 431 158 777 297 624 158 z m 433 704 b 273 588 326 704 273 661 l 353 579 b 431 635 360 622 386 635 b 503 590 477 635 503 622 b 405 531 503 553 472 531 l 385 531 l 385 472 l 404 472 b 508 424 476 472 508 456 b 431 377 508 394 487 377 b 344 431 378 377 353 392 l 261 422 b 431 306 262 335 326 306 b 600 420 532 306 600 339 b 518 507 600 474 565 497 b 590 599 558 521 590 549 b 433 704 590 669 532 704 z "},"④":{"ha":861,"x_min":0,"x_max":0,"o":"m 431 86 b 848 507 660 86 848 252 b 431 928 848 762 660 928 b 13 507 201 928 13 762 b 431 86 13 252 201 86 z m 431 158 b 85 507 238 158 85 297 b 431 857 85 717 238 857 b 777 507 624 857 777 717 b 431 158 777 297 624 158 z m 538 313 l 538 400 l 591 400 l 591 473 l 538 473 l 538 698 l 442 698 l 243 473 l 243 400 l 450 400 l 450 313 z m 329 466 l 450 595 l 450 466 z "},"⑤":{"ha":861,"x_min":0,"x_max":0,"o":"m 431 86 b 848 507 660 86 848 252 b 431 928 848 762 660 928 b 13 507 201 928 13 762 b 431 86 13 252 201 86 z m 431 158 b 85 507 238 158 85 297 b 431 857 85 717 238 857 b 777 507 624 857 777 717 b 431 158 777 297 624 158 z m 301 698 l 270 489 l 350 479 b 430 506 370 497 400 506 b 510 443 486 506 510 481 b 428 378 510 397 481 378 b 347 430 385 378 354 390 l 261 422 b 429 307 262 338 331 307 b 600 442 534 307 600 349 b 453 562 600 522 544 562 b 358 542 413 562 384 554 l 372 625 l 577 625 l 577 698 z "},"⑥":{"ha":861,"x_min":0,"x_max":0,"o":"m 431 86 b 848 507 660 86 848 252 b 431 928 848 762 660 928 b 13 507 201 928 13 762 b 431 86 13 252 201 86 z m 431 158 b 85 507 238 158 85 297 b 431 857 85 717 238 857 b 777 507 624 857 777 717 b 431 158 777 297 624 158 z m 438 704 b 255 506 328 704 255 654 b 431 307 255 355 329 307 b 599 435 533 307 599 347 b 467 546 599 519 541 546 b 349 509 415 546 377 528 b 436 635 351 608 381 635 b 506 588 478 635 501 622 l 589 596 b 438 704 583 669 530 704 z m 351 460 b 441 487 375 475 406 487 b 509 435 483 487 509 470 b 431 378 509 397 479 378 b 351 460 388 378 359 397 z "},"⑦":{"ha":861,"x_min":0,"x_max":0,"o":"m 431 86 b 848 507 660 86 848 252 b 431 928 848 762 660 928 b 13 507 201 928 13 762 b 431 86 13 252 201 86 z m 431 158 b 85 507 238 158 85 297 b 431 857 85 717 238 857 b 777 507 624 857 777 717 b 431 158 777 297 624 158 z m 271 696 l 271 622 l 489 622 l 347 310 l 438 310 l 590 646 l 590 696 z "},"⑧":{"ha":861,"x_min":0,"x_max":0,"o":"m 431 86 b 848 507 660 86 848 252 b 431 928 848 762 660 928 b 13 507 201 928 13 762 b 431 86 13 252 201 86 z m 431 158 b 85 507 238 158 85 297 b 431 857 85 717 238 857 b 777 507 624 857 777 717 b 431 158 777 297 624 158 z m 431 704 b 271 597 335 704 271 667 b 337 506 271 559 296 528 b 257 415 289 488 257 460 b 430 307 257 341 314 307 b 605 421 542 307 605 344 b 524 515 605 465 572 494 b 591 601 561 531 591 558 b 431 704 591 668 525 705 z m 344 424 b 400 483 344 456 372 471 b 511 419 458 465 511 449 b 433 375 511 392 482 375 b 344 424 389 375 344 384 z m 358 597 b 429 638 358 628 385 638 b 510 594 477 638 510 626 b 444 540 510 561 476 549 b 358 597 388 556 358 574 z "},"⑨":{"ha":861,"x_min":0,"x_max":0,"o":"m 431 86 b 848 507 660 86 848 252 b 431 928 848 762 660 928 b 13 507 201 928 13 762 b 431 86 13 252 201 86 z m 431 158 b 85 507 238 158 85 297 b 431 857 85 717 238 857 b 777 507 624 857 777 717 b 431 158 777 297 624 158 z m 423 307 b 606 505 532 307 606 357 b 430 704 606 656 531 704 b 262 576 328 704 262 664 b 394 465 262 492 320 465 b 511 501 446 465 483 482 b 424 376 509 403 479 376 b 355 424 382 376 360 390 l 272 415 b 423 307 278 342 331 307 z m 351 576 b 429 633 351 614 382 633 b 509 550 472 633 502 614 b 419 524 485 536 455 524 b 351 576 378 524 351 540 z "},"⑴":{"ha":861,"x_min":0,"x_max":0,"o":"m 97 507 b 257 863 97 663 167 767 l 179 863 b 13 507 99 792 13 676 b 179 152 13 337 99 223 l 257 152 b 97 507 167 248 97 351 z m 765 507 b 605 152 765 351 695 248 l 682 152 b 848 507 763 223 848 337 b 682 863 848 676 763 792 l 605 863 b 765 507 695 767 765 663 z m 297 642 l 297 551 b 396 592 331 551 367 568 l 396 385 l 285 385 l 285 313 l 596 313 l 596 385 l 487 385 l 487 698 l 396 698 b 297 642 385 663 330 642 z "},"⑵":{"ha":861,"x_min":0,"x_max":0,"o":"m 97 507 b 257 863 97 663 167 767 l 179 863 b 13 507 99 792 13 676 b 179 152 13 337 99 223 l 257 152 b 97 507 167 248 97 351 z m 765 507 b 605 152 765 351 695 248 l 682 152 b 848 507 763 223 848 337 b 682 863 848 676 763 792 l 605 863 b 765 507 695 767 765 663 z m 425 704 b 268 585 324 704 265 658 l 351 576 b 428 635 356 620 381 635 b 492 590 469 635 492 623 b 406 515 492 549 449 535 b 269 385 330 482 269 449 l 269 313 l 593 313 l 593 385 l 356 385 b 444 453 361 413 386 426 b 582 594 503 480 582 509 b 425 704 582 672 517 704 z "},"⑶":{"ha":861,"x_min":0,"x_max":0,"o":"m 97 507 b 257 863 97 663 167 767 l 179 863 b 13 507 99 792 13 676 b 179 152 13 337 99 223 l 257 152 b 97 507 167 248 97 351 z m 765 507 b 605 152 765 351 695 248 l 682 152 b 848 507 763 223 848 337 b 682 863 848 676 763 792 l 605 863 b 765 507 695 767 765 663 z m 433 704 b 273 588 326 704 273 661 l 353 579 b 431 635 360 622 386 635 b 503 590 477 635 503 622 b 405 531 503 553 472 531 l 385 531 l 385 472 l 404 472 b 508 424 476 472 508 456 b 431 377 508 394 487 377 b 344 431 378 377 353 392 l 261 422 b 431 306 262 335 326 306 b 600 420 532 306 600 339 b 518 507 600 474 565 497 b 590 599 558 521 590 549 b 433 704 590 669 532 704 z "},"⑷":{"ha":861,"x_min":0,"x_max":0,"o":"m 97 507 b 257 863 97 663 167 767 l 179 863 b 13 507 99 792 13 676 b 179 152 13 337 99 223 l 257 152 b 97 507 167 248 97 351 z m 765 507 b 605 152 765 351 695 248 l 682 152 b 848 507 763 223 848 337 b 682 863 848 676 763 792 l 605 863 b 765 507 695 767 765 663 z m 538 313 l 538 400 l 591 400 l 591 473 l 538 473 l 538 698 l 442 698 l 243 473 l 243 400 l 450 400 l 450 313 z m 329 466 l 450 595 l 450 466 z "},"⑸":{"ha":861,"x_min":0,"x_max":0,"o":"m 97 507 b 257 863 97 663 167 767 l 179 863 b 13 507 99 792 13 676 b 179 152 13 337 99 223 l 257 152 b 97 507 167 248 97 351 z m 765 507 b 605 152 765 351 695 248 l 682 152 b 848 507 763 223 848 337 b 682 863 848 676 763 792 l 605 863 b 765 507 695 767 765 663 z m 301 698 l 270 489 l 350 479 b 430 506 370 497 400 506 b 510 443 486 506 510 481 b 428 378 510 397 481 378 b 347 430 385 378 354 390 l 261 422 b 429 307 262 338 331 307 b 600 442 534 307 600 349 b 453 562 600 522 544 562 b 358 542 413 562 384 554 l 372 625 l 577 625 l 577 698 z "},"⑹":{"ha":861,"x_min":0,"x_max":0,"o":"m 97 507 b 257 863 97 663 167 767 l 179 863 b 13 507 99 792 13 676 b 179 152 13 337 99 223 l 257 152 b 97 507 167 248 97 351 z m 765 507 b 605 152 765 351 695 248 l 682 152 b 848 507 763 223 848 337 b 682 863 848 676 763 792 l 605 863 b 765 507 695 767 765 663 z m 438 704 b 255 506 328 704 255 654 b 431 307 255 355 329 307 b 599 435 533 307 599 347 b 467 546 599 519 541 546 b 349 509 415 546 377 528 b 436 635 351 608 381 635 b 506 588 478 635 501 622 l 589 596 b 438 704 583 669 530 704 z m 351 460 b 441 487 375 475 406 487 b 509 435 483 487 509 470 b 431 378 509 397 479 378 b 351 460 388 378 359 397 z "},"⑺":{"ha":861,"x_min":0,"x_max":0,"o":"m 97 507 b 257 863 97 663 167 767 l 179 863 b 13 507 99 792 13 676 b 179 152 13 337 99 223 l 257 152 b 97 507 167 248 97 351 z m 765 507 b 605 152 765 351 695 248 l 682 152 b 848 507 763 223 848 337 b 682 863 848 676 763 792 l 605 863 b 765 507 695 767 765 663 z m 271 696 l 271 622 l 489 622 l 347 310 l 438 310 l 590 646 l 590 696 z "},"⑻":{"ha":861,"x_min":0,"x_max":0,"o":"m 97 507 b 257 863 97 663 167 767 l 179 863 b 13 507 99 792 13 676 b 179 152 13 337 99 223 l 257 152 b 97 507 167 248 97 351 z m 765 507 b 605 152 765 351 695 248 l 682 152 b 848 507 763 223 848 337 b 682 863 848 676 763 792 l 605 863 b 765 507 695 767 765 663 z m 431 704 b 271 597 335 704 271 667 b 337 506 271 559 296 528 b 257 415 289 488 257 460 b 430 307 257 341 314 307 b 605 421 542 307 605 344 b 524 515 605 465 572 494 b 591 601 561 531 591 558 b 431 704 591 668 525 705 z m 344 424 b 400 483 344 456 372 471 b 511 419 458 465 511 449 b 433 375 511 392 482 375 b 344 424 389 375 344 384 z m 358 597 b 429 638 358 628 385 638 b 510 594 477 638 510 626 b 444 540 510 561 476 549 b 358 597 388 556 358 574 z "},"⑼":{"ha":861,"x_min":0,"x_max":0,"o":"m 97 507 b 257 863 97 663 167 767 l 179 863 b 13 507 99 792 13 676 b 179 152 13 337 99 223 l 257 152 b 97 507 167 248 97 351 z m 765 507 b 605 152 765 351 695 248 l 682 152 b 848 507 763 223 848 337 b 682 863 848 676 763 792 l 605 863 b 765 507 695 767 765 663 z m 423 307 b 606 505 532 307 606 357 b 430 704 606 656 531 704 b 262 576 328 704 262 664 b 394 465 262 492 320 465 b 511 501 446 465 483 482 b 424 376 509 403 479 376 b 355 424 382 376 360 390 l 272 415 b 423 307 278 342 331 307 z m 351 576 b 429 633 351 614 382 633 b 509 550 472 633 502 614 b 419 524 485 536 455 524 b 351 576 378 524 351 540 z "},"⁄":{"ha":861,"x_min":0,"x_max":0,"o":"m 669 793 l 126 285 l 193 215 l 736 723 z "},"½":{"ha":861,"x_min":0,"x_max":0,"o":"m 70 958 l 70 867 b 169 908 105 867 140 884 l 169 701 l 59 701 l 59 628 l 369 628 l 369 701 l 260 701 l 260 1014 l 169 1014 b 70 958 159 978 103 958 z m 694 793 l 151 285 l 218 215 l 761 723 z m 652 392 b 495 272 551 392 492 346 l 578 264 b 656 323 583 308 608 323 b 719 277 697 323 719 310 b 633 203 719 237 676 223 b 496 73 557 169 496 137 l 496 0 l 820 0 l 820 73 l 582 73 b 672 141 588 100 613 114 b 809 282 730 167 809 197 b 652 392 809 359 744 392 z "},"⅓":{"ha":861,"x_min":0,"x_max":0,"o":"m 70 958 l 70 867 b 169 908 105 867 140 884 l 169 701 l 59 701 l 59 628 l 369 628 l 369 701 l 260 701 l 260 1014 l 169 1014 b 70 958 159 978 103 958 z m 694 793 l 151 285 l 218 215 l 761 723 z m 656 392 b 496 275 549 392 496 349 l 576 267 b 653 323 583 310 609 323 b 726 277 700 323 726 309 b 628 219 726 241 694 219 l 608 219 l 608 160 l 627 160 b 731 111 699 160 731 143 b 654 65 731 82 710 65 b 567 118 601 65 576 79 l 484 109 b 653 -6 485 23 549 -6 b 823 108 755 -6 823 26 b 740 194 823 162 787 185 b 813 286 780 208 813 235 b 656 392 813 356 755 392 z "},"⅔":{"ha":861,"x_min":0,"x_max":0,"o":"m 222 1020 b 65 901 121 1020 62 974 l 148 892 b 225 951 152 936 178 951 b 288 906 266 951 288 939 b 202 831 288 865 245 851 b 65 701 126 798 65 765 l 65 628 l 390 628 l 390 701 l 151 701 b 241 769 157 728 182 742 b 378 910 299 796 378 825 b 222 1020 378 988 314 1020 z m 694 793 l 151 285 l 218 215 l 761 723 z m 656 392 b 496 275 549 392 496 349 l 576 267 b 653 323 583 310 609 323 b 726 277 700 323 726 309 b 628 219 726 241 694 219 l 608 219 l 608 160 l 627 160 b 731 111 699 160 731 143 b 654 65 731 82 710 65 b 567 118 601 65 576 79 l 484 109 b 653 -6 485 23 549 -6 b 823 108 755 -6 823 26 b 740 194 823 162 787 185 b 813 286 780 208 813 235 b 656 392 813 356 755 392 z "},"¼":{"ha":861,"x_min":0,"x_max":0,"o":"m 70 958 l 70 867 b 169 908 105 867 140 884 l 169 701 l 59 701 l 59 628 l 369 628 l 369 701 l 260 701 l 260 1014 l 169 1014 b 70 958 159 978 103 958 z m 701 793 l 158 285 l 225 215 l 768 723 z m 734 0 l 734 88 l 787 88 l 787 160 l 734 160 l 734 385 l 639 385 l 439 160 l 439 88 l 646 88 l 646 0 z m 526 153 l 646 283 l 646 153 z "},"¾":{"ha":861,"x_min":0,"x_max":0,"o":"m 223 1020 b 63 903 117 1020 63 977 l 144 895 b 221 951 151 938 176 951 b 293 906 267 951 293 938 b 195 847 293 869 262 847 l 176 847 l 176 788 l 194 788 b 298 740 267 788 298 772 b 222 693 298 710 277 693 b 135 747 168 693 143 708 l 51 738 b 221 622 52 651 116 622 b 390 736 322 622 390 655 b 307 823 390 790 354 813 b 381 915 347 836 381 864 b 223 1020 381 985 322 1020 z m 701 793 l 158 285 l 225 215 l 768 723 z m 734 0 l 734 88 l 787 88 l 787 160 l 734 160 l 734 385 l 639 385 l 439 160 l 439 88 l 646 88 l 646 0 z m 526 153 l 646 283 l 646 153 z "},"⅛":{"ha":861,"x_min":0,"x_max":0,"o":"m 70 958 l 70 867 b 169 908 105 867 140 884 l 169 701 l 59 701 l 59 628 l 369 628 l 369 701 l 260 701 l 260 1014 l 169 1014 b 70 958 159 978 103 958 z m 694 793 l 151 285 l 218 215 l 761 723 z m 649 392 b 489 285 553 392 489 355 b 556 193 489 246 515 215 b 475 102 509 175 475 148 b 648 -6 475 28 532 -6 b 823 108 760 -6 823 31 b 742 202 823 153 788 182 b 810 288 779 218 810 244 b 649 392 810 356 743 392 z m 563 112 b 617 169 563 142 590 158 b 729 106 680 152 729 135 b 651 63 729 80 701 63 b 563 112 608 63 563 72 z m 576 285 b 647 326 576 315 603 326 b 728 282 696 326 728 313 b 665 227 728 249 695 237 b 576 285 608 242 576 261 z "},"⅜":{"ha":861,"x_min":0,"x_max":0,"o":"m 223 1020 b 63 903 117 1020 63 977 l 144 895 b 221 951 151 938 176 951 b 293 906 267 951 293 938 b 195 847 293 869 262 847 l 176 847 l 176 788 l 194 788 b 298 740 267 788 298 772 b 222 693 298 710 277 693 b 135 747 168 693 143 708 l 51 738 b 221 622 52 651 116 622 b 390 736 322 622 390 655 b 307 823 390 790 354 813 b 381 915 347 836 381 864 b 223 1020 381 985 322 1020 z m 694 793 l 151 285 l 218 215 l 761 723 z m 649 392 b 489 285 553 392 489 355 b 556 193 489 246 515 215 b 475 102 509 175 475 148 b 648 -6 475 28 532 -6 b 823 108 760 -6 823 31 b 742 202 823 153 788 182 b 810 288 779 218 810 244 b 649 392 810 356 743 392 z m 563 112 b 617 169 563 142 590 158 b 729 106 680 152 729 135 b 651 63 729 80 701 63 b 563 112 608 63 563 72 z m 576 285 b 647 326 576 315 603 326 b 728 282 696 326 728 313 b 665 227 728 249 695 237 b 576 285 608 242 576 261 z "},"⅝":{"ha":861,"x_min":0,"x_max":0,"o":"m 98 1014 l 67 805 l 147 795 b 227 822 167 813 197 822 b 308 759 283 822 308 797 b 226 694 308 713 278 694 b 144 746 182 694 151 706 l 58 738 b 226 623 59 653 128 623 b 397 758 331 623 397 665 b 250 878 397 838 341 878 b 154 858 210 878 181 870 l 169 941 l 374 941 l 374 1014 z m 694 793 l 151 285 l 218 215 l 761 723 z m 649 392 b 489 285 553 392 489 355 b 556 193 489 246 515 215 b 475 102 509 175 475 148 b 648 -6 475 28 532 -6 b 823 108 760 -6 823 31 b 742 202 823 153 788 182 b 810 288 779 218 810 244 b 649 392 810 356 743 392 z m 563 112 b 617 169 563 142 590 158 b 729 106 680 152 729 135 b 651 63 729 80 701 63 b 563 112 608 63 563 72 z m 576 285 b 647 326 576 315 603 326 b 728 282 696 326 728 313 b 665 227 728 249 695 237 b 576 285 608 242 576 261 z "},"⅞":{"ha":861,"x_min":0,"x_max":0,"o":"m 115 1012 l 115 938 l 333 938 l 190 626 l 282 626 l 434 962 l 434 1012 z m 674 793 l 131 285 l 197 215 l 740 723 z m 649 392 b 489 285 553 392 489 355 b 556 193 489 246 515 215 b 475 102 509 175 475 148 b 648 -6 475 28 532 -6 b 823 108 760 -6 823 31 b 742 202 823 153 788 182 b 810 288 779 218 810 244 b 649 392 810 356 743 392 z m 563 112 b 617 169 563 142 590 158 b 729 106 680 152 729 135 b 651 63 729 80 701 63 b 563 112 608 63 563 72 z m 576 285 b 647 326 576 315 603 326 b 728 282 696 326 728 313 b 665 227 728 249 695 237 b 576 285 608 242 576 261 z "},"₀":{"ha":861,"x_min":0,"x_max":0,"o":"m 607 -1 b 431 198 607 141 543 198 b 254 -1 319 198 254 141 b 431 -201 254 -136 319 -201 b 607 -1 543 -201 607 -136 z m 513 -1 b 431 -125 513 -95 489 -125 b 349 -1 373 -125 349 -95 b 431 122 349 92 373 122 b 513 -1 489 122 513 92 z m 431 -45 b 392 -4 406 -45 392 -29 b 431 37 392 22 406 37 b 469 -4 456 37 469 22 b 431 -45 469 -30 456 -45 z "},"₁":{"ha":861,"x_min":0,"x_max":0,"o":"m 296 135 l 296 44 b 395 85 331 44 366 61 l 395 -122 l 285 -122 l 285 -194 l 595 -194 l 595 -122 l 486 -122 l 486 191 l 395 191 b 296 135 385 156 329 135 z "},"₂":{"ha":861,"x_min":0,"x_max":0,"o":"m 415 197 b 258 78 314 197 255 151 l 341 69 b 418 128 345 113 371 128 b 481 83 459 128 481 116 b 395 8 481 42 438 28 b 258 -122 319 -25 258 -58 l 258 -194 l 583 -194 l 583 -122 l 344 -122 b 434 -53 350 -94 375 -81 b 572 88 492 -27 572 2 b 415 197 572 165 507 197 z "},"₃":{"ha":861,"x_min":0,"x_max":0,"o":"m 421 197 b 261 81 315 197 261 154 l 342 72 b 419 128 349 115 374 128 b 491 83 465 128 491 115 b 393 24 491 47 460 24 l 374 24 l 374 -35 l 392 -35 b 496 -83 465 -35 496 -51 b 419 -130 496 -112 475 -130 b 333 -76 366 -130 341 -115 l 249 -85 b 419 -201 250 -172 314 -201 b 588 -87 520 -201 588 -168 b 505 0 588 -33 552 -10 b 578 92 545 13 578 41 b 421 197 578 162 520 197 z "},"₄":{"ha":861,"x_min":0,"x_max":0,"o":"m 546 -194 l 546 -107 l 599 -107 l 599 -34 l 546 -34 l 546 191 l 451 191 l 251 -34 l 251 -107 l 458 -107 l 458 -194 z m 338 -41 l 458 88 l 458 -41 z "},"₅":{"ha":861,"x_min":0,"x_max":0,"o":"m 296 191 l 265 -18 l 345 -28 b 425 -1 365 -10 395 -1 b 506 -64 481 -1 506 -26 b 424 -129 506 -110 476 -129 b 342 -77 380 -129 349 -117 l 256 -85 b 424 -200 257 -169 326 -200 b 595 -65 529 -200 595 -158 b 448 55 595 15 539 55 b 352 35 408 55 378 47 l 367 118 l 572 118 l 572 191 z "},"₆":{"ha":861,"x_min":0,"x_max":0,"o":"m 442 197 b 259 -1 333 197 259 147 b 435 -200 259 -152 333 -200 b 603 -72 537 -200 603 -160 b 471 39 603 12 545 39 b 353 2 419 39 381 22 b 440 128 356 100 385 128 b 510 81 482 128 505 115 l 593 89 b 442 197 587 162 534 197 z m 356 -45 b 445 -20 379 -31 410 -20 b 513 -72 487 -20 513 -37 b 435 -129 513 -110 483 -129 b 356 -45 392 -129 363 -110 z "},"₇":{"ha":861,"x_min":0,"x_max":0,"o":"m 274 189 l 274 115 l 492 115 l 349 -197 l 441 -197 l 593 139 l 593 189 z "},"₈":{"ha":861,"x_min":0,"x_max":0,"o":"m 431 197 b 270 90 335 197 270 160 b 337 -1 270 51 297 20 b 256 -92 290 -19 256 -47 b 429 -200 256 -166 313 -200 b 604 -86 542 -200 604 -163 b 523 8 604 -41 569 -12 b 591 94 560 24 591 50 b 431 197 591 161 524 198 z m 344 -83 b 399 -25 344 -52 371 -37 b 510 -88 461 -42 510 -59 b 433 -132 510 -115 482 -132 b 344 -83 389 -132 344 -123 z m 358 90 b 428 131 358 121 384 131 b 510 88 477 131 510 119 b 446 33 510 55 476 42 b 358 90 390 48 358 67 z "},"₉":{"ha":861,"x_min":0,"x_max":0,"o":"m 420 -200 b 603 -2 529 -200 603 -150 b 427 197 603 149 528 197 b 259 69 325 197 259 157 b 392 -42 259 -15 317 -42 b 508 -6 443 -42 481 -26 b 422 -131 506 -103 476 -131 b 352 -83 379 -131 357 -117 l 269 -92 b 420 -200 275 -165 328 -200 z m 349 69 b 426 126 349 107 379 126 b 507 42 470 126 499 107 b 417 17 483 28 452 17 b 349 69 375 17 349 33 z "},"⁰":{"ha":861,"x_min":0,"x_max":0,"o":"m 607 957 b 431 1156 607 1099 543 1156 b 254 957 319 1156 254 1099 b 431 758 254 822 319 758 b 607 957 543 758 607 822 z m 513 957 b 431 833 513 863 489 833 b 349 957 373 833 349 863 b 431 1080 349 1050 373 1080 b 513 957 489 1080 513 1050 z m 431 913 b 392 954 406 913 392 929 b 431 995 392 980 406 995 b 469 954 456 995 469 981 b 431 913 469 928 456 913 z "},"¹":{"ha":861,"x_min":0,"x_max":0,"o":"m 296 1094 l 296 1003 b 395 1043 331 1003 366 1019 l 395 837 l 285 837 l 285 764 l 595 764 l 595 837 l 486 837 l 486 1149 l 395 1149 b 296 1094 385 1114 329 1094 z "},"²":{"ha":861,"x_min":0,"x_max":0,"o":"m 415 1156 b 258 1036 314 1156 255 1110 l 341 1028 b 418 1087 345 1072 371 1087 b 481 1041 459 1087 481 1074 b 395 967 481 1001 438 987 b 258 837 319 933 258 901 l 258 764 l 583 764 l 583 837 l 344 837 b 434 905 350 864 375 878 b 572 1046 492 931 572 960 b 415 1156 572 1123 507 1156 z "},"³":{"ha":861,"x_min":0,"x_max":0,"o":"m 421 1156 b 261 1039 315 1156 261 1113 l 342 1031 b 419 1087 349 1074 374 1087 b 491 1041 465 1087 491 1073 b 393 983 491 1005 460 983 l 374 983 l 374 924 l 392 924 b 496 875 465 924 496 907 b 419 828 496 846 475 828 b 333 882 366 828 341 843 l 249 873 b 419 758 250 787 314 758 b 588 872 520 758 588 790 b 505 958 588 926 552 949 b 578 1050 545 972 578 999 b 421 1156 578 1120 520 1156 z "},"⁴":{"ha":861,"x_min":0,"x_max":0,"o":"m 546 764 l 546 851 l 599 851 l 599 924 l 546 924 l 546 1149 l 451 1149 l 251 924 l 251 851 l 458 851 l 458 764 z m 338 917 l 458 1047 l 458 917 z "},"⁵":{"ha":861,"x_min":0,"x_max":0,"o":"m 296 1149 l 265 940 l 345 931 b 425 958 365 948 395 958 b 506 894 481 958 506 933 b 424 829 506 848 476 829 b 342 881 380 829 349 842 l 256 873 b 424 758 257 789 326 758 b 595 893 529 758 595 800 b 448 1013 595 974 539 1013 b 352 994 408 1013 378 1006 l 367 1076 l 572 1076 l 572 1149 z "},"⁶":{"ha":861,"x_min":0,"x_max":0,"o":"m 442 1156 b 259 958 333 1156 259 1106 b 435 758 259 806 333 758 b 603 886 537 758 603 798 b 471 997 603 970 545 997 b 353 960 419 997 381 981 b 440 1087 356 1058 385 1087 b 510 1039 482 1087 505 1074 l 593 1047 b 442 1156 587 1120 534 1156 z m 356 913 b 445 938 379 927 410 938 b 513 887 487 938 513 922 b 435 829 513 849 483 829 b 356 913 392 829 363 848 z "},"⁷":{"ha":861,"x_min":0,"x_max":0,"o":"m 274 1147 l 274 1074 l 492 1074 l 349 762 l 441 762 l 593 1097 l 593 1147 z "},"⁸":{"ha":861,"x_min":0,"x_max":0,"o":"m 431 1156 b 270 1049 335 1156 270 1119 b 337 957 270 1010 297 978 b 256 866 290 939 256 912 b 429 758 256 792 313 758 b 604 872 542 758 604 795 b 523 966 604 917 569 946 b 591 1052 560 982 591 1008 b 431 1156 591 1119 524 1156 z m 344 876 b 399 933 344 906 371 922 b 510 870 461 916 510 899 b 433 826 510 844 482 826 b 344 876 389 826 344 835 z m 358 1049 b 428 1090 358 1079 384 1090 b 510 1046 477 1090 510 1077 b 446 991 510 1013 476 1001 b 358 1049 390 1006 358 1025 z "},"⁹":{"ha":861,"x_min":0,"x_max":0,"o":"m 420 758 b 603 956 529 758 603 808 b 427 1156 603 1107 528 1156 b 259 1028 325 1156 259 1115 b 392 916 259 944 317 916 b 508 952 443 916 481 933 b 422 827 506 855 476 827 b 352 875 379 827 357 841 l 269 867 b 420 758 275 794 328 758 z m 349 1027 b 426 1085 349 1065 379 1085 b 507 1001 470 1085 499 1065 b 417 975 483 987 452 975 b 349 1027 375 975 349 992 z "}," ":{"ha":861,"x_min":0,"x_max":0,"o":""}," ":{"ha":861,"x_min":0,"x_max":0,"o":""},"⁤":{"ha":861,"x_min":0,"x_max":0,"o":""},"⁣":{"ha":861,"x_min":0,"x_max":0,"o":""},"⁢":{"ha":861,"x_min":0,"x_max":0,"o":""},"⟦":{"ha":861,"x_min":0,"x_max":0,"o":"m 227 -278 l 703 -278 l 703 -208 l 506 -208 l 506 1043 l 703 1043 l 703 1113 l 227 1113 z m 315 -208 l 315 1043 l 419 1043 l 419 -208 z "},"⟧":{"ha":861,"x_min":0,"x_max":0,"o":"m 634 -278 l 158 -278 l 158 -208 l 442 -208 l 442 -233 l 355 -233 l 355 1067 l 442 1067 l 442 1043 l 158 1043 l 158 1113 l 634 1113 z m 442 -208 l 547 -208 l 547 1043 l 442 1043 z "},"⟨":{"ha":861,"x_min":0,"x_max":0,"o":"m 681 1062 l 547 1126 l 181 418 l 547 -290 l 681 -226 l 343 418 z "},"⟩":{"ha":861,"x_min":0,"x_max":0,"o":"m 181 1062 l 519 418 l 181 -226 l 314 -290 l 680 418 l 314 1126 z "},"⟪":{"ha":861,"x_min":0,"x_max":0,"o":"m 538 1113 l 394 1113 l 66 417 l 394 -278 l 538 -278 l 210 417 z m 795 1113 l 652 1113 l 324 417 l 652 -278 l 795 -278 l 468 417 z "},"⟫":{"ha":861,"x_min":0,"x_max":0,"o":"m 324 1113 l 651 417 l 324 -278 l 467 -278 l 795 417 l 467 1113 z m 66 1113 l 393 417 l 66 -278 l 210 -278 l 538 417 l 210 1113 z "},".":{"ha":861,"x_min":0,"x_max":0,"o":"m 431 -25 b 568 109 507 -25 568 26 b 431 242 568 193 507 242 b 293 109 355 242 293 193 b 431 -25 293 26 355 -25 z "},",":{"ha":861,"x_min":0,"x_max":0,"o":"m 431 -26 b 463 -23 442 -26 452 -25 b 274 -255 438 -106 369 -181 l 349 -316 b 583 62 471 -229 583 -97 b 430 242 583 186 515 242 b 291 109 351 242 291 193 b 431 -26 291 26 350 -26 z "},":":{"ha":861,"x_min":0,"x_max":0,"o":"m 433 -21 b 571 113 509 -21 571 30 b 433 247 571 197 509 247 b 296 113 358 247 296 197 b 433 -21 296 30 358 -21 z m 433 518 b 571 652 509 518 571 569 b 433 785 571 736 509 785 b 296 652 358 785 296 736 b 433 518 296 569 358 518 z "},";":{"ha":861,"x_min":0,"x_max":0,"o":"m 431 -26 b 463 -23 442 -26 452 -25 b 274 -255 438 -106 369 -181 l 349 -316 b 583 62 471 -229 583 -97 b 430 242 583 186 515 242 b 291 109 351 242 291 193 b 431 -26 291 26 350 -26 z m 432 518 b 569 652 508 518 569 569 b 432 785 569 736 508 785 b 294 652 356 785 294 736 b 432 518 294 569 356 518 z "},"…":{"ha":861,"x_min":0,"x_max":0,"o":"m 150 -17 b 249 82 205 -17 249 20 b 150 181 249 144 205 181 b 51 82 95 181 51 144 b 150 -17 51 20 95 -17 z m 433 -17 b 531 82 487 -17 531 20 b 433 181 531 144 487 181 b 333 82 377 181 333 144 b 433 -17 333 20 377 -17 z m 715 -17 b 814 82 769 -17 814 20 b 715 181 814 144 769 181 b 615 82 660 181 615 144 b 715 -17 615 20 660 -17 z "},"!":{"ha":861,"x_min":0,"x_max":0,"o":"m 497 415 l 513 1014 l 349 1014 l 365 415 z m 433 -18 b 551 95 498 -18 551 25 b 433 207 551 166 498 207 b 315 95 367 207 315 166 b 433 -18 315 25 367 -18 z "},"¡":{"ha":861,"x_min":0,"x_max":0,"o":"m 364 309 l 349 -291 l 512 -291 l 496 309 z m 428 741 b 310 628 363 741 310 698 b 428 516 310 557 363 516 b 547 628 493 516 547 557 b 428 741 547 698 493 741 z "},"?":{"ha":861,"x_min":0,"x_max":0,"o":"m 433 -18 b 551 95 498 -18 551 25 b 433 207 551 166 498 207 b 315 95 367 207 315 166 b 433 -18 315 25 367 -18 z m 86 746 l 234 732 b 413 902 244 853 306 902 b 574 756 514 902 574 860 b 361 556 574 632 488 587 l 365 397 l 497 397 l 499 504 b 732 765 617 531 732 594 b 415 1031 732 944 605 1031 b 86 746 220 1031 88 942 z "},"¿":{"ha":861,"x_min":0,"x_max":0,"o":"m 428 741 b 310 628 363 741 310 698 b 428 516 310 557 363 516 b 547 628 493 516 547 557 b 428 741 547 698 493 741 z m 129 -41 b 447 -307 129 -220 256 -307 b 775 -23 641 -307 774 -219 l 627 -8 b 448 -179 617 -131 556 -179 b 287 -33 347 -179 287 -137 b 500 168 287 91 373 137 l 496 326 l 364 326 l 362 219 b 129 -41 244 193 129 129 z "},"·":{"ha":861,"x_min":0,"x_max":0,"o":"m 431 324 b 568 458 507 324 568 375 b 431 592 568 542 507 592 b 293 458 355 592 293 542 b 431 324 293 375 355 324 z "},"•":{"ha":861,"x_min":0,"x_max":0,"o":"m 434 272 b 625 458 540 272 625 342 b 434 644 625 576 540 644 b 242 458 328 644 242 576 b 434 272 242 342 328 272 z "},"*":{"ha":861,"x_min":0,"x_max":0,"o":"m 62 497 l 333 428 l 153 212 l 279 120 l 431 360 l 582 120 l 708 212 l 528 428 l 800 497 l 751 644 l 491 542 l 509 822 l 353 822 l 371 542 l 110 644 z "},"﹡":{"ha":861,"x_min":0,"x_max":0,"o":"m 228 457 l 360 429 l 268 336 l 367 262 l 431 376 l 495 262 l 594 336 l 501 428 l 633 457 l 596 574 l 475 511 l 493 649 l 369 649 l 386 511 l 266 574 z "},"⁅":{"ha":861,"x_min":0,"x_max":0,"o":"m 238 -278 l 703 -278 l 703 -160 l 389 -160 l 389 358 l 703 358 l 703 476 l 389 476 l 389 994 l 703 994 l 703 1113 l 238 1113 z "},"⁆":{"ha":861,"x_min":0,"x_max":0,"o":"m 550 476 l 550 358 l 473 358 l 473 476 z m 624 -278 l 158 -278 l 158 -160 l 473 -160 l 473 358 l 158 358 l 158 476 l 473 476 l 473 994 l 158 994 l 158 1113 l 624 1113 z "},"⁀":{"ha":861,"x_min":0,"x_max":0,"o":"m 13 1117 l -43 1178 b 431 1378 69 1299 223 1378 b 904 1178 639 1378 792 1299 l 849 1117 b 431 1253 745 1202 611 1253 b 13 1117 251 1253 117 1202 z "},"‖":{"ha":861,"x_min":0,"x_max":0,"o":"m 344 -278 l 344 1113 l 206 1113 l 206 -278 z m 656 -278 l 656 1113 l 517 1113 l 517 -278 z "},"⁉":{"ha":861,"x_min":0,"x_max":0,"o":"m 209 415 l 224 1014 l 61 1014 l 76 415 z m 144 -18 b 263 95 210 -18 263 25 b 144 207 263 166 210 207 b 26 95 79 207 26 166 b 144 -18 26 25 79 -18 z m 588 -18 b 706 95 653 -18 706 25 b 588 207 706 166 653 207 b 469 95 523 207 469 166 b 588 -18 469 25 523 -18 z m 309 746 l 453 732 b 570 902 460 860 498 902 b 678 763 641 902 678 861 b 517 556 678 646 616 587 l 520 397 l 653 397 l 655 509 b 832 771 745 540 832 613 b 570 1031 832 944 736 1031 b 309 746 416 1031 310 942 z "},"‼":{"ha":861,"x_min":0,"x_max":0,"o":"m 281 415 l 295 1014 l 133 1014 l 148 415 z m 216 -18 b 334 95 281 -18 334 25 b 216 207 334 166 281 207 b 97 95 151 207 97 166 b 216 -18 97 25 151 -18 z m 710 415 l 725 1014 l 563 1014 l 578 415 z m 646 -18 b 764 95 711 -18 764 25 b 646 207 764 166 711 207 b 527 95 581 207 527 166 b 646 -18 527 25 581 -18 z "},"‽":{"ha":861,"x_min":0,"x_max":0,"o":"m 497 397 l 500 503 b 746 763 622 528 746 589 b 423 1031 746 944 617 1031 b 83 746 220 1031 90 938 l 229 732 b 422 902 245 851 300 902 b 588 751 533 902 588 857 b 503 599 588 672 556 627 l 508 776 l 354 776 l 365 397 z m 433 -18 b 551 95 498 -18 551 25 b 433 207 551 166 498 207 b 315 95 367 207 315 166 b 433 -18 315 25 367 -18 z "},"⸘":{"ha":861,"x_min":0,"x_max":0,"o":"m 364 326 l 361 221 b 115 -40 240 196 115 134 b 438 -307 115 -220 244 -307 b 778 -23 641 -307 772 -215 l 632 -8 b 440 -179 616 -128 561 -179 b 274 -28 328 -179 274 -134 b 358 124 274 52 305 96 l 353 -53 l 507 -53 l 496 326 z m 428 741 b 310 628 363 741 310 698 b 428 516 310 557 363 516 b 547 628 493 516 547 557 b 428 741 547 698 493 741 z "},"#":{"ha":861,"x_min":0,"x_max":0,"o":"m 276 -139 l 306 152 l 497 152 l 467 -139 l 601 -139 l 631 152 l 774 152 l 774 285 l 644 285 l 676 591 l 818 591 l 818 723 l 690 723 l 719 1014 l 585 1014 l 555 723 l 365 723 l 394 1014 l 260 1014 l 231 723 l 88 723 l 88 591 l 217 591 l 185 285 l 44 285 l 44 152 l 172 152 l 142 -139 z m 319 285 l 351 591 l 542 591 l 510 285 z "},"․":{"ha":861,"x_min":0,"x_max":0,"o":"m 431 -25 b 568 109 507 -25 568 26 b 431 242 568 193 507 242 b 293 109 355 242 293 193 b 431 -25 293 26 355 -25 z "},"‾":{"ha":861,"x_min":0,"x_max":0,"o":"m 63 1313 l 799 1313 l 799 1222 l 63 1222 z "},"⁇":{"ha":861,"x_min":0,"x_max":0,"o":"m 227 -18 b 328 95 288 -18 328 25 b 227 208 328 166 288 208 b 125 95 166 208 125 166 b 227 -18 125 25 166 -18 z m 658 -18 b 759 95 718 -18 759 25 b 658 208 759 166 718 208 b 556 95 597 208 556 166 b 658 -18 556 25 597 -18 z m 27 746 l 144 732 b 212 915 141 874 158 915 b 279 775 265 915 279 880 b 160 563 279 665 242 603 l 164 397 l 287 397 l 290 540 b 405 783 357 578 405 649 b 215 1031 405 949 349 1031 b 27 746 90 1031 19 949 z m 458 746 l 574 732 b 642 915 572 874 588 915 b 710 775 696 915 710 880 b 591 563 710 665 672 603 l 594 397 l 717 397 l 720 540 b 835 783 788 578 835 649 b 646 1031 835 949 779 1031 b 458 746 520 1031 450 949 z "},"⁈":{"ha":861,"x_min":0,"x_max":0,"o":"m 782 415 l 797 1014 l 634 1014 l 649 415 z m 717 -18 b 835 95 783 -18 835 25 b 717 207 835 166 783 207 b 599 95 652 207 599 166 b 717 -18 599 25 652 -18 z m 297 -18 b 415 95 363 -18 415 25 b 297 207 415 166 363 207 b 178 95 232 207 178 166 b 297 -18 178 25 232 -18 z m 18 746 l 163 732 b 279 902 169 860 207 902 b 387 763 350 902 387 861 b 226 556 387 646 325 587 l 229 397 l 362 397 l 364 509 b 541 771 454 540 541 613 b 279 1031 541 944 445 1031 b 18 746 125 1031 19 942 z "},"/":{"ha":861,"x_min":0,"x_max":0,"o":"m 267 -139 l 729 1014 l 565 1014 l 103 -139 z "},"\\":{"ha":861,"x_min":0,"x_max":0,"o":"m 594 -139 l 759 -139 l 297 1014 l 132 1014 z "},"‣":{"ha":861,"x_min":0,"x_max":0,"o":"m 243 701 l 243 214 l 669 458 z "},"‿":{"ha":861,"x_min":0,"x_max":0,"o":"m 13 -54 l -43 -115 b 431 -316 69 -237 223 -316 b 904 -115 639 -316 792 -237 l 849 -54 b 431 -191 745 -139 611 -191 b 13 -54 251 -191 117 -139 z "},"-":{"ha":861,"x_min":0,"x_max":0,"o":"m 208 392 l 653 392 l 653 524 l 208 524 z "},"­":{"ha":861,"x_min":0,"x_max":0,"o":"m 208 392 l 653 392 l 653 524 l 208 524 z "},"–":{"ha":861,"x_min":0,"x_max":0,"o":"m 111 392 l 750 392 l 750 524 l 111 524 z "},"—":{"ha":861,"x_min":0,"x_max":0,"o":"m 14 392 l 847 392 l 847 524 l 14 524 z "},"‒":{"ha":861,"x_min":0,"x_max":0,"o":"m 208 392 l 653 392 l 653 524 l 208 524 z "},"―":{"ha":861,"x_min":0,"x_max":0,"o":"m -7 392 l 868 392 l 868 524 l -7 524 z "},"‐":{"ha":861,"x_min":0,"x_max":0,"o":"m 208 392 l 653 392 l 653 524 l 208 524 z "},"_":{"ha":861,"x_min":0,"x_max":0,"o":"m 63 -250 l 799 -250 l 799 -160 l 63 -160 z "},"‗":{"ha":861,"x_min":0,"x_max":0,"o":"m 63 -222 l 799 -222 l 799 -139 l 63 -139 z m 63 -410 l 799 -410 l 799 -326 l 63 -326 z "},"₍":{"ha":861,"x_min":0,"x_max":0,"o":"m 474 0 b 619 278 474 127 534 201 l 522 278 b 368 0 459 233 368 152 b 522 -278 368 -151 459 -232 l 619 -278 b 474 0 537 -202 474 -129 z "},"₎":{"ha":861,"x_min":0,"x_max":0,"o":"m 388 0 b 242 278 388 127 328 201 l 339 278 b 493 0 403 233 493 152 b 339 -278 493 -151 403 -232 l 242 -278 b 388 0 325 -202 388 -129 z "},"(":{"ha":861,"x_min":0,"x_max":0,"o":"m 395 417 b 739 1113 395 762 552 946 l 596 1113 b 242 417 429 983 242 785 b 596 -278 242 49 429 -149 l 739 -278 b 395 417 552 -110 395 73 z "},")":{"ha":861,"x_min":0,"x_max":0,"o":"m 467 417 b 122 -278 467 73 310 -110 l 266 -278 b 620 417 432 -149 620 50 b 266 1113 620 786 432 983 l 122 1113 b 467 417 310 946 467 762 z "},"{":{"ha":861,"x_min":0,"x_max":0,"o":"m 88 344 b 360 80 331 340 405 253 l 348 32 b 582 -278 297 -168 379 -278 l 774 -278 l 774 -160 l 643 -160 b 503 58 522 -160 467 -108 l 515 108 b 297 418 553 281 475 389 b 515 728 475 447 553 554 l 503 777 b 643 995 467 944 522 995 l 774 995 l 774 1113 l 582 1113 b 348 803 379 1113 297 1003 l 360 756 b 88 491 405 581 331 495 z "},"}":{"ha":861,"x_min":0,"x_max":0,"o":"m 88 -278 l 279 -278 b 513 32 483 -278 565 -168 l 501 80 b 774 344 456 253 530 340 l 774 491 b 501 756 530 495 457 581 l 513 803 b 279 1113 565 1003 483 1113 l 88 1113 l 88 995 l 219 995 b 358 777 340 995 394 944 l 347 728 b 565 417 308 554 386 447 b 347 108 387 389 309 281 l 358 58 b 219 -160 394 -108 340 -160 l 88 -160 z "},"[":{"ha":861,"x_min":0,"x_max":0,"o":"m 238 -278 l 703 -278 l 703 -160 l 389 -160 l 389 994 l 703 994 l 703 1113 l 238 1113 z "},"]":{"ha":861,"x_min":0,"x_max":0,"o":"m 624 -278 l 624 1113 l 158 1113 l 158 994 l 473 994 l 473 -160 l 158 -160 l 158 -278 z "},"〈":{"ha":861,"x_min":0,"x_max":0,"o":"m 826 1062 l 694 1126 l 328 418 l 694 -290 l 826 -226 l 489 418 z "},"〉":{"ha":861,"x_min":0,"x_max":0,"o":"m 35 1062 l 168 1126 l 534 418 l 401 364 l 372 418 l 401 472 l 534 418 l 168 -290 l 35 -226 l 372 418 z "},"｛":{"ha":861,"x_min":0,"x_max":0,"o":"m 88 344 b 360 80 331 340 405 253 l 348 32 b 582 -278 297 -168 379 -278 l 774 -278 l 774 -160 l 643 -160 b 503 58 522 -160 467 -108 l 515 108 b 297 418 553 281 475 389 b 515 728 475 447 553 554 l 503 777 b 643 995 467 944 522 995 l 774 995 l 774 1113 l 582 1113 b 348 803 379 1113 297 1003 l 360 756 b 88 491 405 581 331 495 z "},"｝":{"ha":861,"x_min":0,"x_max":0,"o":"m 88 -278 l 279 -278 b 513 32 483 -278 565 -168 l 501 80 b 774 344 456 253 530 340 l 774 491 b 501 756 530 495 457 581 l 513 803 b 279 1113 565 1003 483 1113 l 88 1113 l 88 995 l 219 995 b 358 777 340 995 394 944 l 347 728 b 565 417 308 554 386 447 b 347 108 387 389 309 281 l 358 58 b 219 -160 394 -108 340 -160 l 88 -160 z "},"❰":{"ha":861,"x_min":0,"x_max":0,"o":"m 817 1113 l 356 1113 l 45 417 l 356 -278 l 817 -278 l 506 417 z "},"❮":{"ha":861,"x_min":0,"x_max":0,"o":"m 707 885 l 435 885 l 154 374 l 435 -136 l 707 -136 l 427 374 z "},"❱":{"ha":861,"x_min":0,"x_max":0,"o":"m 44 1113 l 355 417 l 44 -278 l 505 -278 l 816 417 l 505 1113 z "},"❯":{"ha":861,"x_min":0,"x_max":0,"o":"m 154 885 l 434 374 l 154 -136 l 426 -136 l 707 374 l 426 885 z "},"⌈":{"ha":861,"x_min":0,"x_max":0,"o":"m 238 -278 l 389 -278 l 389 994 l 703 994 l 703 1113 l 238 1113 z "},"⌊":{"ha":861,"x_min":0,"x_max":0,"o":"m 238 1113 l 389 1113 l 389 -160 l 703 -160 l 703 -278 l 238 -278 z "},"⦑":{"ha":861,"x_min":0,"x_max":0,"o":"m 610 319 b 708 418 664 319 708 357 b 610 517 708 481 664 517 b 513 418 557 517 513 481 b 610 319 513 357 557 319 z m 681 1062 l 547 1126 l 181 418 l 547 -290 l 681 -226 l 343 418 z "},"⦃":{"ha":861,"x_min":0,"x_max":0,"o":"m 797 1113 l 552 1113 b 318 803 349 1113 267 1003 l 331 756 b 57 491 374 581 301 495 l 57 344 b 331 80 301 340 375 253 l 318 32 b 552 -278 267 -168 349 -278 l 797 -278 z m 606 995 l 648 995 l 648 -160 l 606 -160 b 474 58 492 -160 437 -108 l 485 108 b 266 417 522 281 444 389 b 485 728 445 447 523 554 l 474 777 b 606 995 437 944 492 995 z "},"⌉":{"ha":861,"x_min":0,"x_max":0,"o":"m 624 -278 l 473 -278 l 473 994 l 158 994 l 158 1113 l 624 1113 z "},"⌋":{"ha":861,"x_min":0,"x_max":0,"o":"m 624 1113 l 473 1113 l 473 -160 l 158 -160 l 158 -278 l 624 -278 z "},"⦒":{"ha":861,"x_min":0,"x_max":0,"o":"m 251 319 b 153 418 197 319 153 357 b 251 517 153 481 197 517 b 349 418 305 517 349 481 b 251 319 349 357 305 319 z m 181 1062 l 314 1126 l 680 418 l 547 364 l 519 418 l 547 472 l 680 418 l 314 -290 l 181 -226 l 519 418 z "},"⦄":{"ha":861,"x_min":0,"x_max":0,"o":"m 310 1113 l 64 1113 l 64 -278 l 310 -278 b 544 32 513 -278 595 -168 l 531 80 b 804 344 487 253 560 340 l 804 491 b 531 756 560 495 487 581 l 544 803 b 310 1113 594 1003 513 1113 z m 213 -160 l 213 995 l 256 995 b 388 777 370 995 425 944 l 377 728 b 595 418 339 554 417 447 b 377 108 417 389 339 281 l 388 58 b 256 -160 424 -108 370 -160 z "},"⁽":{"ha":861,"x_min":0,"x_max":0,"o":"m 474 958 b 619 1237 474 1085 534 1159 l 522 1237 b 368 958 459 1191 368 1110 b 522 681 368 807 459 726 l 619 681 b 474 958 537 756 474 829 z "},"⁾":{"ha":861,"x_min":0,"x_max":0,"o":"m 388 958 b 242 1237 388 1085 328 1159 l 339 1237 b 493 958 403 1191 493 1110 b 339 681 493 807 403 726 l 242 681 b 388 958 325 756 388 829 z "},"⦉":{"ha":861,"x_min":0,"x_max":0,"o":"m 692 -278 l 692 1113 l 516 1113 l 94 417 l 516 -278 z m 269 418 l 542 869 l 542 -34 z "},"⦇":{"ha":861,"x_min":0,"x_max":0,"o":"m 523 -278 l 697 -278 l 697 1113 l 523 1113 b 169 417 356 983 169 785 b 523 -278 169 49 356 -149 z m 322 417 b 548 996 322 687 418 856 l 548 -161 b 322 417 418 -22 322 148 z "},"⦊":{"ha":861,"x_min":0,"x_max":0,"o":"m 170 -278 l 345 -278 l 767 417 l 345 1113 l 170 1113 z m 319 -33 l 319 868 l 592 418 z "},"⦈":{"ha":861,"x_min":0,"x_max":0,"o":"m 339 -278 l 165 -278 l 165 1113 l 339 1113 b 693 417 505 983 693 785 b 339 -278 693 49 505 -149 z m 540 417 b 314 996 540 687 443 856 l 314 -161 b 540 417 443 -22 540 148 z "},"‚":{"ha":861,"x_min":0,"x_max":0,"o":"m 431 -26 b 463 -23 442 -26 452 -25 b 274 -255 438 -106 369 -181 l 349 -316 b 583 62 471 -229 583 -97 b 430 242 583 186 515 242 b 291 109 351 242 291 193 b 431 -26 291 26 350 -26 z "},"„":{"ha":861,"x_min":0,"x_max":0,"o":"m 248 -26 b 279 -23 258 -26 269 -25 b 90 -255 254 -106 186 -181 l 166 -316 b 399 62 288 -229 399 -97 b 247 242 399 186 331 242 b 108 109 167 242 108 193 b 248 -26 108 26 167 -26 z m 627 -26 b 658 -23 638 -26 648 -25 b 469 -255 633 -106 565 -181 l 545 -316 b 778 62 667 -229 778 -97 b 626 242 778 186 710 242 b 487 109 547 242 487 193 b 627 -26 487 26 546 -26 z "},"“":{"ha":861,"x_min":0,"x_max":0,"o":"m 242 747 b 210 744 231 747 221 747 b 399 977 235 828 303 903 l 324 1038 b 90 660 202 951 90 819 b 243 480 90 536 158 480 b 382 613 322 480 382 529 b 242 747 382 696 323 747 z m 621 747 b 590 744 610 747 600 747 b 778 977 614 828 683 903 l 703 1038 b 469 660 581 951 469 819 b 622 480 469 536 538 480 b 761 613 701 480 761 529 b 621 747 761 696 702 747 z "},"”":{"ha":861,"x_min":0,"x_max":0,"o":"m 248 763 b 279 766 258 763 269 764 b 90 533 254 683 186 608 l 166 473 b 399 850 288 560 399 691 b 247 1031 399 974 331 1031 b 108 898 167 1031 108 981 b 248 763 108 815 167 763 z m 627 763 b 658 766 638 763 648 764 b 469 533 633 683 565 608 l 545 473 b 778 850 667 560 778 691 b 626 1031 778 974 710 1031 b 487 898 547 1031 487 981 b 627 763 487 815 546 763 z "},"‘":{"ha":861,"x_min":0,"x_max":0,"o":"m 430 747 b 399 744 419 747 409 747 b 588 977 424 828 492 903 l 512 1038 b 279 660 390 951 279 819 b 431 480 279 536 347 480 b 570 613 510 480 570 529 b 430 747 570 696 511 747 z "},"’":{"ha":861,"x_min":0,"x_max":0,"o":"m 431 763 b 463 766 442 763 452 764 b 274 533 438 683 369 608 l 349 473 b 583 850 471 560 583 691 b 430 1031 583 974 515 1031 b 291 898 351 1031 291 981 b 431 763 291 815 350 763 z "},"‛":{"ha":861,"x_min":0,"x_max":0,"o":"m 430 763 b 399 766 419 763 409 764 b 588 533 424 683 492 608 l 512 473 b 279 850 390 560 279 691 b 431 1031 279 974 347 1031 b 570 898 510 1031 570 981 b 430 763 570 815 511 763 z "},"‟":{"ha":861,"x_min":0,"x_max":0,"o":"m 614 763 b 583 766 603 763 592 764 b 771 533 607 683 676 608 l 696 473 b 463 850 574 560 463 691 b 615 1031 463 974 531 1031 b 754 898 694 1031 754 981 b 614 763 754 815 695 763 z m 235 763 b 203 766 224 763 213 764 b 392 533 228 683 297 608 l 317 473 b 83 850 195 560 83 691 b 236 1031 83 974 151 1031 b 375 898 315 1031 375 981 b 235 763 375 815 316 763 z "},"«":{"ha":861,"x_min":0,"x_max":0,"o":"m 406 35 l 199 366 l 406 690 l 269 724 l 42 362 l 269 1 z m 767 34 l 560 365 l 767 688 l 630 722 l 403 360 l 630 -1 z "},"»":{"ha":861,"x_min":0,"x_max":0,"o":"m 455 688 l 664 357 l 455 33 l 593 -1 l 819 362 l 593 722 z m 94 690 l 303 358 l 94 35 l 232 1 l 458 363 l 232 724 z "},"‹":{"ha":861,"x_min":0,"x_max":0,"o":"m 611 58 l 391 365 l 611 667 l 481 740 l 215 361 l 481 -17 z "},"›":{"ha":861,"x_min":0,"x_max":0,"o":"m 250 666 l 471 359 l 250 57 l 380 -17 l 646 363 l 381 740 z "},"‵":{"ha":861,"x_min":0,"x_max":0,"o":"m 458 543 l 261 1014 l 438 1014 l 585 543 z "},"‴":{"ha":861,"x_min":0,"x_max":0,"o":"m 206 543 l 220 1014 l 64 1014 l 78 543 z m 495 543 l 509 1014 l 353 1014 l 367 543 z m 784 543 l 798 1014 l 642 1014 l 656 543 z "},"\"":{"ha":861,"x_min":0,"x_max":0,"o":"m 303 543 l 317 1014 l 161 1014 l 175 543 z m 687 543 l 701 1014 l 544 1014 l 559 543 z "},"'":{"ha":861,"x_min":0,"x_max":0,"o":"m 495 543 l 509 1014 l 353 1014 l 367 543 z "},"ƒ":{"ha":861,"x_min":0,"x_max":0,"o":"m 652 1031 b 406 766 522 1031 431 974 l 386 608 l 167 608 l 167 488 l 371 488 l 310 16 b 174 -165 292 -133 253 -165 b 111 -154 149 -165 131 -161 l 97 -273 b 209 -294 132 -289 169 -294 b 456 -30 340 -294 430 -237 l 522 488 l 740 488 l 740 608 l 538 608 l 552 720 b 687 901 571 869 608 901 b 751 890 713 901 731 897 l 764 1009 b 652 1031 729 1025 693 1031 z "},"♩":{"ha":861,"x_min":0,"x_max":0,"o":"m 728 163 l 728 1113 l 599 1113 l 599 294 l 591 293 b 445 319 544 310 497 319 b 108 26 257 319 108 201 b 349 -187 108 -115 202 -187 b 728 163 544 -187 728 -57 z "},"♭":{"ha":861,"x_min":0,"x_max":0,"o":"m 148 0 b 737 485 458 0 737 169 b 536 740 737 658 653 740 b 284 593 439 740 359 681 l 277 593 l 277 1113 l 148 1113 l 148 1 l 147 0 z m 277 119 l 277 450 b 472 583 347 546 412 583 b 585 436 538 583 585 536 b 277 119 585 269 455 151 z "},"♮":{"ha":861,"x_min":0,"x_max":0,"o":"m 667 -99 l 667 899 l 324 803 l 324 1113 l 194 1113 l 194 115 l 538 212 l 538 -99 z m 324 324 l 324 631 l 538 691 l 538 384 z "},"♯":{"ha":861,"x_min":0,"x_max":0,"o":"m 802 766 l 802 938 l 667 900 l 667 1113 l 538 1113 l 538 863 l 324 803 l 324 1014 l 194 1014 l 194 766 l 59 728 l 59 556 l 194 594 l 194 288 l 59 249 l 59 77 l 194 115 l 194 -99 l 324 -99 l 324 152 l 538 212 l 538 0 l 667 0 l 667 249 l 802 287 l 802 459 l 667 421 l 667 728 z m 324 324 l 324 631 l 538 691 l 538 384 z "},"฿":{"ha":861,"x_min":0,"x_max":0,"o":"m 119 0 l 376 0 l 376 -219 l 451 -219 l 451 0 b 803 294 669 7 803 116 b 529 536 803 476 653 528 l 529 542 b 749 796 627 556 749 633 b 451 1014 749 954 631 1012 l 451 1233 l 376 1233 l 376 1014 l 119 1014 z m 277 118 l 277 472 l 376 472 l 376 118 z m 277 585 l 277 896 l 376 896 l 376 585 z m 451 121 l 451 469 b 641 297 565 459 641 417 b 451 121 641 184 572 133 z m 451 592 l 451 892 b 590 758 549 880 590 833 b 451 592 590 670 542 610 z "},"⌶":{"ha":861,"x_min":0,"x_max":0,"o":"m 774 726 l 87 726 l 87 594 l 360 594 l 360 133 l 87 133 l 87 0 l 774 0 l 774 133 l 502 133 l 502 594 l 774 594 z "},"⍀":{"ha":861,"x_min":0,"x_max":0,"o":"m 594 -139 l 759 -139 l 547 392 l 709 392 l 709 524 l 493 524 l 297 1014 l 132 1014 l 328 524 l 165 524 l 165 392 l 381 392 z "},"⍉":{"ha":861,"x_min":0,"x_max":0,"o":"m 431 120 b 815 507 642 120 815 273 b 431 894 815 742 642 894 b 47 507 219 894 47 742 b 431 120 47 273 219 120 z m 431 219 b 145 507 272 219 145 334 b 190 669 145 569 162 624 l 593 266 b 431 219 547 236 491 219 z m 269 748 b 431 794 315 778 371 794 b 716 507 590 794 716 681 b 672 346 716 445 700 390 z "},"⍥":{"ha":861,"x_min":0,"x_max":0,"o":"m 431 120 b 815 507 642 120 815 273 b 431 894 815 742 642 894 b 47 507 219 894 47 742 b 431 120 47 273 219 120 z m 431 219 b 145 507 272 219 145 334 b 431 794 145 681 272 794 b 716 507 590 794 716 681 b 431 219 716 334 590 219 z m 248 1020 b 340 1107 303 1020 340 1053 b 248 1193 340 1160 303 1193 b 156 1107 194 1193 156 1160 b 248 1020 156 1053 194 1020 z m 614 1020 b 706 1107 669 1020 706 1053 b 614 1193 706 1160 669 1193 b 522 1107 560 1193 522 1160 b 614 1020 522 1053 560 1020 z "},"⌾":{"ha":861,"x_min":0,"x_max":0,"o":"m 431 117 b 815 505 643 117 815 270 b 431 892 815 739 643 892 b 48 505 220 892 48 739 b 431 117 48 270 220 117 z m 431 217 b 146 505 273 217 146 331 b 431 792 146 678 273 792 b 717 505 590 792 717 678 b 431 217 717 331 590 217 z m 431 328 b 611 508 537 328 611 403 b 431 686 611 613 537 686 b 250 508 325 686 250 613 b 431 328 250 403 325 328 z m 431 424 b 352 508 381 424 352 459 b 431 590 352 556 381 590 b 510 508 480 590 510 556 b 431 424 510 459 480 424 z "},"⍟":{"ha":861,"x_min":0,"x_max":0,"o":"m 431 120 b 815 507 642 120 815 273 b 431 894 815 742 642 894 b 47 507 219 894 47 742 b 431 120 47 273 219 120 z m 431 219 b 145 507 272 219 145 334 b 431 794 145 681 272 794 b 716 507 590 794 716 681 b 431 219 716 334 590 219 z m 228 508 l 360 479 l 268 386 l 367 312 l 431 426 l 495 312 l 594 386 l 501 479 l 633 508 l 596 625 l 475 562 l 493 699 l 369 699 l 386 562 l 266 625 z "},"⌽":{"ha":861,"x_min":0,"x_max":0,"o":"m 491 1113 l 371 1113 l 371 890 b 47 507 188 865 47 719 b 371 124 47 295 188 150 l 371 -99 l 491 -99 l 491 124 b 815 507 674 151 815 296 b 491 890 815 719 674 864 z m 145 507 b 371 789 145 658 242 764 l 371 225 b 145 507 242 250 145 356 z m 491 225 l 491 789 b 716 507 620 764 716 658 b 491 225 716 357 620 251 z "},"⍜":{"ha":861,"x_min":0,"x_max":0,"o":"m 431 120 b 815 507 642 120 815 273 b 431 894 815 742 642 894 b 47 507 219 894 47 742 b 431 120 47 273 219 120 z m 431 219 b 145 507 272 219 145 334 b 431 794 145 681 272 794 b 716 507 590 794 716 681 b 431 219 716 334 590 219 z m 80 0 l 80 -125 l 781 -125 l 781 0 z "},"⍪":{"ha":861,"x_min":0,"x_max":0,"o":"m 435 -26 b 466 -23 445 -26 456 -25 b 278 -255 442 -106 373 -181 l 353 -316 b 586 62 474 -229 586 -97 b 433 242 586 186 518 242 b 294 109 355 242 294 193 b 435 -26 294 26 353 -26 z m 154 524 l 154 399 l 707 399 l 707 524 z "},"⍢":{"ha":861,"x_min":0,"x_max":0,"o":"m 792 875 l 69 875 l 69 841 l 378 0 l 482 0 l 792 841 z m 248 1021 b 340 1108 303 1021 340 1054 b 248 1194 340 1162 303 1194 b 156 1108 194 1194 156 1162 b 248 1021 156 1054 194 1021 z m 614 1021 b 706 1108 669 1021 706 1054 b 614 1194 706 1162 669 1194 b 522 1108 560 1194 522 1162 b 614 1021 522 1054 560 1021 z m 256 750 l 609 750 l 437 245 l 426 245 z "},"⍒":{"ha":861,"x_min":0,"x_max":0,"o":"m 352 1113 l 352 875 l 53 875 l 52 841 l 352 54 l 352 -278 l 510 -278 l 510 56 l 810 841 l 810 875 l 510 875 l 510 1113 z m 231 750 l 369 750 l 369 358 z m 496 360 l 496 750 l 636 750 z "},"⍋":{"ha":861,"x_min":0,"x_max":0,"o":"m 510 -278 l 510 0 l 810 0 l 810 35 l 510 821 l 510 1113 l 352 1113 l 352 821 l 52 35 l 52 0 l 352 0 l 352 -278 z m 226 125 l 367 516 l 367 125 z m 493 125 l 493 515 l 633 125 z "},"⍙":{"ha":861,"x_min":0,"x_max":0,"o":"m 69 0 l 69 -125 l 791 -125 l 791 0 z m 69 139 l 792 139 l 792 174 l 483 1014 l 378 1014 l 69 174 z m 251 264 l 424 769 l 434 769 l 606 264 z "},"⍫":{"ha":861,"x_min":0,"x_max":0,"o":"m 792 875 l 69 875 l 69 841 l 378 0 l 482 0 l 792 841 z m 310 1233 b 156 1019 226 1233 169 1156 l 260 989 b 337 1112 270 1065 296 1112 b 552 979 406 1112 443 979 b 707 1194 635 979 694 1057 l 603 1224 b 526 1101 592 1147 567 1101 b 310 1233 458 1101 419 1233 z m 256 750 l 609 750 l 437 245 l 426 245 z "},"⍚":{"ha":861,"x_min":0,"x_max":0,"o":"m 80 0 l 80 -125 l 781 -125 l 781 0 z m 810 507 l 431 887 l 51 507 l 431 127 z m 679 507 l 431 258 l 182 507 l 431 756 z "},"⍱":{"ha":861,"x_min":0,"x_max":0,"o":"m 46 799 l 122 643 b 17 497 78 615 44 565 l 97 451 b 169 545 122 500 142 530 l 389 94 l 451 94 l 603 412 b 663 406 622 408 642 406 b 874 583 765 406 828 467 l 794 628 b 665 522 756 551 725 522 l 656 522 l 788 799 l 642 799 l 531 556 b 261 672 444 597 361 660 l 203 799 z m 322 539 b 486 456 377 518 431 485 l 428 329 l 418 329 z "},"⍦":{"ha":861,"x_min":0,"x_max":0,"o":"m 371 -264 l 491 -264 l 491 -13 b 768 368 690 10 768 154 l 768 723 l 631 723 l 631 382 b 491 131 631 233 594 152 l 491 869 l 371 869 l 371 131 b 230 382 267 152 230 233 l 230 723 l 94 723 l 94 368 b 371 -13 94 154 172 10 z "},"⍎":{"ha":861,"x_min":0,"x_max":0,"o":"m 774 0 l 774 133 l 502 133 l 502 222 b 676 413 605 236 676 307 b 502 606 676 518 605 592 l 502 723 l 360 723 l 360 606 b 184 413 256 592 184 519 b 360 222 184 307 256 235 l 360 133 l 87 133 l 87 0 z m 281 413 b 360 514 281 468 310 503 l 360 314 b 281 413 310 324 281 358 z m 502 314 l 502 514 b 579 413 551 503 579 467 b 502 314 579 359 551 325 z "},"⍊":{"ha":861,"x_min":0,"x_max":0,"o":"m 774 122 l 87 122 l 87 0 l 774 0 z m 774 355 l 502 355 l 502 723 l 360 723 l 360 355 l 87 355 l 87 233 l 774 233 z "},"⍖":{"ha":861,"x_min":0,"x_max":0,"o":"m 748 540 l 371 540 l 371 657 l 492 657 l 492 329 l 501 325 l 610 435 l 689 356 l 431 99 l 174 356 l 253 435 l 362 325 l 371 329 l 371 540 l 113 540 l 113 657 l 371 657 l 371 889 l 492 889 l 492 657 l 748 657 z "},"⍷":{"ha":861,"x_min":0,"x_max":0,"o":"m 149 -139 l 149 -264 l 712 -264 l 712 -139 z m 110 362 b 499 0 110 101 261 0 l 712 0 l 712 126 l 535 126 b 270 303 381 126 290 169 l 712 303 l 712 420 l 271 420 b 535 597 290 554 381 597 l 712 597 l 712 723 l 499 723 b 110 362 261 723 110 622 z "},"⍩":{"ha":861,"x_min":0,"x_max":0,"o":"m 210 19 l 743 400 l 743 516 l 210 897 l 132 790 l 591 462 l 591 453 l 132 126 z m 248 1020 b 340 1107 303 1020 340 1053 b 248 1193 340 1160 303 1193 b 156 1107 194 1193 156 1160 b 248 1020 156 1053 194 1020 z m 614 1020 b 706 1107 669 1020 706 1053 b 614 1193 706 1160 669 1193 b 522 1107 560 1193 522 1160 b 614 1020 522 1053 560 1020 z "},"⍤":{"ha":861,"x_min":0,"x_max":0,"o":"m 431 328 b 611 508 537 328 611 403 b 431 686 611 613 537 686 b 250 508 325 686 250 613 b 431 328 250 403 325 328 z m 431 424 b 352 508 381 424 352 459 b 431 590 352 556 381 590 b 510 508 480 590 510 556 b 431 424 510 459 480 424 z m 248 812 b 340 899 303 812 340 845 b 248 985 340 953 303 985 b 156 899 194 985 156 953 b 248 812 156 845 194 812 z m 614 812 b 706 899 669 812 706 845 b 614 985 706 953 669 985 b 522 899 560 985 522 953 b 614 812 522 845 560 812 z "},"⍛":{"ha":861,"x_min":0,"x_max":0,"o":"m 431 328 b 611 508 537 328 611 403 b 431 686 611 613 537 686 b 250 508 325 686 250 613 b 431 328 250 403 325 328 z m 431 424 b 352 508 381 424 352 459 b 431 590 352 556 381 590 b 510 508 480 590 510 556 b 431 424 510 459 480 424 z m 154 0 l 154 -125 l 707 -125 l 707 0 z "},"⍧":{"ha":861,"x_min":0,"x_max":0,"o":"m 442 -264 l 562 -264 l 562 0 l 712 0 l 712 125 l 562 125 l 562 598 l 712 598 l 712 723 l 562 723 l 562 1014 l 442 1014 l 442 721 b 110 362 238 705 110 600 b 442 2 110 123 238 18 z m 267 362 b 442 591 267 508 327 572 l 442 132 b 267 362 327 151 267 215 z "},"⍅":{"ha":861,"x_min":0,"x_max":0,"o":"m 417 848 l 417 567 l 230 567 l 226 576 l 342 692 l 263 772 l 0 507 l 263 243 l 342 322 l 226 438 l 230 447 l 417 447 l 417 167 l 538 167 l 538 447 l 767 447 l 767 567 l 538 567 l 538 848 z "},"⎕":{"ha":861,"x_min":0,"x_max":0,"o":"m 35 -94 l 826 -94 l 826 1108 l 35 1108 z m 138 0 l 138 1014 l 724 1014 l 724 0 z "},"⍂":{"ha":861,"x_min":0,"x_max":0,"o":"m 35 -94 l 826 -94 l 826 1108 l 35 1108 z m 138 0 l 138 967 l 595 0 z m 267 1014 l 724 1014 l 724 49 z "},"⌼":{"ha":861,"x_min":0,"x_max":0,"o":"m 35 -94 l 826 -94 l 826 1108 l 35 1108 z m 431 120 b 724 249 548 120 653 167 l 724 0 l 138 0 l 138 249 b 431 120 208 167 313 120 z m 431 219 b 145 507 272 219 145 334 b 431 794 145 681 272 794 b 716 507 590 794 716 681 b 431 219 716 334 590 219 z m 138 765 l 138 1014 l 724 1014 l 724 766 b 431 894 653 847 548 894 b 138 765 313 894 208 847 z "},"⍠":{"ha":861,"x_min":0,"x_max":0,"o":"m 35 -94 l 826 -94 l 826 1108 l 35 1108 z m 433 148 b 556 267 501 148 556 193 b 433 386 556 342 501 386 b 310 267 366 386 310 342 b 433 148 310 193 366 148 z m 433 628 b 556 748 501 628 556 674 b 433 867 556 823 501 867 b 310 748 366 867 310 823 b 433 628 310 674 366 628 z m 138 0 l 138 1014 l 724 1014 l 724 0 z "},"⍔":{"ha":861,"x_min":0,"x_max":0,"o":"m 826 1108 l 35 1108 l 35 -94 l 826 -94 z m 138 0 l 138 654 l 378 0 z m 138 875 l 138 1014 l 724 1014 l 724 875 z m 256 750 l 609 750 l 437 245 l 426 245 z m 482 0 l 724 656 l 724 0 z "},"⍍":{"ha":861,"x_min":0,"x_max":0,"o":"m 35 -94 l 826 -94 l 826 1108 l 35 1108 z m 138 0 l 138 139 l 724 139 l 724 0 z m 138 358 l 138 1014 l 379 1014 z m 252 264 l 425 769 l 435 769 l 606 264 z m 483 1014 l 724 1014 l 724 360 z "},"⌺":{"ha":861,"x_min":0,"x_max":0,"o":"m 35 -94 l 826 -94 l 826 1108 l 35 1108 z m 679 507 l 431 258 l 182 507 l 431 756 z m 138 0 l 138 420 l 431 127 l 724 420 l 724 0 z m 138 594 l 138 1014 l 724 1014 l 724 594 l 431 887 z "},"⌹":{"ha":861,"x_min":0,"x_max":0,"o":"m 35 -94 l 826 -94 l 826 1108 l 35 1108 z m 431 155 b 527 244 484 155 527 188 b 431 333 527 300 484 333 b 335 244 378 333 335 300 b 431 155 335 188 378 155 z m 431 682 b 527 771 484 682 527 716 b 431 860 527 827 484 860 b 335 771 378 860 335 827 b 431 682 335 716 378 682 z m 138 0 l 138 441 l 724 441 l 724 0 z m 138 574 l 138 1014 l 724 1014 l 724 574 z "},"⍗":{"ha":861,"x_min":0,"x_max":0,"o":"m 431 -47 l 385 0 l 478 0 z m 35 1108 l 826 1108 l 826 -94 l 35 -94 z m 138 1014 l 138 0 l 385 0 l 206 178 l 281 253 l 365 167 l 374 171 l 374 1060 l 488 1060 l 488 1014 z m 478 0 l 724 0 l 724 1014 l 488 1014 l 488 171 l 497 167 l 581 253 l 656 178 z "},"⍌":{"ha":861,"x_min":0,"x_max":0,"o":"m 826 1108 l 35 1108 l 35 -94 l 826 -94 z m 138 0 l 138 684 l 399 158 l 460 158 l 724 699 l 724 0 z m 138 997 l 138 1014 l 724 1014 l 724 992 l 437 393 l 427 393 z "},"⌸":{"ha":861,"x_min":0,"x_max":0,"o":"m 215 600 l 645 600 l 645 733 l 215 733 z m 215 282 l 645 282 l 645 414 l 215 414 z m 35 -94 l 826 -94 l 826 1108 l 35 1108 z m 138 0 l 138 1014 l 724 1014 l 724 0 z "},"⍄":{"ha":861,"x_min":0,"x_max":0,"o":"m 35 -94 l 826 -94 l 826 1108 l 35 1108 z m 138 0 l 138 1014 l 724 1014 l 724 0 z "},"⌻":{"ha":861,"x_min":0,"x_max":0,"o":"m 35 -94 l 826 -94 l 826 1108 l 35 1108 z m 431 328 b 611 508 537 328 611 403 b 431 686 611 613 537 686 b 250 508 325 686 250 613 b 431 328 250 403 325 328 z m 431 424 b 352 508 381 424 352 459 b 431 590 352 556 381 590 b 510 508 480 590 510 556 b 431 424 510 459 480 424 z m 138 0 l 138 1014 l 724 1014 l 724 0 z "},"⍇":{"ha":861,"x_min":0,"x_max":0,"o":"m 35 -94 l 826 -94 l 826 1108 l 35 1108 z m 138 0 l 138 455 l 349 243 l 428 322 l 311 438 l 315 447 l 724 447 l 724 0 z m 138 559 l 138 1014 l 724 1014 l 724 567 l 315 567 l 311 576 l 428 692 l 349 772 z "},"⍃":{"ha":861,"x_min":0,"x_max":0,"o":"m 826 -94 l 35 -94 l 35 1108 l 826 1108 z m 724 0 l 724 1014 l 138 1014 l 138 0 z "},"⍯":{"ha":861,"x_min":0,"x_max":0,"o":"m 407 85 l 444 282 l 645 282 l 645 414 l 469 414 l 505 600 l 645 600 l 645 733 l 530 733 l 567 928 l 455 928 l 417 733 l 215 733 l 215 600 l 392 600 l 356 414 l 215 414 l 215 282 l 331 282 l 294 85 z m 35 -94 l 826 -94 l 826 1108 l 35 1108 z m 138 0 l 138 1014 l 724 1014 l 724 0 z "},"⍰":{"ha":861,"x_min":0,"x_max":0,"o":"m 35 -94 l 826 -94 l 826 1108 l 35 1108 z m 439 114 b 533 204 491 114 533 149 b 439 294 533 261 491 294 b 344 204 388 294 344 261 b 439 114 344 149 388 114 z m 180 681 l 290 669 b 425 794 297 761 346 794 b 547 692 500 794 547 765 b 382 547 547 603 482 571 l 385 414 l 493 414 l 495 505 b 675 700 593 526 675 576 b 426 901 675 835 575 901 b 180 681 272 901 178 828 z m 138 0 l 138 1014 l 724 1014 l 724 0 z "},"⍈":{"ha":861,"x_min":0,"x_max":0,"o":"m 776 507 l 724 455 l 724 559 z m 826 -94 l 35 -94 l 35 1108 l 826 1108 z m 724 0 l 724 455 l 513 243 l 433 322 l 550 438 l 546 447 l 92 447 l 92 567 l 138 567 l 138 0 z m 138 567 l 546 567 l 550 576 l 433 692 l 513 772 l 724 559 l 724 1014 l 138 1014 z "},"⍁":{"ha":861,"x_min":0,"x_max":0,"o":"m 241 -54 l 89 -54 l 138 49 l 138 0 l 267 0 z m 826 -94 l 35 -94 l 35 1108 l 826 1108 z m 724 0 l 724 1014 l 594 1014 l 620 1069 l 772 1069 l 267 0 z m 138 49 l 594 1014 l 138 1014 z "},"⍐":{"ha":861,"x_min":0,"x_max":0,"o":"m 35 -94 l 826 -94 l 826 1108 l 35 1108 z m 138 0 l 138 1014 l 384 1014 l 206 837 l 281 761 l 365 847 l 374 843 l 374 0 z m 478 1014 l 724 1014 l 724 0 l 488 0 l 488 843 l 497 847 l 581 761 l 656 837 z "},"⍓":{"ha":861,"x_min":0,"x_max":0,"o":"m 35 -94 l 826 -94 l 826 1108 l 35 1108 z m 138 0 l 138 23 l 424 621 l 434 621 l 724 17 l 724 0 z m 138 314 l 138 1014 l 724 1014 l 724 331 l 463 856 l 401 856 z "},"⍞":{"ha":861,"x_min":0,"x_max":0,"o":"m 35 -94 l 826 -94 l 826 1108 l 35 1108 z m 495 543 l 509 1014 l 724 1014 l 724 0 l 138 0 l 138 1014 l 353 1014 l 367 543 z "},"⍘":{"ha":861,"x_min":0,"x_max":0,"o":"m 495 543 l 509 1014 l 353 1014 l 367 543 z m 154 0 l 154 -125 l 707 -125 l 707 0 z "},"⍆":{"ha":861,"x_min":0,"x_max":0,"o":"m 444 848 l 444 447 l 323 447 l 323 567 l 631 567 l 635 576 l 519 692 l 598 772 l 861 507 l 598 243 l 519 322 l 635 438 l 631 447 l 444 447 l 444 167 l 323 167 l 323 447 l 94 447 l 94 567 l 323 567 l 323 848 z "},"⍮":{"ha":861,"x_min":0,"x_max":0,"o":"m 431 -26 b 463 -23 442 -26 452 -25 b 441 -75 458 -40 450 -58 l 154 -75 l 154 -183 l 358 -183 b 274 -255 333 -207 305 -231 l 349 -316 b 491 -183 401 -279 451 -234 l 707 -183 l 707 -75 l 555 -75 b 583 62 572 -32 583 13 b 430 242 583 186 515 242 b 291 109 351 242 291 193 b 431 -26 291 26 350 -26 z m 432 518 b 569 652 508 518 569 569 b 432 785 569 736 508 785 b 294 652 356 785 294 736 b 432 518 294 569 356 518 z "},"⌿":{"ha":861,"x_min":0,"x_max":0,"o":"m 267 -139 l 103 -139 l 369 524 l 533 524 l 480 392 l 152 392 l 152 524 l 369 524 l 565 1014 l 729 1014 l 533 524 l 696 524 l 696 392 l 480 392 z "},"⌷":{"ha":861,"x_min":0,"x_max":0,"o":"m 191 -94 l 670 -94 l 670 1108 l 191 1108 z m 294 0 l 294 1014 l 567 1014 l 567 0 z "},"⍣":{"ha":861,"x_min":0,"x_max":0,"o":"m 248 947 b 340 1035 303 947 340 981 b 248 1121 340 1088 303 1121 b 156 1035 194 1121 156 1088 b 248 947 156 981 194 947 z m 614 947 b 706 1035 669 947 706 981 b 614 1121 706 1088 669 1121 b 522 1035 560 1121 522 1088 b 614 947 522 981 560 947 z m 62 497 l 333 428 l 153 212 l 279 120 l 431 360 l 582 120 l 708 212 l 528 428 l 800 497 l 751 644 l 491 542 l 509 822 l 353 822 l 371 542 l 110 644 z "},"⍭":{"ha":861,"x_min":0,"x_max":0,"o":"m 510 657 l 510 1113 l 351 1113 l 351 657 z m 510 -278 l 510 258 l 351 258 l 351 -278 z m 579 297 b 765 585 676 297 749 367 l 650 602 b 560 440 636 488 611 440 b 283 619 461 440 436 619 b 97 331 186 619 113 548 l 212 313 b 301 476 226 428 251 476 b 579 297 401 476 425 297 z "},"⍨":{"ha":861,"x_min":0,"x_max":0,"o":"m 579 297 b 765 585 676 297 749 367 l 650 602 b 560 440 636 488 611 440 b 283 619 461 440 436 619 b 97 331 186 619 113 548 l 212 313 b 301 476 226 428 251 476 b 579 297 401 476 425 297 z m 248 744 b 340 831 303 744 340 778 b 248 917 340 885 303 917 b 156 831 194 917 156 885 b 248 744 156 778 194 744 z m 614 744 b 706 831 669 744 706 778 b 614 917 706 885 669 917 b 522 831 560 917 522 885 b 614 744 522 778 560 744 z "},"⍲":{"ha":861,"x_min":0,"x_max":0,"o":"m 815 117 l 740 273 b 844 420 783 302 817 351 l 764 466 b 692 371 740 417 719 386 l 472 822 l 410 822 l 258 504 b 198 510 239 508 219 510 b -13 333 97 510 33 449 l 67 288 b 196 395 106 365 136 395 l 206 395 l 74 117 l 219 117 l 331 360 b 600 245 417 320 501 257 l 658 117 z m 376 459 l 434 587 l 444 587 l 540 377 b 376 459 484 397 431 431 z "},"⍝":{"ha":861,"x_min":0,"x_max":0,"o":"m 431 598 b 642 342 581 598 642 516 l 642 0 l 768 0 l 768 356 b 431 740 768 590 670 740 b 94 356 192 740 94 590 l 94 0 l 219 0 l 219 342 b 431 598 219 516 281 598 z m 431 231 b 574 381 517 231 574 293 b 431 530 574 468 517 530 b 288 381 344 530 288 468 b 431 231 288 293 344 231 z m 431 312 b 369 381 391 312 369 340 b 431 449 369 420 391 449 b 493 381 471 449 493 420 b 431 312 493 340 471 312 z "},"⍡":{"ha":861,"x_min":0,"x_max":0,"o":"m 774 723 l 87 723 l 87 591 l 360 591 l 360 0 l 502 0 l 502 591 l 774 591 z m 248 849 b 340 936 303 849 340 882 b 248 1022 340 990 303 1022 b 156 936 194 1022 156 990 b 248 849 156 882 194 849 z m 614 849 b 706 936 669 849 706 882 b 614 1022 706 990 669 1022 b 522 936 560 1022 522 990 b 614 849 522 882 560 849 z "},"⍕":{"ha":861,"x_min":0,"x_max":0,"o":"m 774 723 l 87 723 l 87 591 l 360 591 l 360 502 b 184 310 256 488 184 416 b 360 117 184 205 256 132 l 360 0 l 502 0 l 502 117 b 676 310 605 132 676 206 b 502 502 676 416 605 488 l 502 591 l 774 591 z m 281 310 b 360 410 281 365 310 399 l 360 210 b 281 310 310 221 281 256 z m 502 210 l 502 410 b 579 310 551 399 579 365 b 502 210 579 256 551 221 z "},"⍑":{"ha":861,"x_min":0,"x_max":0,"o":"m 774 601 l 774 723 l 87 723 l 87 601 z m 774 369 l 774 490 l 87 490 l 87 369 l 360 369 l 360 0 l 502 0 l 502 369 z "},"⍏":{"ha":861,"x_min":0,"x_max":0,"o":"m 748 475 l 492 475 l 492 685 l 501 690 l 610 580 l 689 659 l 431 915 l 174 659 l 253 580 l 362 690 l 371 685 l 371 475 l 113 475 l 113 358 l 371 358 l 371 126 l 492 126 l 492 358 l 748 358 z "},"⍬":{"ha":861,"x_min":0,"x_max":0,"o":"m 797 508 b 431 1031 797 872 660 1031 b 65 508 201 1031 65 872 b 431 -17 65 153 201 -17 b 797 508 660 -17 797 153 z m 563 347 b 624 361 585 347 606 351 b 431 122 603 187 539 122 b 234 399 316 122 250 196 b 315 526 246 488 273 526 b 563 347 409 526 422 347 z m 238 655 b 431 892 259 828 324 892 b 628 619 546 892 611 820 b 547 490 616 528 590 490 b 299 669 453 490 440 669 b 238 655 277 669 256 665 z "},"☉":{"ha":861,"x_min":0,"x_max":0,"o":"m 431 120 b 813 507 642 120 813 274 b 431 894 813 740 642 894 b 48 507 219 894 48 740 b 431 120 48 274 219 120 z m 431 201 b 128 507 262 201 128 323 b 431 813 128 691 262 813 b 733 507 599 813 733 691 b 431 201 733 323 599 201 z m 431 424 b 513 507 476 424 513 457 b 431 590 513 557 476 590 b 348 507 385 590 348 557 b 431 424 348 457 385 424 z "},"★":{"ha":861,"x_min":0,"x_max":0,"o":"m 190 160 l 430 334 l 672 160 l 580 443 l 819 618 l 523 618 l 431 901 l 339 618 l 42 618 l 282 442 z "},"☆":{"ha":861,"x_min":0,"x_max":0,"o":"m 185 153 l 430 331 l 676 153 l 583 442 l 826 620 l 525 620 l 432 908 l 338 620 l 35 620 l 278 440 z m 269 267 l 331 459 l 168 576 l 369 576 l 432 769 l 492 576 l 693 576 l 531 460 l 592 267 l 430 385 z "},"☐":{"ha":861,"x_min":0,"x_max":0,"o":"m 826 903 l 35 903 l 35 111 l 826 111 z m 772 849 l 772 165 l 89 165 l 89 849 z "},"☑":{"ha":861,"x_min":0,"x_max":0,"o":"m 826 903 l 35 903 l 35 111 l 826 111 z m 772 849 l 772 165 l 89 165 l 89 849 z m 333 292 l 707 667 l 652 722 l 333 400 l 209 525 l 155 471 z "},"☒":{"ha":861,"x_min":0,"x_max":0,"o":"m 826 903 l 35 903 l 35 111 l 826 111 z m 772 849 l 772 165 l 89 165 l 89 849 z m 261 282 l 431 453 l 601 282 l 655 336 l 485 507 l 655 678 l 600 732 l 431 561 l 261 731 l 207 678 l 376 507 l 207 336 z "},"☢":{"ha":861,"x_min":0,"x_max":0,"o":"m 431 436 b 360 507 391 436 360 465 b 431 578 360 549 391 578 b 501 507 470 578 501 549 b 431 436 501 465 470 436 z m 299 733 l 376 600 b 324 507 345 583 324 549 l 172 507 b 299 733 172 610 222 691 z m 484 600 l 561 733 b 689 507 638 691 689 610 l 537 507 b 484 600 537 550 516 583 z m 484 414 l 561 281 b 299 281 485 238 375 238 l 376 414 b 431 401 392 406 410 401 b 484 414 450 401 469 406 z m 431 156 b 779 507 623 156 779 294 b 431 858 779 719 623 858 b 82 507 238 858 82 719 b 431 156 82 294 238 156 z m 431 211 b 134 507 265 211 134 330 b 431 803 134 684 265 803 b 727 507 596 803 727 684 b 431 211 727 330 596 211 z "},"☮":{"ha":861,"x_min":0,"x_max":0,"o":"m 431 156 b 779 507 623 156 779 294 b 431 858 779 719 623 858 b 82 507 238 858 82 719 b 431 156 82 294 238 156 z m 134 507 b 403 801 134 674 251 790 l 403 569 l 178 344 b 134 507 151 390 134 444 z m 212 301 l 403 492 l 403 213 b 212 301 328 218 260 250 z m 458 213 l 458 492 l 649 301 b 458 213 601 250 533 218 z m 458 569 l 458 801 b 727 507 610 790 727 674 b 683 344 727 444 710 390 z "},"☯":{"ha":861,"x_min":0,"x_max":0,"o":"m 137 550 b 431 803 156 703 279 803 b 719 582 572 803 688 717 b 572 372 736 479 694 372 b 424 507 497 372 451 417 b 276 642 395 600 349 642 b 137 550 213 642 167 613 z m 431 156 b 779 507 623 156 779 294 b 431 858 779 719 623 858 b 82 507 238 858 82 719 b 431 156 82 294 238 156 z "},"☰":{"ha":861,"x_min":0,"x_max":0,"o":"m 122 664 l 740 664 l 740 775 l 122 775 z m 122 401 l 740 401 l 740 513 l 122 513 z m 122 140 l 740 140 l 740 251 l 122 251 z "},"☱":{"ha":861,"x_min":0,"x_max":0,"o":"m 375 664 l 375 775 l 122 775 l 122 664 z m 122 401 l 740 401 l 740 513 l 122 513 z m 122 140 l 740 140 l 740 251 l 122 251 z m 486 775 l 486 664 l 740 664 l 740 775 z "},"☲":{"ha":861,"x_min":0,"x_max":0,"o":"m 375 513 l 122 513 l 122 401 l 375 401 z m 122 775 l 122 664 l 740 664 l 740 775 z m 122 140 l 740 140 l 740 251 l 122 251 z m 486 401 l 740 401 l 740 513 l 486 513 z "},"☳":{"ha":861,"x_min":0,"x_max":0,"o":"m 375 664 l 375 775 l 122 775 l 122 664 z m 122 140 l 740 140 l 740 251 l 122 251 z m 486 775 l 486 664 l 740 664 l 740 775 z m 375 513 l 122 513 l 122 401 l 375 401 z m 486 401 l 740 401 l 740 513 l 486 513 z "},"☴":{"ha":861,"x_min":0,"x_max":0,"o":"m 375 251 l 122 251 l 122 140 l 375 140 z m 122 513 l 122 401 l 740 401 l 740 513 z m 122 775 l 122 664 l 740 664 l 740 775 z m 486 140 l 740 140 l 740 251 l 486 251 z "},"☵":{"ha":861,"x_min":0,"x_max":0,"o":"m 375 664 l 375 775 l 122 775 l 122 664 z m 122 513 l 122 401 l 740 401 l 740 513 z m 486 775 l 486 664 l 740 664 l 740 775 z m 375 140 l 375 251 l 122 251 l 122 140 z m 486 251 l 486 140 l 740 140 l 740 251 z "},"☶":{"ha":861,"x_min":0,"x_max":0,"o":"m 375 251 l 122 251 l 122 140 l 375 140 z m 122 775 l 122 664 l 740 664 l 740 775 z m 486 140 l 740 140 l 740 251 l 486 251 z m 375 402 l 375 513 l 122 513 l 122 402 z m 486 513 l 486 402 l 740 402 l 740 513 z "},"☷":{"ha":861,"x_min":0,"x_max":0,"o":"m 375 251 l 122 251 l 122 140 l 375 140 z m 486 140 l 740 140 l 740 251 l 486 251 z m 375 402 l 375 513 l 122 513 l 122 402 z m 486 513 l 486 402 l 740 402 l 740 513 z m 375 664 l 375 775 l 122 775 l 122 664 z m 486 775 l 486 664 l 740 664 l 740 775 z "},"☹":{"ha":861,"x_min":0,"x_max":0,"o":"m 338 571 b 381 615 362 571 381 588 b 338 659 381 643 362 659 b 294 615 314 659 294 643 b 338 571 294 588 314 571 z m 524 571 b 567 615 548 571 567 588 b 524 659 567 643 548 659 b 481 615 500 659 481 643 b 524 571 481 588 500 571 z m 431 433 b 542 338 498 433 527 391 l 588 355 b 431 481 570 415 527 481 b 274 355 334 481 291 415 l 319 338 b 431 433 334 391 363 433 z m 431 156 b 779 507 623 156 779 294 b 431 858 779 719 623 858 b 82 507 238 858 82 719 b 431 156 82 294 238 156 z m 431 211 b 134 507 265 211 134 330 b 431 803 134 684 265 803 b 727 507 596 803 727 684 b 431 211 727 330 596 211 z "},"☺":{"ha":861,"x_min":0,"x_max":0,"o":"m 338 557 b 381 601 362 557 381 574 b 338 645 381 629 362 645 b 294 601 314 645 294 629 b 338 557 294 574 314 557 z m 524 557 b 567 601 548 557 567 574 b 524 645 567 629 548 645 b 481 601 500 645 481 629 b 524 557 481 574 500 557 z m 431 372 b 319 467 363 372 334 415 l 274 451 b 431 324 291 391 334 324 b 588 451 527 324 570 391 l 542 467 b 431 372 527 415 498 372 z m 431 156 b 779 507 623 156 779 294 b 431 858 779 719 623 858 b 82 507 238 858 82 719 b 431 156 82 294 238 156 z m 431 211 b 134 507 265 211 134 330 b 431 803 134 684 265 803 b 727 507 596 803 727 684 b 431 211 727 330 596 211 z "},"☻":{"ha":861,"x_min":0,"x_max":0,"o":"m 324 573 b 281 617 300 573 281 590 b 324 661 281 645 300 661 b 367 617 348 661 367 645 b 324 573 367 590 348 573 z m 538 573 b 494 617 514 573 494 590 b 538 661 494 645 514 661 b 581 617 562 661 581 645 b 538 573 581 590 562 573 z m 431 349 b 572 469 515 349 552 403 l 617 451 b 431 301 597 380 545 301 b 244 451 316 301 265 380 l 290 469 b 431 349 309 403 346 349 z m 431 156 b 779 507 623 156 779 294 b 431 858 779 719 623 858 b 82 507 238 858 82 719 b 431 156 82 294 238 156 z "},"☿":{"ha":861,"x_min":0,"x_max":0,"o":"m 231 153 l 231 76 l 390 76 l 390 -81 l 473 -81 l 473 76 l 631 76 l 631 153 l 473 153 l 473 299 b 722 590 613 318 722 429 b 585 843 722 705 667 794 b 722 1096 667 892 722 981 l 642 1096 b 431 885 642 969 547 885 b 220 1096 314 885 220 969 l 140 1096 b 276 843 140 981 195 892 b 140 590 195 794 140 705 b 390 299 140 428 249 317 l 390 153 z m 431 379 b 220 590 314 379 220 463 b 431 802 220 718 314 802 b 642 590 547 802 642 718 b 431 379 642 463 547 379 z "},"♀":{"ha":861,"x_min":0,"x_max":0,"o":"m 431 467 b 192 707 298 467 192 563 b 431 947 192 852 298 947 b 669 707 563 947 669 852 b 431 467 669 563 563 467 z m 231 233 l 231 157 l 390 157 l 390 0 l 473 0 l 473 157 l 631 157 l 631 233 l 473 233 l 473 387 b 751 707 629 406 751 528 b 431 1031 751 902 606 1031 b 111 707 255 1031 111 902 b 390 386 111 527 233 405 l 390 233 z "},"♁":{"ha":861,"x_min":0,"x_max":0,"o":"m 431 120 b 813 507 642 120 813 274 b 431 894 813 740 642 894 b 48 507 219 894 48 740 b 431 120 48 274 219 120 z m 130 469 l 389 469 l 389 204 b 130 469 252 221 145 321 z m 130 545 b 389 810 145 693 252 793 l 389 545 z m 472 204 l 472 469 l 731 469 b 472 204 716 321 609 221 z m 472 545 l 472 810 b 731 545 609 793 716 693 z "},"♂":{"ha":861,"x_min":0,"x_max":0,"o":"m 325 106 b 616 400 485 106 616 223 b 561 578 616 470 596 531 l 727 744 l 735 741 l 733 532 l 813 532 l 812 886 l 457 887 l 457 808 l 666 809 l 669 801 l 504 636 b 325 694 455 674 392 694 b 35 400 165 694 35 578 b 325 106 35 223 165 106 z m 325 189 b 115 400 208 189 115 273 b 325 612 115 528 208 612 b 536 400 442 612 536 528 b 325 189 536 273 442 189 z "},"♃":{"ha":861,"x_min":0,"x_max":0,"o":"m 132 267 l 632 267 l 632 74 l 715 74 l 715 763 l 632 763 l 632 343 l 283 343 b 444 631 379 403 444 502 b 189 942 444 800 333 918 l 169 863 b 365 631 281 847 365 759 b 132 357 365 491 261 395 z "},"♄":{"ha":861,"x_min":0,"x_max":0,"o":"m 83 781 l 242 781 l 242 481 l 311 481 b 524 630 357 572 430 630 b 693 457 617 630 693 561 b 485 0 693 279 485 237 l 568 0 b 774 457 568 198 774 245 b 524 711 774 610 662 711 b 326 623 442 711 374 678 l 326 781 l 484 781 l 484 857 l 326 857 l 326 1014 l 242 1014 l 242 857 l 83 857 z "},"♅":{"ha":861,"x_min":0,"x_max":0,"o":"m 431 547 b 669 307 563 547 669 451 b 431 67 669 162 563 67 b 192 307 298 67 192 162 b 431 547 192 451 298 547 z m 431 1042 l 180 792 l 236 736 l 383 885 l 391 882 l 391 628 b 111 307 234 610 111 488 b 431 -17 111 112 255 -17 b 751 307 606 -17 751 112 b 472 627 751 486 628 609 l 472 882 l 480 885 l 626 736 l 683 792 z m 431 224 b 513 307 476 224 513 257 b 431 390 513 357 476 390 b 348 307 385 390 348 357 b 431 224 348 257 385 224 z "},"♆":{"ha":861,"x_min":0,"x_max":0,"o":"m 190 272 l 190 196 l 390 196 l 390 0 l 473 0 l 473 196 l 672 196 l 672 272 l 473 272 l 473 464 b 830 865 673 483 830 638 b 809 1014 830 919 823 969 l 731 1014 b 751 865 742 970 751 921 b 473 544 751 686 631 563 l 473 939 l 390 939 l 390 544 b 110 865 231 562 110 686 b 130 1014 110 921 119 971 l 52 1014 b 31 865 38 969 31 919 b 390 464 31 638 189 482 l 390 272 z "},"♇":{"ha":861,"x_min":0,"x_max":0,"o":"m 231 233 l 231 157 l 390 157 l 390 0 l 473 0 l 473 157 l 631 157 l 631 233 l 473 233 l 473 390 b 844 805 681 408 844 569 l 763 805 b 431 469 763 603 616 469 b 98 805 245 469 98 603 l 17 805 b 390 390 17 568 181 408 l 390 233 z m 431 580 b 653 805 553 580 653 669 b 431 1031 653 941 553 1031 b 208 805 308 1031 208 941 b 431 580 208 669 308 580 z m 431 659 b 288 805 352 659 288 717 b 431 951 288 892 352 951 b 574 805 510 951 574 892 b 431 659 574 717 510 659 z "},"⚀":{"ha":861,"x_min":0,"x_max":0,"o":"m 595 837 l 266 837 b 101 672 158 837 101 779 l 101 342 b 266 177 101 235 158 177 l 595 177 b 760 342 703 177 760 235 l 760 672 b 595 837 760 779 703 837 z m 706 672 l 706 342 b 595 231 706 269 668 231 l 266 231 b 155 342 193 231 155 269 l 155 672 b 266 783 155 744 193 783 l 595 783 b 706 672 668 783 706 744 z m 431 455 b 482 507 459 455 482 476 b 431 559 482 538 459 559 b 379 507 402 559 379 538 b 431 455 379 476 402 455 z "},"⚁":{"ha":861,"x_min":0,"x_max":0,"o":"m 595 837 l 266 837 b 101 672 158 837 101 779 l 101 342 b 266 177 101 235 158 177 l 595 177 b 760 342 703 177 760 235 l 760 672 b 595 837 760 779 703 837 z m 706 672 l 706 342 b 595 231 706 269 668 231 l 266 231 b 155 342 193 231 155 269 l 155 672 b 266 783 155 744 193 783 l 595 783 b 706 672 668 783 706 744 z m 549 573 b 600 625 577 573 600 594 b 549 677 600 656 577 677 b 497 625 520 677 497 656 b 549 573 497 594 520 573 z m 313 441 b 261 389 284 441 261 420 b 313 337 261 358 284 337 b 364 389 341 337 364 358 b 313 441 364 420 341 441 z "},"⚂":{"ha":861,"x_min":0,"x_max":0,"o":"m 595 837 l 266 837 b 101 672 158 837 101 779 l 101 342 b 266 177 101 235 158 177 l 595 177 b 760 342 703 177 760 235 l 760 672 b 595 837 760 779 703 837 z m 706 672 l 706 342 b 595 231 706 269 668 231 l 266 231 b 155 342 193 231 155 269 l 155 672 b 266 783 155 744 193 783 l 595 783 b 706 672 668 783 706 744 z m 569 594 b 621 646 598 594 621 615 b 569 698 621 677 598 698 b 518 646 541 698 518 677 b 569 594 518 615 541 594 z m 292 420 b 240 368 263 420 240 399 b 292 316 240 337 263 316 b 343 368 320 316 343 337 b 292 420 343 399 320 420 z m 431 455 b 482 507 459 455 482 476 b 431 559 482 538 459 559 b 379 507 402 559 379 538 b 431 455 379 476 402 455 z "},"⚃":{"ha":861,"x_min":0,"x_max":0,"o":"m 595 837 l 266 837 b 101 672 158 837 101 779 l 101 342 b 266 177 101 235 158 177 l 595 177 b 760 342 703 177 760 235 l 760 672 b 595 837 760 779 703 837 z m 706 672 l 706 342 b 595 231 706 269 668 231 l 266 231 b 155 342 193 231 155 269 l 155 672 b 266 783 155 744 193 783 l 595 783 b 706 672 668 783 706 744 z m 549 573 b 600 625 577 573 600 594 b 549 677 600 656 577 677 b 497 625 520 677 497 656 b 549 573 497 594 520 573 z m 313 441 b 261 389 284 441 261 420 b 313 337 261 358 284 337 b 364 389 341 337 364 358 b 313 441 364 420 341 441 z m 313 573 b 364 625 341 573 364 594 b 313 677 364 656 341 677 b 261 625 284 677 261 656 b 313 573 261 594 284 573 z m 549 441 b 497 389 520 441 497 420 b 549 337 497 358 520 337 b 600 389 577 337 600 358 b 549 441 600 420 577 441 z "},"⚄":{"ha":861,"x_min":0,"x_max":0,"o":"m 595 837 l 266 837 b 101 672 158 837 101 779 l 101 342 b 266 177 101 235 158 177 l 595 177 b 760 342 703 177 760 235 l 760 672 b 595 837 760 779 703 837 z m 706 672 l 706 342 b 595 231 706 269 668 231 l 266 231 b 155 342 193 231 155 269 l 155 672 b 266 783 155 744 193 783 l 595 783 b 706 672 668 783 706 744 z m 431 455 b 482 507 459 455 482 476 b 431 559 482 538 459 559 b 379 507 402 559 379 538 b 431 455 379 476 402 455 z m 569 594 b 621 646 598 594 621 615 b 569 698 621 677 598 698 b 518 646 541 698 518 677 b 569 594 518 615 541 594 z m 292 420 b 240 368 263 420 240 399 b 292 316 240 337 263 316 b 343 368 320 316 343 337 b 292 420 343 399 320 420 z m 292 594 b 343 646 320 594 343 615 b 292 698 343 677 320 698 b 240 646 263 698 240 677 b 292 594 240 615 263 594 z m 569 420 b 518 368 541 420 518 399 b 569 316 518 337 541 316 b 621 368 598 316 621 337 b 569 420 621 399 598 420 z "},"⚅":{"ha":861,"x_min":0,"x_max":0,"o":"m 595 837 l 266 837 b 101 672 158 837 101 779 l 101 342 b 266 177 101 235 158 177 l 595 177 b 760 342 703 177 760 235 l 760 672 b 595 837 760 779 703 837 z m 706 672 l 706 342 b 595 231 706 269 668 231 l 266 231 b 155 342 193 231 155 269 l 155 672 b 266 783 155 744 193 783 l 595 783 b 706 672 668 783 706 744 z m 549 619 b 600 671 577 619 600 640 b 549 723 600 702 577 723 b 497 671 520 723 497 702 b 549 619 497 640 520 619 z m 313 395 b 261 343 284 395 261 374 b 313 291 261 312 284 291 b 364 343 341 291 364 312 b 313 395 364 374 341 395 z m 313 619 b 364 671 341 619 364 640 b 313 723 364 702 341 723 b 261 671 284 723 261 702 b 313 619 261 640 284 619 z m 549 395 b 497 343 520 395 497 374 b 549 291 497 312 520 291 b 600 343 577 291 600 312 b 549 395 600 374 577 395 z m 313 559 b 261 507 284 559 261 538 b 313 455 261 476 284 455 b 364 507 341 455 364 476 b 313 559 364 538 341 559 z m 549 559 b 497 507 520 559 497 538 b 549 455 497 476 520 455 b 600 507 577 455 600 476 b 549 559 600 538 577 559 z "},"⚆":{"ha":861,"x_min":0,"x_max":0,"o":"m 571 450 b 628 507 602 450 628 472 b 571 565 628 542 602 565 b 514 507 540 565 514 542 b 571 450 514 472 540 450 z m 431 156 b 779 507 623 156 779 294 b 431 858 779 719 623 858 b 82 507 238 858 82 719 b 431 156 82 294 238 156 z m 431 211 b 134 507 265 211 134 330 b 431 803 134 684 265 803 b 727 507 596 803 727 684 b 431 211 727 330 596 211 z "}}}
